%FSLAX34Y34*%
%MOMM*%
%LNSMDMASK_TOP*%
G71*
G01*
%ADD10R,2.000X1.000*%
%ADD11R,1.000X2.000*%
%ADD12R,0.800X1.300*%
%ADD13R,1.300X0.800*%
%LPD*%
G36*
X575475Y-395596D02*
X568404Y-388525D01*
X582546Y-374382D01*
X589617Y-381453D01*
X575475Y-395596D01*
G37*
G36*
X553979Y-374665D02*
X546908Y-367594D01*
X561050Y-353452D01*
X568121Y-360523D01*
X553979Y-374665D01*
G37*
X357192Y-346978D02*
G54D10*
D03*
X357692Y-380778D02*
G54D10*
D03*
X713483Y-318143D02*
G54D11*
D03*
G36*
X742283Y-307643D02*
X752283Y-307643D01*
X752283Y-327643D01*
X742283Y-327643D01*
X742283Y-307643D01*
G37*
X573225Y-332760D02*
G54D10*
D03*
X572725Y-298960D02*
G54D10*
D03*
X557277Y-236175D02*
G54D12*
D03*
X576399Y-236098D02*
G54D12*
D03*
X566886Y-212015D02*
G54D12*
D03*
X274281Y-121827D02*
G54D13*
D03*
X274204Y-102704D02*
G54D13*
D03*
X250120Y-112218D02*
G54D13*
D03*
G36*
X284536Y-118137D02*
X294536Y-118137D01*
X294536Y-138137D01*
X284536Y-138137D01*
X284536Y-118137D01*
G37*
G36*
X318336Y-117637D02*
X328336Y-117637D01*
X328336Y-137637D01*
X318336Y-137637D01*
X318336Y-117637D01*
G37*
X356572Y-298379D02*
G54D10*
D03*
X357072Y-332179D02*
G54D10*
D03*
X395069Y-491958D02*
G54D11*
D03*
X361269Y-492458D02*
G54D11*
D03*
G36*
X586179Y-478879D02*
X593250Y-485950D01*
X579108Y-500092D01*
X572037Y-493021D01*
X586179Y-478879D01*
G37*
G36*
X610432Y-502426D02*
X617504Y-509496D01*
X603362Y-523639D01*
X596291Y-516568D01*
X610432Y-502426D01*
G37*
G36*
X857810Y-473288D02*
X849619Y-467552D01*
X861090Y-451169D01*
X869282Y-456905D01*
X857810Y-473288D01*
G37*
G36*
X829836Y-454311D02*
X821645Y-448575D01*
X833116Y-432192D01*
X841308Y-437928D01*
X829836Y-454311D01*
G37*
G36*
X504694Y-440064D02*
X511765Y-447135D01*
X497623Y-461277D01*
X490552Y-454206D01*
X504694Y-440064D01*
G37*
G36*
X528947Y-463611D02*
X536019Y-470682D01*
X521877Y-484824D01*
X514806Y-477754D01*
X528947Y-463611D01*
G37*
X538298Y-531486D02*
G54D10*
D03*
X537798Y-497686D02*
G54D10*
D03*
X456082Y-270544D02*
G54D10*
D03*
X456582Y-304344D02*
G54D10*
D03*
X582869Y-108111D02*
G54D10*
D03*
X582369Y-74311D02*
G54D10*
D03*
X236465Y-408898D02*
G54D10*
D03*
X235965Y-375098D02*
G54D10*
D03*
X162304Y-171682D02*
G54D10*
D03*
X162804Y-205482D02*
G54D10*
D03*
G36*
X318186Y-263328D02*
X328186Y-263328D01*
X328186Y-283328D01*
X318186Y-283328D01*
X318186Y-263328D01*
G37*
G36*
X351986Y-262828D02*
X361986Y-262828D01*
X361986Y-282828D01*
X351986Y-282828D01*
X351986Y-262828D01*
G37*
G36*
X297019Y-293788D02*
X307019Y-293788D01*
X307019Y-313788D01*
X297019Y-313788D01*
X297019Y-293788D01*
G37*
G36*
X330819Y-293288D02*
X340819Y-293288D01*
X340819Y-313288D01*
X330819Y-313288D01*
X330819Y-293288D01*
G37*
G36*
X333827Y-449790D02*
X343827Y-449790D01*
X343828Y-469790D01*
X333828Y-469790D01*
X333827Y-449790D01*
G37*
G36*
X367627Y-449290D02*
X377627Y-449290D01*
X377628Y-469290D01*
X367628Y-469290D01*
X367627Y-449290D01*
G37*
G36*
X23905Y-104406D02*
X33905Y-104406D01*
X33905Y-124406D01*
X23905Y-124406D01*
X23905Y-104406D01*
G37*
G36*
X57705Y-103906D02*
X67705Y-103906D01*
X67705Y-123906D01*
X57705Y-123906D01*
X57705Y-103906D01*
G37*
X155407Y-441550D02*
G54D10*
D03*
X154907Y-407750D02*
G54D10*
D03*
X329364Y-199495D02*
G54D12*
D03*
X310242Y-199572D02*
G54D12*
D03*
X319755Y-223655D02*
G54D12*
D03*
G36*
X356052Y-189440D02*
X366052Y-189440D01*
X366053Y-209440D01*
X356053Y-209440D01*
X356052Y-189440D01*
G37*
G36*
X389852Y-188940D02*
X399852Y-188940D01*
X399853Y-208940D01*
X389853Y-208940D01*
X389852Y-188940D01*
G37*
M02*
