%FSLAX34Y34*%
%MOMM*%
%LNSILK_BOTTOM*%
G71*
G01*
%ADD10C,0.156*%
%ADD11C,0.560*%
%ADD12C,0.133*%
%ADD13C,0.122*%
%ADD14C,0.167*%
%ADD15C,0.144*%
%ADD16C,0.111*%
%ADD17C,0.170*%
%ADD18C,0.200*%
%ADD19C,0.210*%
%ADD20C,0.222*%
%ADD21C,0.189*%
%ADD22C,0.400*%
%ADD23C,0.318*%
%ADD24C,0.100*%
%ADD25C,0.150*%
%LPD*%
G54D10*
X597418Y-179353D02*
X592751Y-191798D01*
X588084Y-179353D01*
G54D10*
X579996Y-185264D02*
X581863Y-184798D01*
X583729Y-185264D01*
X584663Y-186820D01*
X584663Y-189931D01*
X583729Y-191487D01*
X581863Y-191798D01*
X579996Y-191487D01*
G54D10*
X571907Y-185264D02*
X573774Y-184798D01*
X575640Y-185264D01*
X576574Y-186820D01*
X576574Y-189931D01*
X575640Y-191487D01*
X573774Y-191798D01*
X571907Y-191487D01*
G54D10*
X591215Y-161135D02*
X588415Y-162691D01*
X587482Y-164246D01*
X587482Y-167357D01*
G54D10*
X594948Y-167357D02*
X594948Y-154913D01*
X590282Y-154913D01*
X588415Y-155691D01*
X587482Y-157246D01*
X587482Y-158802D01*
X588415Y-160357D01*
X590282Y-161135D01*
X594948Y-161135D01*
G54D10*
X584060Y-166580D02*
X582193Y-167357D01*
X580326Y-167357D01*
X578460Y-166580D01*
X578460Y-165024D01*
X579393Y-164246D01*
X583126Y-163468D01*
X584060Y-162691D01*
X584060Y-161135D01*
X582193Y-160357D01*
X580326Y-160357D01*
X578460Y-161135D01*
G54D10*
X573171Y-154913D02*
X573171Y-166580D01*
X572238Y-167357D01*
X571304Y-167046D01*
G54D10*
X575038Y-160357D02*
X571304Y-160357D01*
G54D10*
X587084Y-116561D02*
X587084Y-104116D01*
G54D10*
X590817Y-104116D02*
X583350Y-104116D01*
G54D10*
X579928Y-109561D02*
X572461Y-116561D01*
G54D10*
X579928Y-116561D02*
X572461Y-109561D01*
G54D10*
X588373Y-136338D02*
X585573Y-137894D01*
X584640Y-139450D01*
X584640Y-142561D01*
G54D10*
X592106Y-142561D02*
X592106Y-130116D01*
X587440Y-130116D01*
X585573Y-130894D01*
X584640Y-132450D01*
X584640Y-134005D01*
X585573Y-135561D01*
X587440Y-136338D01*
X592106Y-136338D01*
G54D10*
X581218Y-135561D02*
X573751Y-142561D01*
G54D10*
X581218Y-142561D02*
X573751Y-135561D01*
G54D10*
X593290Y-86535D02*
X589557Y-86535D01*
X589557Y-90424D01*
X590490Y-91980D01*
X592357Y-92757D01*
X594224Y-92757D01*
X596090Y-91980D01*
X597024Y-90424D01*
X597024Y-82646D01*
X596090Y-81091D01*
X594224Y-80313D01*
X592357Y-80313D01*
X590490Y-81091D01*
X589557Y-82646D01*
G54D10*
X586134Y-92757D02*
X586134Y-85757D01*
G54D10*
X586134Y-87313D02*
X585201Y-86224D01*
X583334Y-85757D01*
X581468Y-86224D01*
X580534Y-87313D01*
X580534Y-92757D01*
G54D10*
X571512Y-92757D02*
X571512Y-80313D01*
G54D10*
X571512Y-87780D02*
X572446Y-86224D01*
X574312Y-85757D01*
X576179Y-86224D01*
X577112Y-87780D01*
X577112Y-90891D01*
X576179Y-92446D01*
X574312Y-92757D01*
X572446Y-92446D01*
X571512Y-90891D01*
G54D11*
X180140Y-159823D02*
X180140Y-159823D01*
G54D12*
X164495Y-207744D02*
X163695Y-209078D01*
X162095Y-209744D01*
X160495Y-209744D01*
X158895Y-209078D01*
X158095Y-207744D01*
X158095Y-206411D01*
X158895Y-205078D01*
X160495Y-204411D01*
X162095Y-204411D01*
X163695Y-203744D01*
X164495Y-202411D01*
X164495Y-201078D01*
X163695Y-199744D01*
X162095Y-199078D01*
X160495Y-199078D01*
X158895Y-199744D01*
X158095Y-201078D01*
G54D12*
X150362Y-208144D02*
X150362Y-205478D01*
X151162Y-204144D01*
X152762Y-203744D01*
X154362Y-204144D01*
X155162Y-205478D01*
X155162Y-208144D01*
X154362Y-209478D01*
X152762Y-209744D01*
X151162Y-209478D01*
X150362Y-208144D01*
G54D12*
X147429Y-209078D02*
X145829Y-209744D01*
X144229Y-209744D01*
X142629Y-209078D01*
X142629Y-207744D01*
X143429Y-207078D01*
X146629Y-206411D01*
X147429Y-205744D01*
X147429Y-204411D01*
X145829Y-203744D01*
X144229Y-203744D01*
X142629Y-204411D01*
G54D12*
X138096Y-199078D02*
X138096Y-209078D01*
X137296Y-209744D01*
X136496Y-209478D01*
G54D12*
X139696Y-203744D02*
X136496Y-203744D01*
G54D12*
X133563Y-199078D02*
X133563Y-209744D01*
X129563Y-203078D01*
X125563Y-209744D01*
X125563Y-199078D01*
G54D12*
X122630Y-205078D02*
X116230Y-205078D01*
G54D12*
X119430Y-202411D02*
X119430Y-207744D01*
G54D12*
X145330Y-121987D02*
X141330Y-132654D01*
X137330Y-121987D01*
G54D12*
X134397Y-126654D02*
X131197Y-132654D01*
X127997Y-126654D01*
G54D12*
X131197Y-132654D02*
X131997Y-134654D01*
X132797Y-135321D01*
X133597Y-135321D01*
G54D12*
X125064Y-132654D02*
X125064Y-121987D01*
G54D12*
X125064Y-128387D02*
X124264Y-127054D01*
X122664Y-126654D01*
X121064Y-127054D01*
X120264Y-128387D01*
X120264Y-132654D01*
G54D12*
X117331Y-121987D02*
X117331Y-132654D01*
X113331Y-125987D01*
X109331Y-132654D01*
X109331Y-121987D01*
G54D12*
X106398Y-127987D02*
X99998Y-127987D01*
G54D12*
X149354Y-360596D02*
X149354Y-349930D01*
X145354Y-349930D01*
X143754Y-350596D01*
X142954Y-351930D01*
X142954Y-358596D01*
X143754Y-359930D01*
X145354Y-360596D01*
X149354Y-360596D01*
G54D12*
X135221Y-358996D02*
X135221Y-356330D01*
X136021Y-354996D01*
X137621Y-354596D01*
X139221Y-354996D01*
X140021Y-356330D01*
X140021Y-358996D01*
X139221Y-360330D01*
X137621Y-360596D01*
X136021Y-360330D01*
X135221Y-358996D01*
G54D12*
X132288Y-360596D02*
X132288Y-354596D01*
G54D12*
X132288Y-355930D02*
X131488Y-354996D01*
X129888Y-354596D01*
X128288Y-354996D01*
X127488Y-355930D01*
X127488Y-360596D01*
G54D12*
X124555Y-355930D02*
X118155Y-355930D01*
G54D12*
X151876Y-330822D02*
X151876Y-320155D01*
X147876Y-320155D01*
X146276Y-320822D01*
X145476Y-322155D01*
X145476Y-328822D01*
X146276Y-330155D01*
X147876Y-330822D01*
X151876Y-330822D01*
G54D12*
X137743Y-329222D02*
X137743Y-326555D01*
X138543Y-325222D01*
X140143Y-324822D01*
X141743Y-325222D01*
X142543Y-326555D01*
X142543Y-329222D01*
X141743Y-330555D01*
X140143Y-330822D01*
X138543Y-330555D01*
X137743Y-329222D01*
G54D12*
X133210Y-330822D02*
X133210Y-320822D01*
X132410Y-320155D01*
X131610Y-320555D01*
G54D12*
X134810Y-324822D02*
X131610Y-324822D01*
G54D12*
X127077Y-330822D02*
X127077Y-320822D01*
X126277Y-320155D01*
X125477Y-320555D01*
G54D12*
X128677Y-324822D02*
X125477Y-324822D01*
G54D12*
X122544Y-326155D02*
X116144Y-326155D01*
G54D12*
X134742Y-173890D02*
X131542Y-173890D01*
X131542Y-177223D01*
X132342Y-178557D01*
X133942Y-179223D01*
X135542Y-179223D01*
X137142Y-178557D01*
X137942Y-177223D01*
X137942Y-170557D01*
X137142Y-169223D01*
X135542Y-168557D01*
X133942Y-168557D01*
X132342Y-169223D01*
X131542Y-170557D01*
G54D12*
X128609Y-179223D02*
X128609Y-173223D01*
G54D12*
X128609Y-174557D02*
X127809Y-173623D01*
X126209Y-173223D01*
X124609Y-173623D01*
X123809Y-174557D01*
X123809Y-179223D01*
G54D12*
X116076Y-179223D02*
X116076Y-168557D01*
G54D12*
X116076Y-174957D02*
X116876Y-173623D01*
X118476Y-173223D01*
X120076Y-173623D01*
X120876Y-174957D01*
X120876Y-177623D01*
X120076Y-178957D01*
X118476Y-179223D01*
X116876Y-178957D01*
X116076Y-177623D01*
G54D13*
X51585Y-171596D02*
X51585Y-161818D01*
X47918Y-161818D01*
X46451Y-162429D01*
X45718Y-163652D01*
X45718Y-169763D01*
X46451Y-170985D01*
X47918Y-171596D01*
X51585Y-171596D01*
G54D13*
X43029Y-166707D02*
X41562Y-166096D01*
X39802Y-166096D01*
X38629Y-167318D01*
X38629Y-171596D01*
G54D13*
X38629Y-169763D02*
X39362Y-168540D01*
X40829Y-168296D01*
X42295Y-168540D01*
X43029Y-169763D01*
X42735Y-170985D01*
X41562Y-171596D01*
X40829Y-171596D01*
X40535Y-171596D01*
X39362Y-170985D01*
X38629Y-169763D01*
G54D13*
X35940Y-171596D02*
X35940Y-161818D01*
G54D13*
X33251Y-171596D02*
X33251Y-161818D01*
G54D13*
X30562Y-166707D02*
X29095Y-166096D01*
X27335Y-166096D01*
X26162Y-167318D01*
X26162Y-171596D01*
G54D13*
X26162Y-169763D02*
X26895Y-168540D01*
X28362Y-168296D01*
X29828Y-168540D01*
X30562Y-169763D01*
X30268Y-170985D01*
X29095Y-171596D01*
X28362Y-171596D01*
X28068Y-171596D01*
X26895Y-170985D01*
X26162Y-169763D01*
G54D13*
X23473Y-170985D02*
X22006Y-171596D01*
X20539Y-171596D01*
X19073Y-170985D01*
X19073Y-169763D01*
X19806Y-169152D01*
X22739Y-168540D01*
X23473Y-167929D01*
X23473Y-166707D01*
X22006Y-166096D01*
X20539Y-166096D01*
X19073Y-166707D01*
G54D12*
X157926Y-381790D02*
X153926Y-377790D01*
X153926Y-388456D01*
G54D12*
X150993Y-383790D02*
X144593Y-383790D01*
G54D12*
X141660Y-382456D02*
X139260Y-388456D01*
X136860Y-382456D01*
X134460Y-388456D01*
X132860Y-382456D01*
G54D12*
X129927Y-388456D02*
X129927Y-382456D01*
G54D12*
X129927Y-380456D02*
X129927Y-380456D01*
G54D12*
X126994Y-388456D02*
X126994Y-382456D01*
G54D12*
X126994Y-383790D02*
X125394Y-382456D01*
X123794Y-382456D01*
G54D12*
X116061Y-387790D02*
X117341Y-388456D01*
X118941Y-388456D01*
X120541Y-387790D01*
X120861Y-386456D01*
X120861Y-384190D01*
X120061Y-382856D01*
X118461Y-382456D01*
X116861Y-382856D01*
X116061Y-383790D01*
X116061Y-385123D01*
X120861Y-385123D01*
G54D13*
X51087Y-364329D02*
X51087Y-354551D01*
X47420Y-354551D01*
X45954Y-355162D01*
X45220Y-356385D01*
X45220Y-362496D01*
X45954Y-363718D01*
X47420Y-364329D01*
X51087Y-364329D01*
G54D13*
X42531Y-359440D02*
X41064Y-358829D01*
X39304Y-358829D01*
X38131Y-360051D01*
X38131Y-364329D01*
G54D13*
X38131Y-362496D02*
X38864Y-361274D01*
X40331Y-361029D01*
X41798Y-361274D01*
X42531Y-362496D01*
X42238Y-363718D01*
X41064Y-364329D01*
X40331Y-364329D01*
X40038Y-364329D01*
X38864Y-363718D01*
X38131Y-362496D01*
G54D13*
X35442Y-364329D02*
X35442Y-354551D01*
G54D13*
X32753Y-364329D02*
X32753Y-354551D01*
G54D13*
X30064Y-359440D02*
X28597Y-358829D01*
X26837Y-358829D01*
X25664Y-360051D01*
X25664Y-364329D01*
G54D13*
X25664Y-362496D02*
X26397Y-361274D01*
X27864Y-361029D01*
X29331Y-361274D01*
X30064Y-362496D01*
X29771Y-363718D01*
X28597Y-364329D01*
X27864Y-364329D01*
X27571Y-364329D01*
X26397Y-363718D01*
X25664Y-362496D01*
G54D13*
X22975Y-363718D02*
X21508Y-364329D01*
X20042Y-364329D01*
X18575Y-363718D01*
X18575Y-362496D01*
X19308Y-361885D01*
X22242Y-361274D01*
X22975Y-360662D01*
X22975Y-359440D01*
X21508Y-358829D01*
X20042Y-358829D01*
X18575Y-359440D01*
G54D13*
X49905Y-416058D02*
X46239Y-412391D01*
X46239Y-422169D01*
G54D13*
X37683Y-422169D02*
X43549Y-422169D01*
X43549Y-421558D01*
X42816Y-420336D01*
X38416Y-416669D01*
X37683Y-415447D01*
X37683Y-414225D01*
X38416Y-413002D01*
X39883Y-412391D01*
X41349Y-412391D01*
X42816Y-413002D01*
X43549Y-414225D01*
G54D13*
X34993Y-412391D02*
X31327Y-422169D01*
X27660Y-412391D01*
G54D14*
X668741Y-297825D02*
X676741Y-297825D01*
X676741Y-303658D01*
X675741Y-303658D01*
X673741Y-302825D01*
X671741Y-302825D01*
X669741Y-303658D01*
X668741Y-305325D01*
X668741Y-308658D01*
X669741Y-310325D01*
X671741Y-311158D01*
X673741Y-311158D01*
X675741Y-310325D01*
X676741Y-308658D01*
G54D14*
X665074Y-297825D02*
X660074Y-311158D01*
X655074Y-297825D01*
G54D15*
X286464Y-230324D02*
X287330Y-228879D01*
X289064Y-228157D01*
X290797Y-228157D01*
X292530Y-228879D01*
X293397Y-230324D01*
X293397Y-233935D01*
X293397Y-234657D01*
X290797Y-233213D01*
X289064Y-233213D01*
X287330Y-233935D01*
X286464Y-235379D01*
X286464Y-237546D01*
X287330Y-238990D01*
X289064Y-239713D01*
X290797Y-239713D01*
X292530Y-238990D01*
X293397Y-237546D01*
X293397Y-233935D01*
G54D12*
X433497Y-133950D02*
X429497Y-129950D01*
X429497Y-140616D01*
G54D12*
X420164Y-131950D02*
X420164Y-138616D01*
X420964Y-139950D01*
X422564Y-140616D01*
X424164Y-140616D01*
X425764Y-139950D01*
X426564Y-138616D01*
X426564Y-131950D01*
X425764Y-130616D01*
X424164Y-129950D01*
X422564Y-129950D01*
X420964Y-130616D01*
X420164Y-131950D01*
G54D15*
X411736Y-189946D02*
X407402Y-185612D01*
X407402Y-197168D01*
G54D15*
X404225Y-189946D02*
X399892Y-185612D01*
X399892Y-197168D01*
G54D15*
X409487Y-209643D02*
X405154Y-205310D01*
X405154Y-216865D01*
G54D15*
X395043Y-216865D02*
X401976Y-216865D01*
X401976Y-216143D01*
X401109Y-214698D01*
X395909Y-210365D01*
X395043Y-208921D01*
X395043Y-207476D01*
X395909Y-206032D01*
X397643Y-205310D01*
X399376Y-205310D01*
X401109Y-206032D01*
X401976Y-207476D01*
G54D15*
X410820Y-233958D02*
X406486Y-229625D01*
X406486Y-241181D01*
G54D15*
X403309Y-231792D02*
X402442Y-230347D01*
X400709Y-229625D01*
X398975Y-229625D01*
X397242Y-230347D01*
X396375Y-231792D01*
X396375Y-233236D01*
X397242Y-234681D01*
X398975Y-235403D01*
X397242Y-236125D01*
X396375Y-237569D01*
X396375Y-239014D01*
X397242Y-240458D01*
X398975Y-241181D01*
X400709Y-241181D01*
X402442Y-240458D01*
X403309Y-239014D01*
G54D16*
X416128Y-363013D02*
X412795Y-371902D01*
X409462Y-363013D01*
G54D16*
X401684Y-370236D02*
X402351Y-371347D01*
X403684Y-371902D01*
X405017Y-371902D01*
X406351Y-371347D01*
X407017Y-370236D01*
X407017Y-364680D01*
X406351Y-363569D01*
X405017Y-363013D01*
X403684Y-363013D01*
X402351Y-363569D01*
X401684Y-364680D01*
G54D16*
X393907Y-370236D02*
X394574Y-371347D01*
X395907Y-371902D01*
X397240Y-371902D01*
X398574Y-371347D01*
X399240Y-370236D01*
X399240Y-364680D01*
X398574Y-363569D01*
X397240Y-363013D01*
X395907Y-363013D01*
X394574Y-363569D01*
X393907Y-364680D01*
G54D15*
X288568Y-379025D02*
X290013Y-381625D01*
X291457Y-382492D01*
X294346Y-382492D01*
G54D15*
X294346Y-375558D02*
X282791Y-375558D01*
X282791Y-379892D01*
X283513Y-381625D01*
X284957Y-382492D01*
X286402Y-382492D01*
X287846Y-381625D01*
X288568Y-379892D01*
X288568Y-375558D01*
G54D15*
X293624Y-390869D02*
X294346Y-389483D01*
X294346Y-387749D01*
X293624Y-386016D01*
X292179Y-385669D01*
X289724Y-385669D01*
X288279Y-386536D01*
X287846Y-388269D01*
X288279Y-390003D01*
X289291Y-390869D01*
X290735Y-390869D01*
X290735Y-385669D01*
G54D15*
X293624Y-394047D02*
X294346Y-395781D01*
X294346Y-397514D01*
X293624Y-399247D01*
X292179Y-399247D01*
X291457Y-398381D01*
X290735Y-394914D01*
X290013Y-394047D01*
X288568Y-394047D01*
X287846Y-395781D01*
X287846Y-397514D01*
X288568Y-399247D01*
G54D15*
X289186Y-350358D02*
X289186Y-353824D01*
X292797Y-353824D01*
X294241Y-352958D01*
X294963Y-351224D01*
X294963Y-349491D01*
X294241Y-347758D01*
X292797Y-346891D01*
X285574Y-346891D01*
X284130Y-347758D01*
X283408Y-349491D01*
X283408Y-351224D01*
X284130Y-352958D01*
X285574Y-353824D01*
G54D15*
X294963Y-357002D02*
X288463Y-357002D01*
G54D15*
X289908Y-357002D02*
X288897Y-357868D01*
X288463Y-359602D01*
X288897Y-361335D01*
X289908Y-362202D01*
X294963Y-362202D01*
G54D15*
X294963Y-370580D02*
X283408Y-370580D01*
G54D15*
X290341Y-370580D02*
X288897Y-369713D01*
X288463Y-367980D01*
X288897Y-366246D01*
X290341Y-365380D01*
X293230Y-365380D01*
X294674Y-366246D01*
X294963Y-367980D01*
X294674Y-369713D01*
X293230Y-370580D01*
G54D15*
X409647Y-431756D02*
X405314Y-443312D01*
X400980Y-431756D01*
G54D15*
X397802Y-443312D02*
X397802Y-436812D01*
G54D15*
X397802Y-434645D02*
X397802Y-434645D01*
G54D15*
X394624Y-443312D02*
X394624Y-436812D01*
G54D15*
X394624Y-438256D02*
X393757Y-437245D01*
X392024Y-436812D01*
X390291Y-437245D01*
X389424Y-438256D01*
X389424Y-443312D01*
G54D15*
X302812Y-412305D02*
X300212Y-413750D01*
X299345Y-415194D01*
X299345Y-418083D01*
G54D15*
X306279Y-418083D02*
X306279Y-406528D01*
X301945Y-406528D01*
X300212Y-407250D01*
X299345Y-408694D01*
X299345Y-410139D01*
X300212Y-411583D01*
X301945Y-412305D01*
X306279Y-412305D01*
G54D15*
X296168Y-411583D02*
X289234Y-418083D01*
G54D15*
X296168Y-418083D02*
X289234Y-411583D01*
G54D15*
X301605Y-442199D02*
X301605Y-430644D01*
G54D15*
X305072Y-430644D02*
X298139Y-430644D01*
G54D15*
X294961Y-435699D02*
X288028Y-442199D01*
G54D15*
X294961Y-442199D02*
X288028Y-435699D01*
G54D15*
X406402Y-414178D02*
X402935Y-414178D01*
X402935Y-417789D01*
X403802Y-419233D01*
X405535Y-419956D01*
X407268Y-419956D01*
X409002Y-419233D01*
X409868Y-417789D01*
X409868Y-410567D01*
X409002Y-409122D01*
X407268Y-408400D01*
X405535Y-408400D01*
X403802Y-409122D01*
X402935Y-410567D01*
G54D15*
X399757Y-419956D02*
X399757Y-413456D01*
G54D15*
X399757Y-414900D02*
X398891Y-413889D01*
X397157Y-413456D01*
X395424Y-413889D01*
X394557Y-414900D01*
X394557Y-419956D01*
G54D15*
X386179Y-419956D02*
X386179Y-408400D01*
G54D15*
X386179Y-415333D02*
X387046Y-413889D01*
X388779Y-413456D01*
X390513Y-413889D01*
X391379Y-415333D01*
X391379Y-418222D01*
X390513Y-419667D01*
X388779Y-419956D01*
X387046Y-419667D01*
X386179Y-418222D01*
G54D15*
X293758Y-201878D02*
X286825Y-201878D01*
X287692Y-203322D01*
X289425Y-205489D01*
X291158Y-208378D01*
X292025Y-210544D01*
X292025Y-213433D01*
G54D15*
X291797Y-185935D02*
X290064Y-185935D01*
X288331Y-185213D01*
X287464Y-183768D01*
X287464Y-182324D01*
X288331Y-180879D01*
X290064Y-180157D01*
X291797Y-180157D01*
X293531Y-180879D01*
X294397Y-182324D01*
X294397Y-183768D01*
X293531Y-185213D01*
X291797Y-185935D01*
X293531Y-186657D01*
X294397Y-188102D01*
X294397Y-189546D01*
X293531Y-190990D01*
X291797Y-191713D01*
X290064Y-191713D01*
X288331Y-190990D01*
X287464Y-189546D01*
X287464Y-188102D01*
X288331Y-186657D01*
X290064Y-185935D01*
G54D12*
X276739Y-139670D02*
X275939Y-141004D01*
X274339Y-141670D01*
X272739Y-141670D01*
X271139Y-141004D01*
X270339Y-139670D01*
X270339Y-136337D01*
X270339Y-135670D01*
X272739Y-137004D01*
X274339Y-137004D01*
X275939Y-136337D01*
X276739Y-135004D01*
X276739Y-133004D01*
X275939Y-131670D01*
X274339Y-131004D01*
X272739Y-131004D01*
X271139Y-131670D01*
X270339Y-133004D01*
X270339Y-136337D01*
G54D15*
X406008Y-388715D02*
X403408Y-390159D01*
X402542Y-391604D01*
X402542Y-394493D01*
G54D15*
X409475Y-394493D02*
X409475Y-382937D01*
X405142Y-382937D01*
X403408Y-383659D01*
X402542Y-385104D01*
X402542Y-386548D01*
X403408Y-387993D01*
X405142Y-388715D01*
X409475Y-388715D01*
G54D15*
X394164Y-393770D02*
X395551Y-394493D01*
X397284Y-394493D01*
X399017Y-393770D01*
X399364Y-392326D01*
X399364Y-389870D01*
X398497Y-388426D01*
X396764Y-387993D01*
X395031Y-388426D01*
X394164Y-389437D01*
X394164Y-390882D01*
X399364Y-390882D01*
G54D15*
X390986Y-393770D02*
X389253Y-394493D01*
X387519Y-394493D01*
X385786Y-393770D01*
X385786Y-392326D01*
X386653Y-391604D01*
X390119Y-390882D01*
X390986Y-390159D01*
X390986Y-388715D01*
X389253Y-387993D01*
X387519Y-387993D01*
X385786Y-388715D01*
G54D15*
X285530Y-337202D02*
X292463Y-337202D01*
X292463Y-336480D01*
X291596Y-335035D01*
X286396Y-330702D01*
X285530Y-329257D01*
X285530Y-327813D01*
X286396Y-326368D01*
X288130Y-325646D01*
X289863Y-325646D01*
X291596Y-326368D01*
X292463Y-327813D01*
G54D15*
X412435Y-343165D02*
X408102Y-331609D01*
X403768Y-343165D01*
G54D15*
X410702Y-338831D02*
X405502Y-338831D01*
G54D15*
X400590Y-333776D02*
X399723Y-332331D01*
X397990Y-331609D01*
X396257Y-331609D01*
X394523Y-332331D01*
X393657Y-333776D01*
X393657Y-335220D01*
X394523Y-336665D01*
X396257Y-337387D01*
X394523Y-338109D01*
X393657Y-339554D01*
X393657Y-340998D01*
X394523Y-342442D01*
X396257Y-343165D01*
X397990Y-343165D01*
X399723Y-342442D01*
X400590Y-340998D01*
G54D15*
X292484Y-304589D02*
X291617Y-303145D01*
X289884Y-302422D01*
X288150Y-302422D01*
X286417Y-303145D01*
X285550Y-304589D01*
X285550Y-306034D01*
X286417Y-307478D01*
X288150Y-308200D01*
X286417Y-308922D01*
X285550Y-310367D01*
X285550Y-311811D01*
X286417Y-313256D01*
X288150Y-313978D01*
X289884Y-313978D01*
X291617Y-313256D01*
X292484Y-311811D01*
G54D15*
X410525Y-316012D02*
X406191Y-304457D01*
X401858Y-316012D01*
G54D15*
X408791Y-311679D02*
X403591Y-311679D01*
G54D15*
X391746Y-316012D02*
X398680Y-316012D01*
X398680Y-315290D01*
X397813Y-313846D01*
X392613Y-309512D01*
X391746Y-308068D01*
X391746Y-306624D01*
X392613Y-305179D01*
X394346Y-304457D01*
X396080Y-304457D01*
X397813Y-305179D01*
X398680Y-306624D01*
G54D15*
X287802Y-288246D02*
X287802Y-276691D01*
X293002Y-283913D01*
X293002Y-285358D01*
X286069Y-285358D01*
G54D15*
X409636Y-291340D02*
X405302Y-279785D01*
X400969Y-291340D01*
G54D15*
X407902Y-287007D02*
X402702Y-287007D01*
G54D15*
X397791Y-284118D02*
X393457Y-279785D01*
X393457Y-291340D01*
G54D15*
X285164Y-251157D02*
X292097Y-251157D01*
X292097Y-256213D01*
X291230Y-256213D01*
X289497Y-255490D01*
X287764Y-255490D01*
X286030Y-256213D01*
X285164Y-257657D01*
X285164Y-260546D01*
X286030Y-261990D01*
X287764Y-262713D01*
X289497Y-262713D01*
X291230Y-261990D01*
X292097Y-260546D01*
G54D15*
X410343Y-265759D02*
X406010Y-254203D01*
X401677Y-265759D01*
G54D15*
X408610Y-261425D02*
X403410Y-261425D01*
G54D15*
X391565Y-256370D02*
X391565Y-263592D01*
X392432Y-265036D01*
X394165Y-265759D01*
X395898Y-265759D01*
X397632Y-265036D01*
X398498Y-263592D01*
X398498Y-256370D01*
X397632Y-254925D01*
X395898Y-254203D01*
X394165Y-254203D01*
X392432Y-254925D01*
X391565Y-256370D01*
G54D12*
X154934Y-292697D02*
X154934Y-299363D01*
X155734Y-300697D01*
X157334Y-301363D01*
X158934Y-301363D01*
X160534Y-300697D01*
X161334Y-299363D01*
X161334Y-292697D01*
X160534Y-291363D01*
X158934Y-290697D01*
X157334Y-290697D01*
X155734Y-291363D01*
X154934Y-292697D01*
G54D12*
X152001Y-301363D02*
X152001Y-290697D01*
G54D12*
X152001Y-297097D02*
X151201Y-295763D01*
X149601Y-295363D01*
X148001Y-295763D01*
X147201Y-297097D01*
X147201Y-301363D01*
G54D12*
X144268Y-301363D02*
X144268Y-295363D01*
G54D12*
X144268Y-296697D02*
X142668Y-295363D01*
X141068Y-295363D01*
G54D12*
X138135Y-296030D02*
X136535Y-295363D01*
X134615Y-295363D01*
X133335Y-296697D01*
X133335Y-301363D01*
G54D12*
X133335Y-299363D02*
X134135Y-298030D01*
X135735Y-297763D01*
X137335Y-298030D01*
X138135Y-299363D01*
X137815Y-300697D01*
X136535Y-301363D01*
X135735Y-301363D01*
X135415Y-301363D01*
X134135Y-300697D01*
X133335Y-299363D01*
G54D12*
X130402Y-301363D02*
X130402Y-295363D01*
G54D12*
X130402Y-296697D02*
X129602Y-295763D01*
X128002Y-295363D01*
X126402Y-295763D01*
X125602Y-296697D01*
X125602Y-301363D01*
G54D12*
X122669Y-296030D02*
X121069Y-295363D01*
X119149Y-295363D01*
X117869Y-296697D01*
X117869Y-301363D01*
G54D12*
X117869Y-299363D02*
X118669Y-298030D01*
X120269Y-297763D01*
X121869Y-298030D01*
X122669Y-299363D01*
X122349Y-300697D01*
X121069Y-301363D01*
X120269Y-301363D01*
X119949Y-301363D01*
X118669Y-300697D01*
X117869Y-299363D01*
G54D12*
X165041Y-268773D02*
X165041Y-258107D01*
G54D12*
X168241Y-258107D02*
X161841Y-258107D01*
G54D12*
X158908Y-268773D02*
X158908Y-262773D01*
G54D12*
X158908Y-264107D02*
X157308Y-262773D01*
X155708Y-262773D01*
G54D12*
X147975Y-268107D02*
X149255Y-268773D01*
X150855Y-268773D01*
X152455Y-268107D01*
X152775Y-266773D01*
X152775Y-264507D01*
X151975Y-263173D01*
X150375Y-262773D01*
X148775Y-263173D01*
X147975Y-264107D01*
X147975Y-265440D01*
X152775Y-265440D01*
G54D12*
X145042Y-262773D02*
X141842Y-268773D01*
X138642Y-262773D01*
G54D12*
X130909Y-267173D02*
X130909Y-264507D01*
X131709Y-263173D01*
X133309Y-262773D01*
X134909Y-263173D01*
X135709Y-264507D01*
X135709Y-267173D01*
X134909Y-268507D01*
X133309Y-268773D01*
X131709Y-268507D01*
X130909Y-267173D01*
G54D12*
X127976Y-270773D02*
X126376Y-271440D01*
X125256Y-271440D01*
X123656Y-270773D01*
X123176Y-269440D01*
X123176Y-262773D01*
G54D12*
X123176Y-264507D02*
X123976Y-263173D01*
X125576Y-262773D01*
X127176Y-263173D01*
X127976Y-264507D01*
X127976Y-267173D01*
X127176Y-268507D01*
X125576Y-268773D01*
X123976Y-268507D01*
X123176Y-267173D01*
G54D12*
X120243Y-263440D02*
X118643Y-262773D01*
X116723Y-262773D01*
X115443Y-264107D01*
X115443Y-268773D01*
G54D12*
X115443Y-266773D02*
X116243Y-265440D01*
X117843Y-265173D01*
X119443Y-265440D01*
X120243Y-266773D01*
X119923Y-268107D01*
X118643Y-268773D01*
X117843Y-268773D01*
X117523Y-268773D01*
X116243Y-268107D01*
X115443Y-266773D01*
G54D12*
X173426Y-237782D02*
X172626Y-239116D01*
X171026Y-239782D01*
X169426Y-239782D01*
X167826Y-239116D01*
X167026Y-237782D01*
X167026Y-236449D01*
X167826Y-235116D01*
X169426Y-234449D01*
X171026Y-234449D01*
X172626Y-233782D01*
X173426Y-232449D01*
X173426Y-231116D01*
X172626Y-229782D01*
X171026Y-229116D01*
X169426Y-229116D01*
X167826Y-229782D01*
X167026Y-231116D01*
G54D12*
X159294Y-238182D02*
X159294Y-235516D01*
X160094Y-234182D01*
X161694Y-233782D01*
X163294Y-234182D01*
X164094Y-235516D01*
X164094Y-238182D01*
X163294Y-239516D01*
X161694Y-239782D01*
X160094Y-239516D01*
X159294Y-238182D01*
G54D12*
X156360Y-239116D02*
X154760Y-239782D01*
X153160Y-239782D01*
X151560Y-239116D01*
X151560Y-237782D01*
X152360Y-237116D01*
X155560Y-236449D01*
X156360Y-235782D01*
X156360Y-234449D01*
X154760Y-233782D01*
X153160Y-233782D01*
X151560Y-234449D01*
G54D12*
X147028Y-229116D02*
X147028Y-239116D01*
X146228Y-239782D01*
X145428Y-239516D01*
G54D12*
X148628Y-233782D02*
X145428Y-233782D01*
G54D12*
X142494Y-239782D02*
X136094Y-239782D01*
G54D12*
X139294Y-239782D02*
X139294Y-229116D01*
G54D12*
X142494Y-229116D02*
X136094Y-229116D01*
G54D12*
X129962Y-234449D02*
X126762Y-234449D01*
X126762Y-237782D01*
X127562Y-239116D01*
X129162Y-239782D01*
X130762Y-239782D01*
X132362Y-239116D01*
X133162Y-237782D01*
X133162Y-231116D01*
X132362Y-229782D01*
X130762Y-229116D01*
X129162Y-229116D01*
X127562Y-229782D01*
X126762Y-231116D01*
G54D12*
X123828Y-239782D02*
X123828Y-229116D01*
X117428Y-239782D01*
X117428Y-229116D01*
G54D13*
X46290Y-240944D02*
X51423Y-240944D01*
X51423Y-231166D01*
X46290Y-231166D01*
G54D13*
X51423Y-236055D02*
X46290Y-236055D01*
G54D13*
X43601Y-240944D02*
X43601Y-235444D01*
G54D13*
X43601Y-236666D02*
X42868Y-235811D01*
X41401Y-235444D01*
X39934Y-235811D01*
X39201Y-236666D01*
X39201Y-240944D01*
G54D13*
X36512Y-242777D02*
X35045Y-243388D01*
X34019Y-243388D01*
X32552Y-242777D01*
X32112Y-241555D01*
X32112Y-235444D01*
G54D13*
X32112Y-237033D02*
X32845Y-235811D01*
X34312Y-235444D01*
X35779Y-235811D01*
X36512Y-237033D01*
X36512Y-239477D01*
X35779Y-240700D01*
X34312Y-240944D01*
X32845Y-240700D01*
X32112Y-239477D01*
G54D13*
X29423Y-239111D02*
X28690Y-240333D01*
X27223Y-240944D01*
X25756Y-240944D01*
X24290Y-240333D01*
X23556Y-239111D01*
X23556Y-237888D01*
X24290Y-236666D01*
X25756Y-236055D01*
X27223Y-236055D01*
X28690Y-235444D01*
X29423Y-234222D01*
X29423Y-233000D01*
X28690Y-231777D01*
X27223Y-231166D01*
X25756Y-231166D01*
X24290Y-231777D01*
X23556Y-233000D01*
G54D13*
X16467Y-239477D02*
X16467Y-237033D01*
X17200Y-235811D01*
X18667Y-235444D01*
X20134Y-235811D01*
X20867Y-237033D01*
X20867Y-239477D01*
X20134Y-240700D01*
X18667Y-240944D01*
X17200Y-240700D01*
X16467Y-239477D01*
G54D13*
X13778Y-240333D02*
X12311Y-240944D01*
X10845Y-240944D01*
X9378Y-240333D01*
X9378Y-239111D01*
X10111Y-238500D01*
X13045Y-237888D01*
X13778Y-237277D01*
X13778Y-236055D01*
X12311Y-235444D01*
X10845Y-235444D01*
X9378Y-236055D01*
G54D13*
X5222Y-231166D02*
X5222Y-240333D01*
X4489Y-240944D01*
X3756Y-240700D01*
G54D13*
X6689Y-235444D02*
X3756Y-235444D01*
G54D17*
X679167Y-443190D02*
X674167Y-438190D01*
X674167Y-451524D01*
G54D17*
X662467Y-451524D02*
X670467Y-451524D01*
X670467Y-450690D01*
X669467Y-449024D01*
X663467Y-444024D01*
X662467Y-442357D01*
X662467Y-440690D01*
X663467Y-439024D01*
X665467Y-438190D01*
X667467Y-438190D01*
X669467Y-439024D01*
X670467Y-440690D01*
G54D17*
X658767Y-438190D02*
X653767Y-451524D01*
X648767Y-438190D01*
G54D17*
X511854Y-417223D02*
X506854Y-412223D01*
X506854Y-425556D01*
G54D17*
X508512Y-346610D02*
X508512Y-333276D01*
X514512Y-341610D01*
X514512Y-343276D01*
X506512Y-343276D01*
G54D17*
X626856Y-333827D02*
X634856Y-333827D01*
X634856Y-339661D01*
X633856Y-339661D01*
X631856Y-338827D01*
X629856Y-338827D01*
X627856Y-339661D01*
X626856Y-341327D01*
X626856Y-344661D01*
X627856Y-346327D01*
X629856Y-347161D01*
X631856Y-347161D01*
X633856Y-346327D01*
X634856Y-344661D01*
G54D17*
X631807Y-416921D02*
X629807Y-416921D01*
X627807Y-416088D01*
X626807Y-414421D01*
X626807Y-412754D01*
X627807Y-411088D01*
X629807Y-410254D01*
X631807Y-410254D01*
X633807Y-411088D01*
X634807Y-412754D01*
X634807Y-414421D01*
X633807Y-416088D01*
X631807Y-416921D01*
X633807Y-417754D01*
X634807Y-419421D01*
X634807Y-421088D01*
X633807Y-422754D01*
X631807Y-423588D01*
X629807Y-423588D01*
X627807Y-422754D01*
X626807Y-421088D01*
X626807Y-419421D01*
X627807Y-417754D01*
X629807Y-416921D01*
G54D13*
X46934Y-139037D02*
X52067Y-139037D01*
X52067Y-129259D01*
X46934Y-129259D01*
G54D13*
X52067Y-134148D02*
X46934Y-134148D01*
G54D13*
X44245Y-139037D02*
X44245Y-133537D01*
G54D13*
X44245Y-134759D02*
X43512Y-133904D01*
X42045Y-133537D01*
X40579Y-133904D01*
X39845Y-134759D01*
X39845Y-139037D01*
G54D13*
X37156Y-140870D02*
X35690Y-141481D01*
X34663Y-141481D01*
X33196Y-140870D01*
X32756Y-139648D01*
X32756Y-133537D01*
G54D13*
X32756Y-135126D02*
X33490Y-133904D01*
X34956Y-133537D01*
X36423Y-133904D01*
X37156Y-135126D01*
X37156Y-137570D01*
X36423Y-138793D01*
X34956Y-139037D01*
X33490Y-138793D01*
X32756Y-137570D01*
G54D13*
X30067Y-139037D02*
X30067Y-133537D01*
G54D13*
X30067Y-131704D02*
X30067Y-131704D01*
G54D13*
X27378Y-139037D02*
X27378Y-133537D01*
G54D13*
X27378Y-134759D02*
X26645Y-133904D01*
X25178Y-133537D01*
X23712Y-133904D01*
X22978Y-134759D01*
X22978Y-139037D01*
G54D13*
X15889Y-138426D02*
X17063Y-139037D01*
X18529Y-139037D01*
X19996Y-138426D01*
X20289Y-137204D01*
X20289Y-135126D01*
X19556Y-133904D01*
X18089Y-133537D01*
X16623Y-133904D01*
X15889Y-134759D01*
X15889Y-135981D01*
X20289Y-135981D01*
G54D13*
X49484Y-319435D02*
X49484Y-329213D01*
X45817Y-323102D01*
X42150Y-329213D01*
X42150Y-319435D01*
G54D13*
X39462Y-324935D02*
X33595Y-324935D01*
G54D13*
X30906Y-329213D02*
X30906Y-319435D01*
X27239Y-319435D01*
X25772Y-320046D01*
X25039Y-321268D01*
X25039Y-322490D01*
X25772Y-323713D01*
X27239Y-324324D01*
X25772Y-324935D01*
X25039Y-326157D01*
X25039Y-327379D01*
X25772Y-328602D01*
X27239Y-329213D01*
X30906Y-329213D01*
G54D13*
X30906Y-324324D02*
X27239Y-324324D01*
G54D13*
X17950Y-323713D02*
X17950Y-329213D01*
G54D13*
X17950Y-327990D02*
X18683Y-328968D01*
X20150Y-329213D01*
X21616Y-328968D01*
X22350Y-327990D01*
X22350Y-323713D01*
G54D13*
X15260Y-328602D02*
X13794Y-329213D01*
X12327Y-329213D01*
X10860Y-328602D01*
X10860Y-327379D01*
X11594Y-326768D01*
X14527Y-326157D01*
X15260Y-325546D01*
X15260Y-324324D01*
X13794Y-323713D01*
X12327Y-323713D01*
X10860Y-324324D01*
G54D13*
X181745Y-412143D02*
X178078Y-421920D01*
X174411Y-412143D01*
G54D13*
X171723Y-416420D02*
X168789Y-421920D01*
X165856Y-416420D01*
G54D13*
X168789Y-421920D02*
X169523Y-423754D01*
X170256Y-424365D01*
X170989Y-424365D01*
G54D13*
X163167Y-421920D02*
X163167Y-412143D01*
G54D13*
X163167Y-418009D02*
X162433Y-416787D01*
X160967Y-416420D01*
X159500Y-416787D01*
X158767Y-418009D01*
X158767Y-421920D01*
G54D13*
X156078Y-412143D02*
X156078Y-421920D01*
X152411Y-415809D01*
X148744Y-421920D01*
X148744Y-412143D01*
G54D13*
X146056Y-417643D02*
X140189Y-417643D01*
G54D13*
X143122Y-415198D02*
X143122Y-420087D01*
G54D13*
X137500Y-415809D02*
X133833Y-412143D01*
X133833Y-421920D01*
G54D13*
X125277Y-421920D02*
X131144Y-421920D01*
X131144Y-421309D01*
X130410Y-420087D01*
X126010Y-416420D01*
X125277Y-415198D01*
X125277Y-413976D01*
X126010Y-412754D01*
X127477Y-412143D01*
X128944Y-412143D01*
X130410Y-412754D01*
X131144Y-413976D01*
G54D13*
X122588Y-412143D02*
X118921Y-421920D01*
X115254Y-412143D01*
G54D11*
X236734Y-403505D02*
X236734Y-403505D01*
G54D18*
X150058Y-123716D02*
X150058Y-173424D01*
X254508Y-173424D01*
X254508Y-122960D01*
X150185Y-122960D01*
G54D12*
X222161Y-155744D02*
X222161Y-145077D01*
X218161Y-145077D01*
X216561Y-145744D01*
X215761Y-147077D01*
X215761Y-148411D01*
X216561Y-149744D01*
X218161Y-150411D01*
X222161Y-150411D01*
G54D12*
X206428Y-153744D02*
X207228Y-155077D01*
X208828Y-155744D01*
X210428Y-155744D01*
X212028Y-155077D01*
X212828Y-153744D01*
X212828Y-147077D01*
X212028Y-145744D01*
X210428Y-145077D01*
X208828Y-145077D01*
X207228Y-145744D01*
X206428Y-147077D01*
G54D12*
X199495Y-150411D02*
X201095Y-150411D01*
X202695Y-149744D01*
X203495Y-148411D01*
X203495Y-147077D01*
X202695Y-145744D01*
X201095Y-145077D01*
X199495Y-145077D01*
X197895Y-145744D01*
X197095Y-147077D01*
X197095Y-148411D01*
X197895Y-149744D01*
X199495Y-150411D01*
X197895Y-151077D01*
X197095Y-152411D01*
X197095Y-153744D01*
X197895Y-155077D01*
X199495Y-155744D01*
X201095Y-155744D01*
X202695Y-155077D01*
X203495Y-153744D01*
X203495Y-152411D01*
X202695Y-151077D01*
X201095Y-150411D01*
G54D12*
X194162Y-149077D02*
X190162Y-145077D01*
X190162Y-155744D01*
G54D12*
X187229Y-145077D02*
X180829Y-145077D01*
X181629Y-146411D01*
X183229Y-148411D01*
X184829Y-151077D01*
X185629Y-153077D01*
X185629Y-155744D01*
G54D13*
X240018Y-385508D02*
X240018Y-375730D01*
X236352Y-375730D01*
X234885Y-376341D01*
X234152Y-377564D01*
X234152Y-378786D01*
X234885Y-380008D01*
X236352Y-380619D01*
X240018Y-380619D01*
G54D13*
X225596Y-383675D02*
X226329Y-384897D01*
X227796Y-385508D01*
X229262Y-385508D01*
X230729Y-384897D01*
X231462Y-383675D01*
X231462Y-377564D01*
X230729Y-376341D01*
X229262Y-375730D01*
X227796Y-375730D01*
X226329Y-376341D01*
X225596Y-377564D01*
G54D13*
X219240Y-380619D02*
X220706Y-380619D01*
X222173Y-380008D01*
X222906Y-378786D01*
X222906Y-377564D01*
X222173Y-376341D01*
X220706Y-375730D01*
X219240Y-375730D01*
X217773Y-376341D01*
X217040Y-377564D01*
X217040Y-378786D01*
X217773Y-380008D01*
X219240Y-380619D01*
X217773Y-381230D01*
X217040Y-382452D01*
X217040Y-383675D01*
X217773Y-384897D01*
X219240Y-385508D01*
X220706Y-385508D01*
X222173Y-384897D01*
X222906Y-383675D01*
X222906Y-382452D01*
X222173Y-381230D01*
X220706Y-380619D01*
G54D13*
X214350Y-379397D02*
X210684Y-375730D01*
X210684Y-385508D01*
G54D13*
X207994Y-375730D02*
X202128Y-375730D01*
X202861Y-376952D01*
X204328Y-378786D01*
X205794Y-381230D01*
X206528Y-383064D01*
X206528Y-385508D01*
G54D18*
X517636Y-323881D02*
X517636Y-431164D01*
X622736Y-431164D01*
X622736Y-323564D01*
X517839Y-323564D01*
G54D17*
X577341Y-405292D02*
X564008Y-405292D01*
X564008Y-398292D01*
G54D17*
X564008Y-394592D02*
X577341Y-394592D01*
X569008Y-389592D01*
X577341Y-384592D01*
X564008Y-384592D01*
G54D17*
X574841Y-380892D02*
X576508Y-379892D01*
X577341Y-377892D01*
X577341Y-375892D01*
X576508Y-373892D01*
X574841Y-372892D01*
X573174Y-372892D01*
X571508Y-373892D01*
X570674Y-375892D01*
X569841Y-373892D01*
X568174Y-372892D01*
X566508Y-372892D01*
X564841Y-373892D01*
X564008Y-375892D01*
X564008Y-377892D01*
X564841Y-379892D01*
X566508Y-380892D01*
G54D17*
X566508Y-369192D02*
X564841Y-368192D01*
X564008Y-366192D01*
X564008Y-364192D01*
X564841Y-362192D01*
X566508Y-361192D01*
X570674Y-361192D01*
X571508Y-361192D01*
X569841Y-364192D01*
X569841Y-366192D01*
X570674Y-368192D01*
X572341Y-369192D01*
X574841Y-369192D01*
X576508Y-368192D01*
X577341Y-366192D01*
X577341Y-364192D01*
X576508Y-362192D01*
X574841Y-361192D01*
X570674Y-361192D01*
G54D17*
X574841Y-357492D02*
X576508Y-356492D01*
X577341Y-354492D01*
X577341Y-352492D01*
X576508Y-350492D01*
X574841Y-349492D01*
X573175Y-349492D01*
X571508Y-350492D01*
X570674Y-352492D01*
X569841Y-350492D01*
X568174Y-349492D01*
X566508Y-349492D01*
X564841Y-350492D01*
X564008Y-352492D01*
X564008Y-354492D01*
X564841Y-356492D01*
X566508Y-357492D01*
G54D18*
X538499Y-37708D02*
X538499Y-215874D01*
X789218Y-215874D01*
X789218Y-37724D01*
X538514Y-37724D01*
G54D19*
X700441Y-58314D02*
X699174Y-60425D01*
X696641Y-61481D01*
X694108Y-61481D01*
X691574Y-60425D01*
X690308Y-58314D01*
X690308Y-56203D01*
X691574Y-54092D01*
X694108Y-53036D01*
X696641Y-53036D01*
X699174Y-51981D01*
X700441Y-49870D01*
X700441Y-47758D01*
X699174Y-45647D01*
X696641Y-44592D01*
X694108Y-44592D01*
X691574Y-45647D01*
X690308Y-47758D01*
G54D19*
X685741Y-61481D02*
X685741Y-44592D01*
G54D19*
X681141Y-61481D02*
X681141Y-44592D01*
X674808Y-55147D01*
X668474Y-44592D01*
X668474Y-61481D01*
G54D19*
X657508Y-53036D02*
X660041Y-53036D01*
X662574Y-51981D01*
X663841Y-49870D01*
X663841Y-47758D01*
X662574Y-45647D01*
X660041Y-44592D01*
X657508Y-44592D01*
X654974Y-45647D01*
X653708Y-47758D01*
X653708Y-49870D01*
X654974Y-51981D01*
X657508Y-53036D01*
X654974Y-54092D01*
X653708Y-56203D01*
X653708Y-58314D01*
X654974Y-60425D01*
X657508Y-61481D01*
X660041Y-61481D01*
X662574Y-60425D01*
X663841Y-58314D01*
X663841Y-56203D01*
X662574Y-54092D01*
X660041Y-53036D01*
G54D19*
X639008Y-47758D02*
X639008Y-58314D01*
X640274Y-60425D01*
X642808Y-61481D01*
X645341Y-61481D01*
X647874Y-60425D01*
X649141Y-58314D01*
X649141Y-47758D01*
X647874Y-45647D01*
X645341Y-44592D01*
X642808Y-44592D01*
X640274Y-45647D01*
X639008Y-47758D01*
G54D19*
X624308Y-47758D02*
X624308Y-58314D01*
X625574Y-60425D01*
X628108Y-61481D01*
X630641Y-61481D01*
X633174Y-60425D01*
X634441Y-58314D01*
X634441Y-47758D01*
X633174Y-45647D01*
X630641Y-44592D01*
X628108Y-44592D01*
X625574Y-45647D01*
X624308Y-47758D01*
G54D19*
X619741Y-44592D02*
X619741Y-61481D01*
X610874Y-61481D01*
G54D17*
X940367Y-151836D02*
X940367Y-138503D01*
X946367Y-146836D01*
X946367Y-148503D01*
X938367Y-148503D01*
G54D17*
X934667Y-138503D02*
X926667Y-138503D01*
X927667Y-140169D01*
X929667Y-142669D01*
X931667Y-146003D01*
X932667Y-148503D01*
X932667Y-151836D01*
G54D17*
X914967Y-141003D02*
X914967Y-149336D01*
X915967Y-151003D01*
X917967Y-151836D01*
X919967Y-151836D01*
X921967Y-151003D01*
X922967Y-149336D01*
X922967Y-141003D01*
X921967Y-139336D01*
X919967Y-138503D01*
X917967Y-138503D01*
X915967Y-139336D01*
X914967Y-141003D01*
G54D17*
X905267Y-144336D02*
X905267Y-151836D01*
G54D17*
X905267Y-150169D02*
X906267Y-151503D01*
X908267Y-151836D01*
X910267Y-151503D01*
X911267Y-150169D01*
X911267Y-144336D01*
G54D17*
X901567Y-151836D02*
X901567Y-138503D01*
X894567Y-138503D01*
G54D17*
X901567Y-145169D02*
X894567Y-145169D01*
G54D18*
X643276Y-267164D02*
X643276Y-478926D01*
X824076Y-478926D01*
X824076Y-267193D01*
X643108Y-267193D01*
G54D14*
X806010Y-350827D02*
X806010Y-337493D01*
X801010Y-337493D01*
X799010Y-338327D01*
X798010Y-339993D01*
X798010Y-348327D01*
X799010Y-349993D01*
X801010Y-350827D01*
X806010Y-350827D01*
G54D14*
X786343Y-348327D02*
X787343Y-349993D01*
X789343Y-350827D01*
X791343Y-350827D01*
X793343Y-349993D01*
X794343Y-348327D01*
X794343Y-339993D01*
X793343Y-338327D01*
X791343Y-337493D01*
X789343Y-337493D01*
X787343Y-338327D01*
X786343Y-339993D01*
G54D14*
X782676Y-344993D02*
X774676Y-344993D01*
G54D14*
X771009Y-350827D02*
X771009Y-337493D01*
X766009Y-337493D01*
X764009Y-338327D01*
X763009Y-339993D01*
X763009Y-348327D01*
X764009Y-349993D01*
X766009Y-350827D01*
X771009Y-350827D01*
G54D14*
X751342Y-348327D02*
X752342Y-349993D01*
X754342Y-350827D01*
X756342Y-350827D01*
X758342Y-349993D01*
X759342Y-348327D01*
X759342Y-339993D01*
X758342Y-338327D01*
X756342Y-337493D01*
X754342Y-337493D01*
X752342Y-338327D01*
X751342Y-339993D01*
G54D14*
X743808Y-350827D02*
X743808Y-337493D01*
X738808Y-345827D01*
X733808Y-337493D01*
X733808Y-350827D01*
G54D14*
X730141Y-350827D02*
X730141Y-337493D01*
X725141Y-337493D01*
X723141Y-338327D01*
X722141Y-339993D01*
X722141Y-341660D01*
X723141Y-343327D01*
X725141Y-344160D01*
X730141Y-344160D01*
G54D14*
X718474Y-342493D02*
X713474Y-337493D01*
X713474Y-350827D01*
G54D14*
X701807Y-337493D02*
X709807Y-337493D01*
X709807Y-343327D01*
X708807Y-343327D01*
X706807Y-342493D01*
X704807Y-342493D01*
X702807Y-343327D01*
X701807Y-344993D01*
X701807Y-348327D01*
X702807Y-349993D01*
X704807Y-350827D01*
X706807Y-350827D01*
X708807Y-349993D01*
X709807Y-348327D01*
G54D14*
X693140Y-344160D02*
X695140Y-344160D01*
X697140Y-343327D01*
X698140Y-341660D01*
X698140Y-339993D01*
X697140Y-338327D01*
X695140Y-337493D01*
X693140Y-337493D01*
X691140Y-338327D01*
X690140Y-339993D01*
X690140Y-341660D01*
X691140Y-343327D01*
X693140Y-344160D01*
X691140Y-344993D01*
X690140Y-346660D01*
X690140Y-348327D01*
X691140Y-349993D01*
X693140Y-350827D01*
X695140Y-350827D01*
X697140Y-349993D01*
X698140Y-348327D01*
X698140Y-346660D01*
X697140Y-344993D01*
X695140Y-344160D01*
G54D14*
X680473Y-350827D02*
X680473Y-337493D01*
X686473Y-345827D01*
X686473Y-347493D01*
X678473Y-347493D01*
G54D14*
X667806Y-350827D02*
X674806Y-350827D01*
X674806Y-337493D01*
X667806Y-337493D01*
G54D14*
X674806Y-344160D02*
X667806Y-344160D01*
G54D14*
X664139Y-350827D02*
X664139Y-337493D01*
X656139Y-350827D01*
X656139Y-337493D01*
G54D18*
X255221Y-145549D02*
X256121Y-451924D01*
X318439Y-451924D01*
G54D18*
X381266Y-278228D02*
X375266Y-262228D01*
X369266Y-278228D01*
G54D18*
X378866Y-272228D02*
X371666Y-272228D01*
G54D18*
X364866Y-278228D02*
X364866Y-269228D01*
G54D18*
X364866Y-271228D02*
X362466Y-269228D01*
X360066Y-269228D01*
G54D18*
X348466Y-278228D02*
X348466Y-262228D01*
G54D18*
X348466Y-271828D02*
X349666Y-269828D01*
X352066Y-269228D01*
X354466Y-269828D01*
X355666Y-271828D01*
X355666Y-275828D01*
X354466Y-277828D01*
X352066Y-278228D01*
X349666Y-277828D01*
X348466Y-275828D01*
G54D18*
X336866Y-269228D02*
X336866Y-278228D01*
G54D18*
X336866Y-276228D02*
X338066Y-277828D01*
X340466Y-278228D01*
X342866Y-277828D01*
X344066Y-276228D01*
X344066Y-269228D01*
G54D18*
X332466Y-278228D02*
X332466Y-269228D01*
G54D18*
X332466Y-266228D02*
X332466Y-266228D01*
G54D18*
X328066Y-278228D02*
X328066Y-269228D01*
G54D18*
X328066Y-271228D02*
X326866Y-269828D01*
X324466Y-269228D01*
X322066Y-269828D01*
X320866Y-271228D01*
X320866Y-278228D01*
G54D18*
X309266Y-275828D02*
X309266Y-271828D01*
X310466Y-269828D01*
X312866Y-269228D01*
X315266Y-269828D01*
X316466Y-271828D01*
X316466Y-275828D01*
X315266Y-277828D01*
X312866Y-278228D01*
X310466Y-277828D01*
X309266Y-275828D01*
G54D18*
X379804Y-300893D02*
X379804Y-284893D01*
X373804Y-284893D01*
X371404Y-285893D01*
X370204Y-287893D01*
X370204Y-289893D01*
X371404Y-291893D01*
X373804Y-292893D01*
X379804Y-292893D01*
G54D18*
X365804Y-300893D02*
X365804Y-291893D01*
G54D18*
X365804Y-293893D02*
X363404Y-291893D01*
X361004Y-291893D01*
G54D18*
X349404Y-298493D02*
X349404Y-294493D01*
X350604Y-292493D01*
X353004Y-291893D01*
X355404Y-292493D01*
X356604Y-294493D01*
X356604Y-298493D01*
X355404Y-300493D01*
X353004Y-300893D01*
X350604Y-300493D01*
X349404Y-298493D01*
G54D18*
X340404Y-300893D02*
X340404Y-284893D01*
X334404Y-294893D01*
X328404Y-284893D01*
X328404Y-300893D01*
G54D18*
X324004Y-300893D02*
X324004Y-291893D01*
G54D18*
X324004Y-288893D02*
X324004Y-288893D01*
G54D18*
X319604Y-300893D02*
X319604Y-291893D01*
G54D18*
X319604Y-293893D02*
X318404Y-292493D01*
X316004Y-291893D01*
X313604Y-292493D01*
X312404Y-293893D01*
X312404Y-300893D01*
G54D18*
X308004Y-300893D02*
X308004Y-291893D01*
G54D18*
X308004Y-288893D02*
X308004Y-288893D01*
G54D11*
X367734Y-327682D02*
X367734Y-327682D01*
G54D13*
X51771Y-385916D02*
X51771Y-376139D01*
G54D13*
X51771Y-382861D02*
X45904Y-376139D01*
G54D13*
X49571Y-381028D02*
X45904Y-385916D01*
G54D13*
X43215Y-385916D02*
X43215Y-380416D01*
G54D13*
X43215Y-381639D02*
X42481Y-380783D01*
X41015Y-380416D01*
X39548Y-380783D01*
X38815Y-381639D01*
X38815Y-385916D01*
G54D13*
X31726Y-384450D02*
X31726Y-382005D01*
X32459Y-380783D01*
X33926Y-380416D01*
X35392Y-380783D01*
X36126Y-382005D01*
X36126Y-384450D01*
X35392Y-385672D01*
X33926Y-385916D01*
X32459Y-385672D01*
X31726Y-384450D01*
G54D13*
X29037Y-380416D02*
X29037Y-388361D01*
G54D13*
X29037Y-384083D02*
X28303Y-385672D01*
X26837Y-385916D01*
X25370Y-385672D01*
X24637Y-384450D01*
X24637Y-382005D01*
X25370Y-380783D01*
X26837Y-380416D01*
X28303Y-380783D01*
X29037Y-382250D01*
G54D13*
X21948Y-385916D02*
X21948Y-376139D01*
G54D13*
X19748Y-382250D02*
X17548Y-385916D01*
G54D13*
X21948Y-383472D02*
X17548Y-380416D01*
G54D13*
X14859Y-381028D02*
X13392Y-380416D01*
X11632Y-380416D01*
X10459Y-381639D01*
X10459Y-385916D01*
G54D13*
X10459Y-384083D02*
X11192Y-382861D01*
X12659Y-382616D01*
X14125Y-382861D01*
X14859Y-384083D01*
X14565Y-385305D01*
X13392Y-385916D01*
X12659Y-385916D01*
X12365Y-385916D01*
X11192Y-385305D01*
X10459Y-384083D01*
G54D13*
X51344Y-208995D02*
X51344Y-199217D01*
G54D13*
X51344Y-205939D02*
X45478Y-199217D01*
G54D13*
X49144Y-204106D02*
X45478Y-208995D01*
G54D13*
X42788Y-208995D02*
X42788Y-203495D01*
G54D13*
X42788Y-204717D02*
X42055Y-203861D01*
X40588Y-203495D01*
X39122Y-203861D01*
X38388Y-204717D01*
X38388Y-208995D01*
G54D13*
X31299Y-207528D02*
X31299Y-205084D01*
X32033Y-203861D01*
X33499Y-203495D01*
X34966Y-203861D01*
X35699Y-205084D01*
X35699Y-207528D01*
X34966Y-208750D01*
X33499Y-208995D01*
X32033Y-208750D01*
X31299Y-207528D01*
G54D13*
X28610Y-203495D02*
X28610Y-211439D01*
G54D13*
X28610Y-207161D02*
X27877Y-208750D01*
X26410Y-208995D01*
X24944Y-208750D01*
X24210Y-207528D01*
X24210Y-205084D01*
X24944Y-203861D01*
X26410Y-203495D01*
X27877Y-203861D01*
X28610Y-205328D01*
G54D13*
X21521Y-208995D02*
X21521Y-199217D01*
G54D13*
X19321Y-205328D02*
X17121Y-208995D01*
G54D13*
X21521Y-206550D02*
X17121Y-203495D01*
G54D13*
X14432Y-204106D02*
X12966Y-203495D01*
X11206Y-203495D01*
X10032Y-204717D01*
X10032Y-208995D01*
G54D13*
X10032Y-207161D02*
X10766Y-205939D01*
X12232Y-205695D01*
X13699Y-205939D01*
X14432Y-207161D01*
X14139Y-208384D01*
X12966Y-208995D01*
X12232Y-208995D01*
X11939Y-208995D01*
X10766Y-208384D01*
X10032Y-207161D01*
G54D13*
X361985Y-347628D02*
X361985Y-337851D01*
X358318Y-337851D01*
X356852Y-338462D01*
X356118Y-339684D01*
X356118Y-340906D01*
X356852Y-342128D01*
X358318Y-342740D01*
X361985Y-342740D01*
G54D13*
X347562Y-345795D02*
X348296Y-347017D01*
X349762Y-347628D01*
X351229Y-347628D01*
X352696Y-347017D01*
X353429Y-345795D01*
X353429Y-339684D01*
X352696Y-338462D01*
X351229Y-337851D01*
X349762Y-337851D01*
X348296Y-338462D01*
X347562Y-339684D01*
G54D13*
X341206Y-342740D02*
X342673Y-342740D01*
X344140Y-342128D01*
X344873Y-340906D01*
X344873Y-339684D01*
X344140Y-338462D01*
X342673Y-337851D01*
X341206Y-337851D01*
X339740Y-338462D01*
X339006Y-339684D01*
X339006Y-340906D01*
X339740Y-342128D01*
X341206Y-342740D01*
X339740Y-343351D01*
X339006Y-344573D01*
X339006Y-345795D01*
X339740Y-347017D01*
X341206Y-347628D01*
X342673Y-347628D01*
X344140Y-347017D01*
X344873Y-345795D01*
X344873Y-344573D01*
X344140Y-343351D01*
X342673Y-342740D01*
G54D13*
X336317Y-341517D02*
X332650Y-337851D01*
X332650Y-347628D01*
G54D13*
X329961Y-337851D02*
X324094Y-337851D01*
X324828Y-339073D01*
X326294Y-340906D01*
X327761Y-343351D01*
X328494Y-345184D01*
X328494Y-347628D01*
G54D13*
X51375Y-260943D02*
X51375Y-251166D01*
G54D13*
X51375Y-257888D02*
X45509Y-251166D01*
G54D13*
X49175Y-256055D02*
X45509Y-260943D01*
G54D13*
X42819Y-260943D02*
X42819Y-255443D01*
G54D13*
X42819Y-256666D02*
X42086Y-255810D01*
X40619Y-255443D01*
X39153Y-255810D01*
X38419Y-256666D01*
X38419Y-260943D01*
G54D13*
X31330Y-259477D02*
X31330Y-257032D01*
X32064Y-255810D01*
X33530Y-255443D01*
X34997Y-255810D01*
X35730Y-257032D01*
X35730Y-259477D01*
X34997Y-260699D01*
X33530Y-260943D01*
X32064Y-260699D01*
X31330Y-259477D01*
G54D13*
X28641Y-255443D02*
X28641Y-263388D01*
G54D13*
X28641Y-259110D02*
X27908Y-260699D01*
X26441Y-260943D01*
X24975Y-260699D01*
X24241Y-259477D01*
X24241Y-257032D01*
X24975Y-255810D01*
X26441Y-255443D01*
X27908Y-255810D01*
X28641Y-257277D01*
G54D13*
X21552Y-260943D02*
X21552Y-251166D01*
G54D13*
X19352Y-257277D02*
X17152Y-260943D01*
G54D13*
X21552Y-258499D02*
X17152Y-255443D01*
G54D13*
X14463Y-256055D02*
X12997Y-255443D01*
X11237Y-255443D01*
X10063Y-256666D01*
X10063Y-260943D01*
G54D13*
X10063Y-259110D02*
X10797Y-257888D01*
X12263Y-257643D01*
X13730Y-257888D01*
X14463Y-259110D01*
X14170Y-260332D01*
X12997Y-260943D01*
X12263Y-260943D01*
X11970Y-260943D01*
X10797Y-260332D01*
X10063Y-259110D01*
G54D16*
X659823Y-264495D02*
X663156Y-261162D01*
X654267Y-261162D01*
G54D16*
X654267Y-258718D02*
X663156Y-258718D01*
X654267Y-253384D01*
X663156Y-253384D01*
G54D16*
X654267Y-246941D02*
X663156Y-246941D01*
X657601Y-250941D01*
X656490Y-250941D01*
X656490Y-245608D01*
G54D16*
X661490Y-237830D02*
X655934Y-237830D01*
X654823Y-238497D01*
X654267Y-239830D01*
X654267Y-241164D01*
X654823Y-242497D01*
X655934Y-243164D01*
X661490Y-243164D01*
X662601Y-242497D01*
X663156Y-241164D01*
X663156Y-239830D01*
X662601Y-238497D01*
X661490Y-237830D01*
G54D16*
X661490Y-230054D02*
X655934Y-230054D01*
X654823Y-230720D01*
X654267Y-232054D01*
X654267Y-233387D01*
X654823Y-234720D01*
X655934Y-235387D01*
X661490Y-235387D01*
X662601Y-234720D01*
X663156Y-233387D01*
X663156Y-232054D01*
X662601Y-230720D01*
X661490Y-230054D01*
G54D16*
X663156Y-227610D02*
X663156Y-222276D01*
X662045Y-222943D01*
X660378Y-224276D01*
X658156Y-225610D01*
X656490Y-226276D01*
X654267Y-226276D01*
G54D10*
X823080Y-166458D02*
X823080Y-154014D01*
X818413Y-154014D01*
X816547Y-154791D01*
X815613Y-156347D01*
X815613Y-164125D01*
X816547Y-165680D01*
X818413Y-166458D01*
X823080Y-166458D01*
G54D10*
X808458Y-166458D02*
X808458Y-154014D01*
G54D10*
X812191Y-154014D02*
X804724Y-154014D01*
G54D10*
X797569Y-160236D02*
X794769Y-161791D01*
X793835Y-163347D01*
X793835Y-166458D01*
G54D10*
X801302Y-166458D02*
X801302Y-154014D01*
X796635Y-154014D01*
X794769Y-154791D01*
X793835Y-156347D01*
X793835Y-157902D01*
X794769Y-159458D01*
X796635Y-160236D01*
X801302Y-160236D01*
G54D17*
X937639Y-336764D02*
X937639Y-323430D01*
X943639Y-331764D01*
X943639Y-333430D01*
X935639Y-333430D01*
G54D17*
X931939Y-323430D02*
X923939Y-323430D01*
X924939Y-325097D01*
X926939Y-327597D01*
X928939Y-330930D01*
X929939Y-333430D01*
X929939Y-336764D01*
G54D17*
X912239Y-325930D02*
X912239Y-334264D01*
X913239Y-335930D01*
X915239Y-336764D01*
X917239Y-336764D01*
X919239Y-335930D01*
X920239Y-334264D01*
X920239Y-325930D01*
X919239Y-324264D01*
X917239Y-323430D01*
X915239Y-323430D01*
X913239Y-324264D01*
X912239Y-325930D01*
G54D17*
X902539Y-329264D02*
X902539Y-336764D01*
G54D17*
X902539Y-335097D02*
X903539Y-336430D01*
X905539Y-336764D01*
X907539Y-336430D01*
X908539Y-335097D01*
X908539Y-329264D01*
G54D17*
X898839Y-336764D02*
X898839Y-323430D01*
X891839Y-323430D01*
G54D17*
X898839Y-330097D02*
X891839Y-330097D01*
G54D12*
X307848Y-135432D02*
X304648Y-135432D01*
X304648Y-138766D01*
X305448Y-140099D01*
X307048Y-140766D01*
X308648Y-140766D01*
X310248Y-140099D01*
X311048Y-138766D01*
X311048Y-132099D01*
X310248Y-130766D01*
X308648Y-130099D01*
X307048Y-130099D01*
X305448Y-130766D01*
X304648Y-132099D01*
G54D12*
X301715Y-140766D02*
X301715Y-134766D01*
G54D12*
X301715Y-136099D02*
X300915Y-135166D01*
X299315Y-134766D01*
X297715Y-135166D01*
X296915Y-136099D01*
X296915Y-140766D01*
G54D12*
X289182Y-140766D02*
X289182Y-130099D01*
G54D12*
X289182Y-136499D02*
X289982Y-135166D01*
X291582Y-134766D01*
X293182Y-135166D01*
X293982Y-136499D01*
X293982Y-139166D01*
X293182Y-140499D01*
X291582Y-140766D01*
X289982Y-140499D01*
X289182Y-139166D01*
G54D12*
X334433Y-140101D02*
X330433Y-129434D01*
X326433Y-140101D01*
G54D12*
X332833Y-136101D02*
X328033Y-136101D01*
G54D12*
X318700Y-140101D02*
X318700Y-129434D01*
X323500Y-136101D01*
X323500Y-137434D01*
X317100Y-137434D01*
G54D12*
X358772Y-140156D02*
X354772Y-129489D01*
X350772Y-140156D01*
G54D12*
X357172Y-136156D02*
X352372Y-136156D01*
G54D12*
X341439Y-129489D02*
X347839Y-129489D01*
X347839Y-134156D01*
X347039Y-134156D01*
X345439Y-133489D01*
X343839Y-133489D01*
X342239Y-134156D01*
X341439Y-135489D01*
X341439Y-138156D01*
X342239Y-139489D01*
X343839Y-140156D01*
X345439Y-140156D01*
X347039Y-139489D01*
X347839Y-138156D01*
G54D12*
X383872Y-140625D02*
X379872Y-129958D01*
X375872Y-140625D01*
G54D12*
X382272Y-136625D02*
X377472Y-136625D01*
G54D12*
X366539Y-131958D02*
X367339Y-130625D01*
X368939Y-129958D01*
X370539Y-129958D01*
X372139Y-130625D01*
X372939Y-131958D01*
X372939Y-135292D01*
X372939Y-135958D01*
X370539Y-134625D01*
X368939Y-134625D01*
X367339Y-135292D01*
X366539Y-136625D01*
X366539Y-138625D01*
X367339Y-139958D01*
X368939Y-140625D01*
X370539Y-140625D01*
X372139Y-139958D01*
X372939Y-138625D01*
X372939Y-135292D01*
G54D13*
X409058Y-182116D02*
X405391Y-172338D01*
X401725Y-182116D01*
G54D13*
X407591Y-178449D02*
X403191Y-178449D01*
G54D13*
X399036Y-172338D02*
X393169Y-172338D01*
X393903Y-173560D01*
X395369Y-175394D01*
X396836Y-177838D01*
X397569Y-179672D01*
X397569Y-182116D01*
G54D13*
X110490Y-79805D02*
X106824Y-76138D01*
X106824Y-85916D01*
G54D13*
X98268Y-77971D02*
X98268Y-84082D01*
X99001Y-85305D01*
X100468Y-85916D01*
X101934Y-85916D01*
X103401Y-85305D01*
X104134Y-84082D01*
X104134Y-77971D01*
X103401Y-76749D01*
X101934Y-76138D01*
X100468Y-76138D01*
X99001Y-76749D01*
X98268Y-77971D01*
G54D13*
X89712Y-77971D02*
X89712Y-84082D01*
X90445Y-85305D01*
X91912Y-85916D01*
X93378Y-85916D01*
X94845Y-85305D01*
X95578Y-84082D01*
X95578Y-77971D01*
X94845Y-76749D01*
X93378Y-76138D01*
X91912Y-76138D01*
X90445Y-76749D01*
X89712Y-77971D01*
G54D13*
X87022Y-85916D02*
X87022Y-76138D01*
G54D13*
X87022Y-82860D02*
X81156Y-76138D01*
G54D13*
X84822Y-81027D02*
X81156Y-85916D01*
G54D14*
X940507Y-225892D02*
X941507Y-224226D01*
X943507Y-223392D01*
X945507Y-223392D01*
X947507Y-224226D01*
X948507Y-225892D01*
X948507Y-230059D01*
X948507Y-230892D01*
X945507Y-229226D01*
X943507Y-229226D01*
X941507Y-230059D01*
X940507Y-231726D01*
X940507Y-234226D01*
X941507Y-235892D01*
X943507Y-236726D01*
X945507Y-236726D01*
X947507Y-235892D01*
X948507Y-234226D01*
X948507Y-230059D01*
G54D14*
X936840Y-236726D02*
X936040Y-236726D01*
X936040Y-236059D01*
X936840Y-236059D01*
X936840Y-236726D01*
G54D14*
X932373Y-225892D02*
X931373Y-224226D01*
X929373Y-223392D01*
X927373Y-223392D01*
X925373Y-224226D01*
X924373Y-225892D01*
X924373Y-227559D01*
X925373Y-229226D01*
X927373Y-230059D01*
X925373Y-230892D01*
X924373Y-232559D01*
X924373Y-234226D01*
X925373Y-235892D01*
X927373Y-236726D01*
X929373Y-236726D01*
X931373Y-235892D01*
X932373Y-234226D01*
G54D14*
X920706Y-223392D02*
X915706Y-236726D01*
X910706Y-223392D01*
G54D14*
X935148Y-416074D02*
X943148Y-416074D01*
X943148Y-415240D01*
X942148Y-413574D01*
X936148Y-408574D01*
X935148Y-406907D01*
X935148Y-405240D01*
X936148Y-403574D01*
X938148Y-402740D01*
X940148Y-402740D01*
X942148Y-403574D01*
X943148Y-405240D01*
G54D14*
X923481Y-402740D02*
X931481Y-402740D01*
X931481Y-408574D01*
X930481Y-408574D01*
X928481Y-407740D01*
X926481Y-407740D01*
X924481Y-408574D01*
X923481Y-410240D01*
X923481Y-413574D01*
X924481Y-415240D01*
X926481Y-416074D01*
X928481Y-416074D01*
X930481Y-415240D01*
X931481Y-413574D01*
G54D14*
X919814Y-402740D02*
X914814Y-416074D01*
X909814Y-402740D01*
G54D20*
X858979Y-211023D02*
X869646Y-211023D01*
G54D20*
X864312Y-206578D02*
X864312Y-215467D01*
G54D20*
X858190Y-398479D02*
X868856Y-398479D01*
G54D20*
X863523Y-394035D02*
X863523Y-402924D01*
G54D18*
X660380Y-72025D02*
X660380Y-206868D01*
X745049Y-206868D01*
X745049Y-71677D01*
X744701Y-71328D01*
X661077Y-71328D01*
X660380Y-72025D01*
G54D14*
X702466Y-172551D02*
X702466Y-168551D01*
X698299Y-168551D01*
X696632Y-169551D01*
X695799Y-171551D01*
X695799Y-173551D01*
X696632Y-175551D01*
X698299Y-176551D01*
X706632Y-176551D01*
X708299Y-175551D01*
X709132Y-173551D01*
X709132Y-171551D01*
X708299Y-169551D01*
X706632Y-168551D01*
G54D14*
X706632Y-156884D02*
X708299Y-157884D01*
X709132Y-159884D01*
X709132Y-161884D01*
X708299Y-163884D01*
X706632Y-164884D01*
X702466Y-164884D01*
X701632Y-164884D01*
X703299Y-161884D01*
X703299Y-159884D01*
X702466Y-157884D01*
X700799Y-156884D01*
X698299Y-156884D01*
X696632Y-157884D01*
X695799Y-159884D01*
X695799Y-161884D01*
X696632Y-163884D01*
X698299Y-164884D01*
X702466Y-164884D01*
G54D14*
X698299Y-153217D02*
X696632Y-152217D01*
X695799Y-150217D01*
X695799Y-148217D01*
X696632Y-146217D01*
X698299Y-145217D01*
X699966Y-145217D01*
X701632Y-146217D01*
X702466Y-148217D01*
X702466Y-150217D01*
X703299Y-152217D01*
X704966Y-153217D01*
X706632Y-153217D01*
X708299Y-152217D01*
X709132Y-150217D01*
X709132Y-148217D01*
X708299Y-146217D01*
X706632Y-145217D01*
G54D14*
X695799Y-133550D02*
X695799Y-141550D01*
X696632Y-141550D01*
X698299Y-140550D01*
X703299Y-134550D01*
X704966Y-133550D01*
X706632Y-133550D01*
X708299Y-134550D01*
X709132Y-136550D01*
X709132Y-138550D01*
X708299Y-140550D01*
X706632Y-141550D01*
G54D14*
X704132Y-129883D02*
X709132Y-124883D01*
X695799Y-124883D01*
G54D14*
X695799Y-113216D02*
X695799Y-121216D01*
X696632Y-121216D01*
X698299Y-120216D01*
X703299Y-114216D01*
X704966Y-113216D01*
X706632Y-113216D01*
X708299Y-114216D01*
X709132Y-116216D01*
X709132Y-118216D01*
X708299Y-120216D01*
X706632Y-121216D01*
G54D14*
X695799Y-109549D02*
X709132Y-109549D01*
X709132Y-104549D01*
X708299Y-102549D01*
X706632Y-101549D01*
X698299Y-101549D01*
X696632Y-102549D01*
X695799Y-104549D01*
X695799Y-109549D01*
G54D14*
X698299Y-89882D02*
X696632Y-90882D01*
X695799Y-92882D01*
X695799Y-94882D01*
X696632Y-96882D01*
X698299Y-97882D01*
X706632Y-97882D01*
X708299Y-96882D01*
X709132Y-94882D01*
X709132Y-92882D01*
X708299Y-90882D01*
X706632Y-89882D01*
G54D18*
X245327Y-331143D02*
X195619Y-331143D01*
X195619Y-432418D01*
X246083Y-432418D01*
X246083Y-331269D01*
G54D18*
X293975Y-318176D02*
X293975Y-368572D01*
X395250Y-368572D01*
X395250Y-318109D01*
X294340Y-318109D01*
G54D14*
X812252Y-301872D02*
X808252Y-301872D01*
X808252Y-306039D01*
X809252Y-307706D01*
X811252Y-308539D01*
X813252Y-308539D01*
X815252Y-307706D01*
X816252Y-306039D01*
X816252Y-297706D01*
X815252Y-296039D01*
X813252Y-295206D01*
X811252Y-295206D01*
X809252Y-296039D01*
X808252Y-297706D01*
G54D14*
X804585Y-308539D02*
X804585Y-301039D01*
G54D14*
X804585Y-302706D02*
X803585Y-301539D01*
X801585Y-301039D01*
X799585Y-301539D01*
X798585Y-302706D01*
X798585Y-308539D01*
G54D14*
X788918Y-308539D02*
X788918Y-295206D01*
G54D14*
X788918Y-303206D02*
X789918Y-301539D01*
X791918Y-301039D01*
X793918Y-301539D01*
X794918Y-303206D01*
X794918Y-306539D01*
X793918Y-308206D01*
X791918Y-308539D01*
X789918Y-308206D01*
X788918Y-306539D01*
G54D14*
X810013Y-444170D02*
X806013Y-444170D01*
X806013Y-448336D01*
X807013Y-450003D01*
X809013Y-450836D01*
X811013Y-450836D01*
X813013Y-450003D01*
X814013Y-448336D01*
X814013Y-440003D01*
X813013Y-438336D01*
X811013Y-437503D01*
X809013Y-437503D01*
X807013Y-438336D01*
X806013Y-440003D01*
G54D14*
X802346Y-450836D02*
X802346Y-443336D01*
G54D14*
X802346Y-445003D02*
X801346Y-443836D01*
X799346Y-443336D01*
X797346Y-443836D01*
X796346Y-445003D01*
X796346Y-450836D01*
G54D14*
X786679Y-450836D02*
X786679Y-437503D01*
G54D14*
X786679Y-445503D02*
X787679Y-443836D01*
X789679Y-443336D01*
X791679Y-443836D01*
X792679Y-445503D01*
X792679Y-448836D01*
X791679Y-450503D01*
X789679Y-450836D01*
X787679Y-450503D01*
X786679Y-448836D01*
G54D18*
X61924Y-91996D02*
X61924Y-69771D01*
X131005Y-69771D01*
X131005Y-91996D01*
X61924Y-91996D01*
G54D18*
X152817Y-80838D02*
X131045Y-80925D01*
G54D21*
X759242Y-466607D02*
X750176Y-466607D01*
G54D21*
X754709Y-466607D02*
X754709Y-451496D01*
G54D21*
X759242Y-451496D02*
X750176Y-451496D01*
G54D21*
X746019Y-466607D02*
X746019Y-458107D01*
G54D21*
X746019Y-459996D02*
X744886Y-458674D01*
X742619Y-458107D01*
X740353Y-458674D01*
X739219Y-459996D01*
X739219Y-466607D01*
G54D21*
X735063Y-458107D02*
X735063Y-470385D01*
G54D21*
X735063Y-463774D02*
X733930Y-466230D01*
X731663Y-466607D01*
X729397Y-466230D01*
X728263Y-464340D01*
X728263Y-460563D01*
X729397Y-458674D01*
X731663Y-458107D01*
X733930Y-458674D01*
X735063Y-460940D01*
G54D21*
X717307Y-458107D02*
X717307Y-466607D01*
G54D21*
X717307Y-464718D02*
X718441Y-466230D01*
X720707Y-466607D01*
X722974Y-466230D01*
X724107Y-464718D01*
X724107Y-458107D01*
G54D21*
X710885Y-451496D02*
X710885Y-465663D01*
X709751Y-466607D01*
X708618Y-466230D01*
G54D21*
X713151Y-458107D02*
X708618Y-458107D01*
G54D21*
X749354Y-280291D02*
X749354Y-289735D01*
X750487Y-291624D01*
X752754Y-292569D01*
X755021Y-292569D01*
X757287Y-291624D01*
X758421Y-289735D01*
X758421Y-280291D01*
X757287Y-278402D01*
X755021Y-277458D01*
X752754Y-277458D01*
X750487Y-278402D01*
X749354Y-280291D01*
G54D21*
X738398Y-284069D02*
X738398Y-292569D01*
G54D21*
X738398Y-290680D02*
X739531Y-292191D01*
X741798Y-292569D01*
X744064Y-292191D01*
X745198Y-290680D01*
X745198Y-284069D01*
G54D21*
X731975Y-277458D02*
X731975Y-291624D01*
X730842Y-292569D01*
X729708Y-292191D01*
G54D21*
X734242Y-284069D02*
X729708Y-284069D01*
G54D21*
X725553Y-284069D02*
X725553Y-296346D01*
G54D21*
X725553Y-289735D02*
X724419Y-292191D01*
X722153Y-292569D01*
X719886Y-292191D01*
X718753Y-290302D01*
X718753Y-286524D01*
X719886Y-284635D01*
X722153Y-284069D01*
X724419Y-284635D01*
X725553Y-286902D01*
G54D21*
X707797Y-284069D02*
X707797Y-292569D01*
G54D21*
X707797Y-290680D02*
X708930Y-292191D01*
X711197Y-292569D01*
X713463Y-292191D01*
X714597Y-290680D01*
X714597Y-284069D01*
G54D21*
X701374Y-277458D02*
X701374Y-291624D01*
X700241Y-292569D01*
X699107Y-292191D01*
G54D21*
X703641Y-284069D02*
X699107Y-284069D01*
G54D18*
X559654Y-431164D02*
X581879Y-431164D01*
X581879Y-415289D01*
X559654Y-415289D01*
X559654Y-431164D01*
G54D22*
X889895Y-228533D02*
X889895Y-203543D01*
X890231Y-203208D01*
G54D22*
X875798Y-202589D02*
X903839Y-202589D01*
G54D22*
X889875Y-167523D02*
X889875Y-192513D01*
X890211Y-192848D01*
G54D22*
X875778Y-193467D02*
X903819Y-193467D01*
G54D22*
X889679Y-415472D02*
X889679Y-390483D01*
X890015Y-390147D01*
G54D22*
X875582Y-389529D02*
X903623Y-389529D01*
G54D22*
X889659Y-354463D02*
X889659Y-379452D01*
X889995Y-379788D01*
G54D22*
X875562Y-380406D02*
X903603Y-380406D01*
G54D14*
X97154Y-466115D02*
X97154Y-452782D01*
X92154Y-461115D01*
X87154Y-452782D01*
X87154Y-466115D01*
G54D14*
X83487Y-466115D02*
X83487Y-458615D01*
G54D14*
X83487Y-456115D02*
X83487Y-456115D01*
G54D14*
X74820Y-459115D02*
X76820Y-458615D01*
X78820Y-459115D01*
X79820Y-460782D01*
X79820Y-464115D01*
X78820Y-465782D01*
X76820Y-466115D01*
X74820Y-465782D01*
G54D14*
X71153Y-466115D02*
X71153Y-458615D01*
G54D14*
X71153Y-460282D02*
X69153Y-458615D01*
X67153Y-458615D01*
G54D14*
X57486Y-464115D02*
X57486Y-460782D01*
X58486Y-459115D01*
X60486Y-458615D01*
X62486Y-459115D01*
X63486Y-460782D01*
X63486Y-464115D01*
X62486Y-465782D01*
X60486Y-466115D01*
X58486Y-465782D01*
X57486Y-464115D01*
G54D14*
X53819Y-460282D02*
X45819Y-460282D01*
G54D14*
X42152Y-466115D02*
X42152Y-452782D01*
X35152Y-452782D01*
G54D14*
X42152Y-459449D02*
X35152Y-459449D01*
G54D14*
X31485Y-466115D02*
X31485Y-458615D01*
G54D14*
X31485Y-456115D02*
X31485Y-456115D01*
G54D14*
X25818Y-452782D02*
X25818Y-465282D01*
X24818Y-466115D01*
X23818Y-465782D01*
G54D14*
X27818Y-458615D02*
X23818Y-458615D01*
G54D14*
X77862Y-477450D02*
X72862Y-472450D01*
X72862Y-485784D01*
G54D14*
X61195Y-474950D02*
X61195Y-483284D01*
X62195Y-484950D01*
X64195Y-485784D01*
X66195Y-485784D01*
X68195Y-484950D01*
X69195Y-483284D01*
X69195Y-474950D01*
X68195Y-473284D01*
X66195Y-472450D01*
X64195Y-472450D01*
X62195Y-473284D01*
X61195Y-474950D01*
G54D14*
X57528Y-478284D02*
X49528Y-485784D01*
G54D14*
X57528Y-485784D02*
X49528Y-478284D01*
G54D14*
X37861Y-485784D02*
X45861Y-485784D01*
X45861Y-484950D01*
X44861Y-483284D01*
X38861Y-478284D01*
X37861Y-476617D01*
X37861Y-474950D01*
X38861Y-473284D01*
X40861Y-472450D01*
X42861Y-472450D01*
X44861Y-473284D01*
X45861Y-474950D01*
G54D13*
X51717Y-284829D02*
X51717Y-294607D01*
X48050Y-288496D01*
X44383Y-294607D01*
X44383Y-284829D01*
G54D13*
X41695Y-289718D02*
X40228Y-289107D01*
X38468Y-289107D01*
X37295Y-290329D01*
X37295Y-294607D01*
G54D13*
X37295Y-292774D02*
X38028Y-291552D01*
X39495Y-291307D01*
X40961Y-291552D01*
X41695Y-292774D01*
X41401Y-293996D01*
X40228Y-294607D01*
X39495Y-294607D01*
X39201Y-294607D01*
X38028Y-293996D01*
X37295Y-292774D01*
G54D13*
X33139Y-284829D02*
X33139Y-293996D01*
X32406Y-294607D01*
X31672Y-294363D01*
G54D13*
X34606Y-289107D02*
X31672Y-289107D01*
G54D13*
X24584Y-293996D02*
X25757Y-294607D01*
X27224Y-294607D01*
X28690Y-293996D01*
X28984Y-292774D01*
X28984Y-290696D01*
X28250Y-289474D01*
X26784Y-289107D01*
X25317Y-289474D01*
X24584Y-290329D01*
X24584Y-291552D01*
X28984Y-291552D01*
G54D13*
X21895Y-294607D02*
X21895Y-289107D01*
G54D13*
X21895Y-290329D02*
X20428Y-289107D01*
X18961Y-289107D01*
G54D23*
X858353Y-538253D02*
X851686Y-520475D01*
X845020Y-538253D01*
G54D23*
X855686Y-531586D02*
X847686Y-531586D01*
G54D23*
X830798Y-528253D02*
X830798Y-538253D01*
G54D23*
X830798Y-536031D02*
X832131Y-537808D01*
X834798Y-538253D01*
X837465Y-537808D01*
X838798Y-536031D01*
X838798Y-528253D01*
G54D23*
X824576Y-528253D02*
X813909Y-538253D01*
G54D23*
X824576Y-538253D02*
X813909Y-528253D01*
G54D23*
X807687Y-538253D02*
X807687Y-528253D01*
G54D23*
X807687Y-524920D02*
X807687Y-524920D01*
G54D23*
X801465Y-538253D02*
X801465Y-520475D01*
G54D23*
X795243Y-538253D02*
X795243Y-528253D01*
G54D23*
X795243Y-524920D02*
X795243Y-524920D01*
G54D23*
X789021Y-529364D02*
X786354Y-528253D01*
X783154Y-528253D01*
X781021Y-530475D01*
X781021Y-538253D01*
G54D23*
X781021Y-534920D02*
X782354Y-532698D01*
X785021Y-532253D01*
X787688Y-532698D01*
X789021Y-534920D01*
X788488Y-537142D01*
X786354Y-538253D01*
X785021Y-538253D01*
X784488Y-538253D01*
X782354Y-537142D01*
X781021Y-534920D01*
G54D23*
X774799Y-538253D02*
X774799Y-528253D01*
G54D23*
X774799Y-530475D02*
X772132Y-528253D01*
X769466Y-528253D01*
G54D23*
X763244Y-528253D02*
X757911Y-538253D01*
X752577Y-528253D01*
G54D23*
X757911Y-538253D02*
X759244Y-541586D01*
X760577Y-542698D01*
X761911Y-542698D01*
G54D23*
X739866Y-538253D02*
X739866Y-520475D01*
G54D23*
X729199Y-538253D02*
X729199Y-520475D01*
G54D23*
X739866Y-529364D02*
X729199Y-529364D01*
G54D23*
X714977Y-537142D02*
X717110Y-538253D01*
X719777Y-538253D01*
X722444Y-537142D01*
X722977Y-534920D01*
X722977Y-531142D01*
X721644Y-528920D01*
X718977Y-528253D01*
X716310Y-528920D01*
X714977Y-530475D01*
X714977Y-532698D01*
X722977Y-532698D01*
G54D23*
X708755Y-529364D02*
X706088Y-528253D01*
X702888Y-528253D01*
X700755Y-530475D01*
X700755Y-538253D01*
G54D23*
X700755Y-534920D02*
X702088Y-532698D01*
X704755Y-532253D01*
X707422Y-532698D01*
X708755Y-534920D01*
X708222Y-537142D01*
X706088Y-538253D01*
X704755Y-538253D01*
X704222Y-538253D01*
X702088Y-537142D01*
X700755Y-534920D01*
G54D23*
X691866Y-520475D02*
X691866Y-537142D01*
X690533Y-538253D01*
X689200Y-537808D01*
G54D23*
X694533Y-528253D02*
X689200Y-528253D01*
G54D23*
X674978Y-537142D02*
X677111Y-538253D01*
X679778Y-538253D01*
X682445Y-537142D01*
X682978Y-534920D01*
X682978Y-531142D01*
X681645Y-528920D01*
X678978Y-528253D01*
X676311Y-528920D01*
X674978Y-530475D01*
X674978Y-532698D01*
X682978Y-532698D01*
G54D23*
X668756Y-538253D02*
X668756Y-528253D01*
G54D23*
X668756Y-530475D02*
X666089Y-528253D01*
X663423Y-528253D01*
G54D23*
X645378Y-529364D02*
X641378Y-531586D01*
X640045Y-533808D01*
X640045Y-538253D01*
G54D23*
X650712Y-538253D02*
X650712Y-520475D01*
X644045Y-520475D01*
X641378Y-521586D01*
X640045Y-523808D01*
X640045Y-526031D01*
X641378Y-528253D01*
X644045Y-529364D01*
X650712Y-529364D01*
G54D23*
X625823Y-537142D02*
X627956Y-538253D01*
X630623Y-538253D01*
X633290Y-537142D01*
X633823Y-534920D01*
X633823Y-531142D01*
X632490Y-528920D01*
X629823Y-528253D01*
X627156Y-528920D01*
X625823Y-530475D01*
X625823Y-532698D01*
X633823Y-532698D01*
G54D23*
X619601Y-538253D02*
X619601Y-528253D01*
G54D23*
X619601Y-530031D02*
X616934Y-528253D01*
X614268Y-528920D01*
X612934Y-530475D01*
X612934Y-538253D01*
G54D23*
X612934Y-530031D02*
X610268Y-528253D01*
X607601Y-528920D01*
X606268Y-530475D01*
X606268Y-538253D01*
G54D23*
X592046Y-535586D02*
X592046Y-531142D01*
X593379Y-528920D01*
X596046Y-528253D01*
X598712Y-528920D01*
X600046Y-531142D01*
X600046Y-535586D01*
X598712Y-537808D01*
X596046Y-538253D01*
X593379Y-537808D01*
X592046Y-535586D01*
G54D23*
X583157Y-520475D02*
X583157Y-537142D01*
X581824Y-538253D01*
X580490Y-537808D01*
G54D23*
X585824Y-528253D02*
X580490Y-528253D01*
G54D23*
X566269Y-537142D02*
X568402Y-538253D01*
X571069Y-538253D01*
X573736Y-537142D01*
X574269Y-534920D01*
X574269Y-531142D01*
X572936Y-528920D01*
X570269Y-528253D01*
X567602Y-528920D01*
X566269Y-530475D01*
X566269Y-532698D01*
X574269Y-532698D01*
G54D23*
X553558Y-538253D02*
X553558Y-520475D01*
X546891Y-531586D01*
X540224Y-520475D01*
X540224Y-538253D01*
G54D23*
X534003Y-529364D02*
X531336Y-528253D01*
X528136Y-528253D01*
X526003Y-530475D01*
X526003Y-538253D01*
G54D23*
X526003Y-534920D02*
X527336Y-532698D01*
X530003Y-532253D01*
X532670Y-532698D01*
X534003Y-534920D01*
X533470Y-537142D01*
X531336Y-538253D01*
X530003Y-538253D01*
X529470Y-538253D01*
X527336Y-537142D01*
X526003Y-534920D01*
G54D23*
X519781Y-538253D02*
X519781Y-520475D01*
G54D23*
X515781Y-531586D02*
X511781Y-538253D01*
G54D23*
X519781Y-533808D02*
X511781Y-528253D01*
G54D23*
X505559Y-537142D02*
X502892Y-538253D01*
X500226Y-538253D01*
X497559Y-537142D01*
X497559Y-534920D01*
X498892Y-533808D01*
X504226Y-532698D01*
X505559Y-531586D01*
X505559Y-529364D01*
X502892Y-528253D01*
X500226Y-528253D01*
X497559Y-529364D01*
G54D23*
X491337Y-520475D02*
X484670Y-538253D01*
X478004Y-520475D01*
G54D23*
X471782Y-520475D02*
X465115Y-538253D01*
X458448Y-520475D01*
G54D23*
X413293Y-528253D02*
X407960Y-538253D01*
X402626Y-528253D01*
G54D23*
X389737Y-529364D02*
X392404Y-529364D01*
X395070Y-528253D01*
X396404Y-526031D01*
X396404Y-523808D01*
X395070Y-521586D01*
X392404Y-520475D01*
X389737Y-520475D01*
X387070Y-521586D01*
X385737Y-523808D01*
X385737Y-526031D01*
X387070Y-528253D01*
X389737Y-529364D01*
X387070Y-530475D01*
X385737Y-532698D01*
X385737Y-534920D01*
X387070Y-537142D01*
X389737Y-538253D01*
X392404Y-538253D01*
X395070Y-537142D01*
X396404Y-534920D01*
X396404Y-532698D01*
X395070Y-530475D01*
X392404Y-529364D01*
G54D23*
X379515Y-538253D02*
X379515Y-538253D01*
G54D23*
X373293Y-534920D02*
X371960Y-537142D01*
X369293Y-538253D01*
X366626Y-538253D01*
X363960Y-537142D01*
X362626Y-534920D01*
X362626Y-529364D01*
X362626Y-528253D01*
X366626Y-530475D01*
X369293Y-530475D01*
X371960Y-529364D01*
X373293Y-527142D01*
X373293Y-523808D01*
X371960Y-521586D01*
X369293Y-520475D01*
X366626Y-520475D01*
X363960Y-521586D01*
X362626Y-523808D01*
X362626Y-529364D01*
G54D23*
X345737Y-538253D02*
X356404Y-538253D01*
X356404Y-537142D01*
X355070Y-534920D01*
X347070Y-528253D01*
X345737Y-526031D01*
X345737Y-523808D01*
X347070Y-521586D01*
X349737Y-520475D01*
X352404Y-520475D01*
X355070Y-521586D01*
X356404Y-523808D01*
G54D18*
X619Y-112970D02*
X113301Y-112970D01*
X113301Y-449170D01*
X644Y-449170D01*
X644Y-112994D01*
G54D13*
X51464Y-264973D02*
X51464Y-274751D01*
X46331Y-274751D01*
G54D13*
X38509Y-274751D02*
X43642Y-274751D01*
X43642Y-264973D01*
X38509Y-264973D01*
G54D13*
X43642Y-269862D02*
X38509Y-269862D01*
G54D13*
X35820Y-274751D02*
X35820Y-264973D01*
X32154Y-264973D01*
X30687Y-265584D01*
X29954Y-266806D01*
X29954Y-272918D01*
X30687Y-274140D01*
X32154Y-274751D01*
X35820Y-274751D01*
G54D18*
X61883Y-81250D02*
X40261Y-81249D01*
G54D13*
X47482Y-217510D02*
X44549Y-217510D01*
X44549Y-220566D01*
X45282Y-221788D01*
X46749Y-222399D01*
X48215Y-222399D01*
X49682Y-221788D01*
X50415Y-220566D01*
X50415Y-214455D01*
X49682Y-213232D01*
X48215Y-212621D01*
X46749Y-212621D01*
X45282Y-213232D01*
X44549Y-214455D01*
G54D13*
X41859Y-222399D02*
X41859Y-216899D01*
G54D13*
X41859Y-218121D02*
X41126Y-217266D01*
X39659Y-216899D01*
X38193Y-217266D01*
X37459Y-218121D01*
X37459Y-222399D01*
G54D13*
X30370Y-222399D02*
X30370Y-212621D01*
G54D13*
X30370Y-218488D02*
X31104Y-217266D01*
X32570Y-216899D01*
X34037Y-217266D01*
X34770Y-218488D01*
X34770Y-220932D01*
X34037Y-222155D01*
X32570Y-222399D01*
X31104Y-222155D01*
X30370Y-220932D01*
G54D13*
X48784Y-177773D02*
X45851Y-177773D01*
X45851Y-180828D01*
X46584Y-182051D01*
X48051Y-182662D01*
X49518Y-182662D01*
X50984Y-182051D01*
X51718Y-180828D01*
X51718Y-174717D01*
X50984Y-173495D01*
X49518Y-172884D01*
X48051Y-172884D01*
X46584Y-173495D01*
X45851Y-174717D01*
G54D13*
X43161Y-182662D02*
X43161Y-177162D01*
G54D13*
X43161Y-178384D02*
X42428Y-177528D01*
X40961Y-177162D01*
X39495Y-177528D01*
X38761Y-178384D01*
X38761Y-182662D01*
G54D13*
X31673Y-182662D02*
X31673Y-172884D01*
G54D13*
X31673Y-178751D02*
X32406Y-177528D01*
X33873Y-177162D01*
X35339Y-177528D01*
X36073Y-178751D01*
X36073Y-181195D01*
X35339Y-182417D01*
X33873Y-182662D01*
X32406Y-182417D01*
X31673Y-181195D01*
G54D13*
X51289Y-396002D02*
X49823Y-396613D01*
X48356Y-396613D01*
X46889Y-396002D01*
X46889Y-394780D01*
X47623Y-394169D01*
X50556Y-393558D01*
X51289Y-392947D01*
X51289Y-391724D01*
X49823Y-391113D01*
X48356Y-391113D01*
X46889Y-391724D01*
G54D13*
X44200Y-396613D02*
X44200Y-391113D01*
G54D13*
X44200Y-389280D02*
X44200Y-389280D01*
G54D13*
X41511Y-398447D02*
X40045Y-399058D01*
X39018Y-399058D01*
X37551Y-398447D01*
X37111Y-397224D01*
X37111Y-391113D01*
G54D13*
X37111Y-392702D02*
X37845Y-391480D01*
X39311Y-391113D01*
X40778Y-391480D01*
X41511Y-392702D01*
X41511Y-395147D01*
X40778Y-396369D01*
X39311Y-396613D01*
X37845Y-396369D01*
X37111Y-395147D01*
G54D13*
X34422Y-396613D02*
X34422Y-391113D01*
G54D13*
X34422Y-392336D02*
X33689Y-391480D01*
X32222Y-391113D01*
X30756Y-391480D01*
X30022Y-392336D01*
X30022Y-396613D01*
G54D13*
X27333Y-391724D02*
X25867Y-391113D01*
X24107Y-391113D01*
X22933Y-392336D01*
X22933Y-396613D01*
G54D13*
X22933Y-394780D02*
X23667Y-393558D01*
X25133Y-393313D01*
X26600Y-393558D01*
X27333Y-394780D01*
X27040Y-396002D01*
X25867Y-396613D01*
X25133Y-396613D01*
X24840Y-396613D01*
X23667Y-396002D01*
X22933Y-394780D01*
G54D13*
X20244Y-396613D02*
X20244Y-386836D01*
G54D13*
X51061Y-341317D02*
X47394Y-351095D01*
X43728Y-341317D01*
G54D13*
X35172Y-349262D02*
X35906Y-350484D01*
X37372Y-351095D01*
X38839Y-351095D01*
X40306Y-350484D01*
X41039Y-349262D01*
X41039Y-343151D01*
X40306Y-341928D01*
X38839Y-341317D01*
X37372Y-341317D01*
X35906Y-341928D01*
X35172Y-343151D01*
G54D13*
X26616Y-349262D02*
X27350Y-350484D01*
X28816Y-351095D01*
X30283Y-351095D01*
X31750Y-350484D01*
X32483Y-349262D01*
X32483Y-343151D01*
X31750Y-341928D01*
X30283Y-341317D01*
X28816Y-341317D01*
X27350Y-341928D01*
X26616Y-343151D01*
G54D13*
X52062Y-151229D02*
X51328Y-152451D01*
X49862Y-153062D01*
X48395Y-153062D01*
X46928Y-152451D01*
X46195Y-151229D01*
X46195Y-150007D01*
X46928Y-148784D01*
X48395Y-148173D01*
X49862Y-148173D01*
X51328Y-147562D01*
X52062Y-146340D01*
X52062Y-145118D01*
X51328Y-143896D01*
X49862Y-143284D01*
X48395Y-143284D01*
X46928Y-143896D01*
X46195Y-145118D01*
G54D13*
X42039Y-143284D02*
X42039Y-152451D01*
X41306Y-153062D01*
X40572Y-152818D01*
G54D13*
X43506Y-147562D02*
X40572Y-147562D01*
G54D13*
X37884Y-148173D02*
X36417Y-147562D01*
X34657Y-147562D01*
X33484Y-148784D01*
X33484Y-153062D01*
G54D13*
X33484Y-151229D02*
X34217Y-150007D01*
X35684Y-149762D01*
X37150Y-150007D01*
X37884Y-151229D01*
X37590Y-152451D01*
X36417Y-153062D01*
X35684Y-153062D01*
X35390Y-153062D01*
X34217Y-152451D01*
X33484Y-151229D01*
G54D13*
X30795Y-153062D02*
X30795Y-147562D01*
G54D13*
X30795Y-148784D02*
X29328Y-147562D01*
X27861Y-147562D01*
G54D13*
X23706Y-143284D02*
X23706Y-152451D01*
X22973Y-153062D01*
X22239Y-152818D01*
G54D13*
X25173Y-147562D02*
X22239Y-147562D01*
G54D13*
X51642Y-306070D02*
X51642Y-296292D01*
X47975Y-296292D01*
X46509Y-296903D01*
X45775Y-298126D01*
X45775Y-299348D01*
X46509Y-300570D01*
X47975Y-301181D01*
X51642Y-301181D01*
G54D13*
X38686Y-300570D02*
X38686Y-306070D01*
G54D13*
X38686Y-304848D02*
X39419Y-305826D01*
X40886Y-306070D01*
X42353Y-305826D01*
X43086Y-304848D01*
X43086Y-300570D01*
G54D13*
X35997Y-306070D02*
X35997Y-300570D01*
G54D13*
X35997Y-301548D02*
X34530Y-300570D01*
X33064Y-300937D01*
X32330Y-301792D01*
X32330Y-306070D01*
G54D13*
X32330Y-301548D02*
X30864Y-300570D01*
X29397Y-300937D01*
X28664Y-301792D01*
X28664Y-306070D01*
G54D13*
X25975Y-300570D02*
X25975Y-308514D01*
G54D13*
X25975Y-304237D02*
X25242Y-305826D01*
X23775Y-306070D01*
X22308Y-305826D01*
X21575Y-304603D01*
X21575Y-302159D01*
X22308Y-300937D01*
X23775Y-300570D01*
X25242Y-300937D01*
X25975Y-302403D01*
G54D13*
X14486Y-305459D02*
X15659Y-306070D01*
X17126Y-306070D01*
X18593Y-305459D01*
X18886Y-304237D01*
X18886Y-302159D01*
X18153Y-300937D01*
X16686Y-300570D01*
X15219Y-300937D01*
X14486Y-301792D01*
X14486Y-303014D01*
X18886Y-303014D01*
G54D18*
X249728Y-499853D02*
X249728Y-531604D01*
X202103Y-531603D01*
X202103Y-499853D01*
X249728Y-499853D01*
G54D13*
X222403Y-525975D02*
X231570Y-525975D01*
X232181Y-525242D01*
X231814Y-524508D01*
G54D13*
X227903Y-527442D02*
X227903Y-524508D01*
G54D13*
X227903Y-517420D02*
X222403Y-517420D01*
G54D13*
X223625Y-517420D02*
X222648Y-518153D01*
X222403Y-519620D01*
X222648Y-521086D01*
X223626Y-521820D01*
X227903Y-521820D01*
G54D13*
X223014Y-514731D02*
X222403Y-513264D01*
X222403Y-511797D01*
X223014Y-510331D01*
X224236Y-510331D01*
X224848Y-511064D01*
X225459Y-513997D01*
X226070Y-514731D01*
X227292Y-514730D01*
X227903Y-513264D01*
X227903Y-511798D01*
X227292Y-510331D01*
G54D13*
X223014Y-503242D02*
X222403Y-504415D01*
X222403Y-505882D01*
X223014Y-507348D01*
X224237Y-507642D01*
X226314Y-507642D01*
X227537Y-506908D01*
X227903Y-505442D01*
X227537Y-503975D01*
X226681Y-503242D01*
X225459Y-503242D01*
X225459Y-507642D01*
G54D13*
X727162Y-380384D02*
X727163Y-386251D01*
X727774Y-386251D01*
X728996Y-385518D01*
X732663Y-381118D01*
X733885Y-380384D01*
X735107Y-380384D01*
X736329Y-381118D01*
X736940Y-382584D01*
X736940Y-384051D01*
X736329Y-385518D01*
X735107Y-386251D01*
G54D13*
X727163Y-377695D02*
X736940Y-377695D01*
G54D13*
X730218Y-377695D02*
X736940Y-371828D01*
G54D13*
X732051Y-375495D02*
X727162Y-371828D01*
G54D18*
X755566Y-361196D02*
X755566Y-392946D01*
X707941Y-392946D01*
X707941Y-361196D01*
X755566Y-361196D01*
G54D16*
X343325Y-467358D02*
X346658Y-464024D01*
X337770Y-464024D01*
G54D16*
X344992Y-456248D02*
X339436Y-456248D01*
X338325Y-456914D01*
X337770Y-458248D01*
X337770Y-459581D01*
X338325Y-460914D01*
X339436Y-461581D01*
X344992Y-461581D01*
X346103Y-460914D01*
X346658Y-459581D01*
X346658Y-458248D01*
X346103Y-456914D01*
X344992Y-456248D01*
G54D16*
X337770Y-453804D02*
X346658Y-453804D01*
G54D16*
X340547Y-453804D02*
X346658Y-448470D01*
G54D16*
X342214Y-451804D02*
X337770Y-448470D01*
G54D18*
X366272Y-441390D02*
X366272Y-473140D01*
X318647Y-473140D01*
X318648Y-441390D01*
X366272Y-441390D01*
G54D16*
X490075Y-134207D02*
X493408Y-130874D01*
X484520Y-130874D01*
G54D16*
X484520Y-128430D02*
X493408Y-128430D01*
G54D16*
X487297Y-128430D02*
X493408Y-123097D01*
G54D16*
X488964Y-126430D02*
X484520Y-123097D01*
G54D18*
X512458Y-112553D02*
X512458Y-144303D01*
X464833Y-144303D01*
X464833Y-112552D01*
X512458Y-112553D01*
G54D16*
X490075Y-185007D02*
X493409Y-181674D01*
X484520Y-181674D01*
G54D16*
X484520Y-179230D02*
X493409Y-179230D01*
G54D16*
X487297Y-179230D02*
X493409Y-173897D01*
G54D16*
X488964Y-177230D02*
X484520Y-173897D01*
G54D18*
X512458Y-163353D02*
X512458Y-195103D01*
X464833Y-195103D01*
X464833Y-163352D01*
X512458Y-163353D01*
G54D16*
X490075Y-219932D02*
X493409Y-216599D01*
X484520Y-216599D01*
G54D16*
X484520Y-214155D02*
X493409Y-214155D01*
G54D16*
X487297Y-214155D02*
X493409Y-208822D01*
G54D16*
X488964Y-212155D02*
X484520Y-208822D01*
G54D18*
X512458Y-198278D02*
X512458Y-230028D01*
X464833Y-230028D01*
X464833Y-198277D01*
X512458Y-198278D01*
G54D16*
X409525Y-101598D02*
X406192Y-98264D01*
X406192Y-107153D01*
G54D16*
X398415Y-99931D02*
X398415Y-105487D01*
X399081Y-106598D01*
X400415Y-107153D01*
X401748Y-107153D01*
X403081Y-106598D01*
X403748Y-105487D01*
X403748Y-99931D01*
X403081Y-98820D01*
X401748Y-98264D01*
X400415Y-98264D01*
X399081Y-98820D01*
X398415Y-99931D01*
G54D16*
X395971Y-107153D02*
X395971Y-98264D01*
G54D16*
X395971Y-104376D02*
X390638Y-98264D01*
G54D16*
X393971Y-102709D02*
X390638Y-107153D01*
G54D18*
X383870Y-79215D02*
X415620Y-79215D01*
X415621Y-126840D01*
X383870Y-126840D01*
X383870Y-79215D01*
G54D18*
X255221Y-145049D02*
X439721Y-144549D01*
X442821Y-451924D01*
X366613Y-451924D01*
G54D16*
X506215Y-314225D02*
X509549Y-310892D01*
X500660Y-310892D01*
G54D16*
X507882Y-303114D02*
X502327Y-303114D01*
X501215Y-303781D01*
X500660Y-305114D01*
X500660Y-306448D01*
X501215Y-307781D01*
X502327Y-308448D01*
X507882Y-308448D01*
X508993Y-307781D01*
X509549Y-306448D01*
X509549Y-305114D01*
X508993Y-303781D01*
X507882Y-303114D01*
G54D16*
X500660Y-300671D02*
X509549Y-300671D01*
G54D16*
X503438Y-300671D02*
X509549Y-295338D01*
G54D16*
X505104Y-298671D02*
X500660Y-295338D01*
G54D18*
X529352Y-289446D02*
X529352Y-321196D01*
X481727Y-321196D01*
X481727Y-289445D01*
X529352Y-289446D01*
G54D16*
X500574Y-273783D02*
X500574Y-279117D01*
X501130Y-279117D01*
X502241Y-278450D01*
X505574Y-274450D01*
X506685Y-273783D01*
X507796Y-273783D01*
X508907Y-274450D01*
X509463Y-275783D01*
X509463Y-277117D01*
X508907Y-278450D01*
X507796Y-279117D01*
G54D16*
X507796Y-266006D02*
X502241Y-266006D01*
X501130Y-266673D01*
X500574Y-268006D01*
X500574Y-269340D01*
X501130Y-270673D01*
X502241Y-271340D01*
X507796Y-271340D01*
X508907Y-270673D01*
X509463Y-269340D01*
X509463Y-268006D01*
X508907Y-266673D01*
X507796Y-266006D01*
G54D16*
X500574Y-263563D02*
X509463Y-263563D01*
G54D16*
X503352Y-263563D02*
X509463Y-258229D01*
G54D16*
X505018Y-261563D02*
X500574Y-258229D01*
G54D18*
X529352Y-254521D02*
X529352Y-286271D01*
X481727Y-286271D01*
X481727Y-254520D01*
X529352Y-254521D01*
G54D18*
X684386Y-222593D02*
X634386Y-222593D01*
X634386Y-258593D01*
X684386Y-258593D01*
X684386Y-222593D01*
G36*
X634386Y-222593D02*
X634386Y-258593D01*
X644386Y-258593D01*
X644386Y-222593D01*
X634386Y-222593D01*
G37*
G54D24*
X634386Y-222593D02*
X634386Y-258593D01*
X644386Y-258593D01*
X644386Y-222593D01*
X634386Y-222593D01*
G54D16*
X774510Y-264558D02*
X777843Y-261225D01*
X768954Y-261225D01*
G54D16*
X768954Y-258781D02*
X777843Y-258781D01*
X768954Y-253448D01*
X777843Y-253448D01*
G54D16*
X768954Y-247004D02*
X777843Y-247004D01*
X772288Y-251004D01*
X771176Y-251004D01*
X771176Y-245671D01*
G54D16*
X776176Y-237894D02*
X770621Y-237894D01*
X769510Y-238560D01*
X768954Y-239894D01*
X768954Y-241227D01*
X769510Y-242560D01*
X770621Y-243227D01*
X776176Y-243227D01*
X777288Y-242560D01*
X777843Y-241227D01*
X777843Y-239894D01*
X777288Y-238560D01*
X776176Y-237894D01*
G54D16*
X776176Y-230117D02*
X770621Y-230117D01*
X769510Y-230783D01*
X768954Y-232117D01*
X768954Y-233450D01*
X769510Y-234783D01*
X770621Y-235450D01*
X776176Y-235450D01*
X777288Y-234783D01*
X777843Y-233450D01*
X777843Y-232117D01*
X777288Y-230783D01*
X776176Y-230117D01*
G54D16*
X777843Y-227673D02*
X777843Y-222340D01*
X776732Y-223006D01*
X775065Y-224340D01*
X772843Y-225673D01*
X771176Y-226340D01*
X768954Y-226340D01*
G54D18*
X799073Y-222656D02*
X749073Y-222656D01*
X749073Y-258656D01*
X799073Y-258656D01*
X799073Y-222656D01*
G36*
X749073Y-222656D02*
X749073Y-258656D01*
X759073Y-258656D01*
X759073Y-222656D01*
X749073Y-222656D01*
G37*
G54D18*
X749073Y-222656D02*
X749073Y-258656D01*
X759073Y-258656D01*
X759073Y-222656D01*
X749073Y-222656D01*
G54D25*
X628565Y-149106D02*
X595965Y-149106D01*
X595965Y-50006D01*
X628565Y-50006D01*
X628565Y-149106D01*
G54D14*
X625692Y-158702D02*
X617692Y-158702D01*
G54D14*
X621692Y-155369D02*
X621692Y-162036D01*
G54D16*
X588044Y-316364D02*
X591377Y-313031D01*
X582488Y-313031D01*
G54D16*
X582488Y-310587D02*
X591377Y-310587D01*
X582488Y-305254D01*
X591377Y-305254D01*
G54D16*
X582488Y-298810D02*
X591377Y-298810D01*
X585821Y-302810D01*
X584710Y-302810D01*
X584710Y-297477D01*
G54D16*
X589710Y-289700D02*
X584155Y-289700D01*
X583044Y-290366D01*
X582488Y-291700D01*
X582488Y-293033D01*
X583044Y-294366D01*
X584155Y-295033D01*
X589710Y-295033D01*
X590821Y-294366D01*
X591377Y-293033D01*
X591377Y-291700D01*
X590821Y-290366D01*
X589710Y-289700D01*
G54D16*
X589710Y-281923D02*
X584155Y-281923D01*
X583044Y-282589D01*
X582488Y-283923D01*
X582488Y-285256D01*
X583044Y-286589D01*
X584155Y-287256D01*
X589710Y-287256D01*
X590821Y-286589D01*
X591377Y-285256D01*
X591377Y-283923D01*
X590821Y-282589D01*
X589710Y-281923D01*
G54D16*
X591377Y-279479D02*
X591377Y-274146D01*
X590266Y-274812D01*
X588599Y-276146D01*
X586377Y-277479D01*
X584710Y-278146D01*
X582488Y-278146D01*
G54D18*
X609001Y-278987D02*
X559001Y-278987D01*
X559001Y-314987D01*
X609001Y-314987D01*
X609001Y-278987D01*
G36*
X559001Y-278987D02*
X559001Y-314987D01*
X569001Y-314987D01*
X569001Y-278987D01*
X559001Y-278987D01*
G37*
G54D24*
X559001Y-278987D02*
X559001Y-314987D01*
X569001Y-314987D01*
X569001Y-278987D01*
X559001Y-278987D01*
G54D16*
X202868Y-121551D02*
X206201Y-118217D01*
X197312Y-118217D01*
G54D16*
X197312Y-115774D02*
X206201Y-115774D01*
X197312Y-110440D01*
X206201Y-110440D01*
G54D16*
X197312Y-103997D02*
X206201Y-103997D01*
X200646Y-107997D01*
X199535Y-107997D01*
X199535Y-102663D01*
G54D16*
X204535Y-94886D02*
X198979Y-94886D01*
X197868Y-95553D01*
X197312Y-96886D01*
X197312Y-98220D01*
X197868Y-99553D01*
X198979Y-100220D01*
X204535Y-100220D01*
X205646Y-99553D01*
X206201Y-98220D01*
X206201Y-96886D01*
X205646Y-95553D01*
X204535Y-94886D01*
G54D16*
X204535Y-87109D02*
X198979Y-87109D01*
X197868Y-87776D01*
X197312Y-89109D01*
X197312Y-90443D01*
X197868Y-91776D01*
X198979Y-92443D01*
X204535Y-92443D01*
X205646Y-91776D01*
X206201Y-90443D01*
X206201Y-89109D01*
X205646Y-87776D01*
X204535Y-87109D01*
G54D16*
X206201Y-84666D02*
X206201Y-79332D01*
X205090Y-79999D01*
X203423Y-81332D01*
X201201Y-82666D01*
X199535Y-83332D01*
X197312Y-83332D01*
G54D18*
X177887Y-122846D02*
X227887Y-122846D01*
X227887Y-86846D01*
X177887Y-86846D01*
X177887Y-122846D01*
G36*
X227887Y-122846D02*
X227887Y-86846D01*
X217887Y-86846D01*
X217887Y-122846D01*
X227887Y-122846D01*
G37*
G54D24*
X227887Y-122846D02*
X227887Y-86846D01*
X217887Y-86846D01*
X217887Y-122846D01*
X227887Y-122846D01*
G54D14*
X497264Y-326839D02*
X496264Y-325172D01*
X494264Y-324339D01*
X492264Y-324339D01*
X490264Y-325172D01*
X489264Y-326839D01*
X489264Y-328506D01*
X490264Y-330172D01*
X492264Y-331006D01*
X490264Y-331839D01*
X489264Y-333506D01*
X489264Y-335172D01*
X490264Y-336839D01*
X492264Y-337672D01*
X494264Y-337672D01*
X496264Y-336839D01*
X497264Y-335172D01*
G54D14*
X485597Y-326839D02*
X484597Y-325172D01*
X482597Y-324339D01*
X480597Y-324339D01*
X478597Y-325172D01*
X477597Y-326839D01*
X477597Y-328506D01*
X478597Y-330172D01*
X480597Y-331006D01*
X478597Y-331839D01*
X477597Y-333506D01*
X477597Y-335172D01*
X478597Y-336839D01*
X480597Y-337672D01*
X482597Y-337672D01*
X484597Y-336839D01*
X485597Y-335172D01*
G54D14*
X465930Y-326839D02*
X465930Y-335172D01*
X466930Y-336839D01*
X468930Y-337672D01*
X470930Y-337672D01*
X472930Y-336839D01*
X473930Y-335172D01*
X473930Y-326839D01*
X472930Y-325172D01*
X470930Y-324339D01*
X468930Y-324339D01*
X466930Y-325172D01*
X465930Y-326839D01*
G54D14*
X456263Y-330172D02*
X456263Y-337672D01*
G54D14*
X456263Y-336006D02*
X457263Y-337339D01*
X459263Y-337672D01*
X461263Y-337339D01*
X462263Y-336006D01*
X462263Y-330172D01*
G54D14*
X452596Y-337672D02*
X452596Y-324339D01*
X445596Y-324339D01*
G54D14*
X452596Y-331006D02*
X445596Y-331006D01*
G54D14*
X486481Y-428960D02*
X487481Y-427293D01*
X489481Y-426460D01*
X491481Y-426460D01*
X493481Y-427293D01*
X494481Y-428960D01*
X494481Y-433126D01*
X494481Y-433960D01*
X491481Y-432293D01*
X489481Y-432293D01*
X487481Y-433126D01*
X486481Y-434793D01*
X486481Y-437293D01*
X487481Y-438960D01*
X489481Y-439793D01*
X491481Y-439793D01*
X493481Y-438960D01*
X494481Y-437293D01*
X494481Y-433126D01*
G54D14*
X482814Y-439793D02*
X482014Y-439793D01*
X482014Y-439126D01*
X482814Y-439126D01*
X482814Y-439793D01*
G54D14*
X478347Y-428960D02*
X477347Y-427293D01*
X475347Y-426460D01*
X473347Y-426460D01*
X471347Y-427293D01*
X470347Y-428960D01*
X470347Y-430626D01*
X471347Y-432293D01*
X473347Y-433126D01*
X471347Y-433960D01*
X470347Y-435626D01*
X470347Y-437293D01*
X471347Y-438960D01*
X473347Y-439793D01*
X475347Y-439793D01*
X477347Y-438960D01*
X478347Y-437293D01*
G54D14*
X466680Y-426460D02*
X461680Y-439793D01*
X456680Y-426460D01*
G54D20*
X455187Y-397400D02*
X465853Y-397400D01*
G54D20*
X460520Y-392955D02*
X460520Y-401844D01*
G54D22*
X478946Y-411292D02*
X478946Y-386302D01*
X479282Y-385967D01*
G54D22*
X464849Y-385348D02*
X492890Y-385348D01*
G54D22*
X478926Y-350282D02*
X478926Y-375272D01*
X479262Y-375607D01*
G54D22*
X464829Y-376226D02*
X492870Y-376226D01*
G54D16*
X204727Y-483738D02*
X208060Y-480404D01*
X199171Y-480404D01*
G54D16*
X199171Y-477961D02*
X208060Y-477961D01*
X199171Y-472627D01*
X208060Y-472627D01*
G54D16*
X199171Y-466184D02*
X208060Y-466184D01*
X202504Y-470184D01*
X201393Y-470184D01*
X201393Y-464850D01*
G54D16*
X206393Y-457073D02*
X200838Y-457073D01*
X199727Y-457740D01*
X199171Y-459073D01*
X199171Y-460407D01*
X199727Y-461740D01*
X200838Y-462407D01*
X206393Y-462407D01*
X207504Y-461740D01*
X208060Y-460407D01*
X208060Y-459073D01*
X207504Y-457740D01*
X206393Y-457073D01*
G54D16*
X206393Y-449296D02*
X200838Y-449296D01*
X199727Y-449963D01*
X199171Y-451296D01*
X199171Y-452630D01*
X199727Y-453963D01*
X200838Y-454630D01*
X206393Y-454630D01*
X207504Y-453963D01*
X208060Y-452630D01*
X208060Y-451296D01*
X207504Y-449963D01*
X206393Y-449296D01*
G54D16*
X208060Y-446853D02*
X208060Y-441519D01*
X206949Y-442186D01*
X205282Y-443519D01*
X203060Y-444853D01*
X201393Y-445519D01*
X199171Y-445519D01*
G54D18*
X225684Y-446361D02*
X175684Y-446361D01*
X175684Y-482361D01*
X225684Y-482361D01*
X225684Y-446361D01*
G36*
X175684Y-446361D02*
X175684Y-482361D01*
X185684Y-482361D01*
X185684Y-446361D01*
X175684Y-446361D01*
G37*
G54D24*
X175684Y-446361D02*
X175684Y-482361D01*
X185684Y-482361D01*
X185684Y-446361D01*
X175684Y-446361D01*
G54D16*
X632299Y-136959D02*
X632299Y-141626D01*
X641188Y-141626D01*
X641188Y-136959D01*
G54D16*
X636743Y-141626D02*
X636743Y-136959D01*
G54D16*
X637854Y-131938D02*
X641188Y-128605D01*
X632299Y-128605D01*
G54D16*
X639521Y-120828D02*
X640632Y-121494D01*
X641188Y-122828D01*
X641188Y-124161D01*
X640632Y-125494D01*
X639521Y-126161D01*
X636743Y-126161D01*
X636188Y-126161D01*
X637299Y-124161D01*
X637299Y-122828D01*
X636743Y-121494D01*
X635632Y-120828D01*
X633966Y-120828D01*
X632854Y-121494D01*
X632299Y-122828D01*
X632299Y-124161D01*
X632854Y-125494D01*
X633966Y-126161D01*
X636743Y-126161D01*
G54D16*
X641188Y-118384D02*
X632299Y-115051D01*
X641188Y-111717D01*
G54D16*
X632299Y-102696D02*
X641188Y-102696D01*
X635632Y-106696D01*
X634521Y-106696D01*
X634521Y-101363D01*
G54D16*
X641188Y-98919D02*
X641188Y-93586D01*
X640077Y-94252D01*
X638410Y-95586D01*
X636188Y-96919D01*
X634521Y-97586D01*
X632299Y-97586D01*
G54D16*
X639521Y-85809D02*
X633966Y-85809D01*
X632854Y-86475D01*
X632299Y-87809D01*
X632299Y-89142D01*
X632854Y-90475D01*
X633966Y-91142D01*
X639521Y-91142D01*
X640632Y-90475D01*
X641188Y-89142D01*
X641188Y-87809D01*
X640632Y-86475D01*
X639521Y-85809D01*
G54D16*
X641188Y-83365D02*
X633966Y-83365D01*
X632854Y-82698D01*
X632299Y-81365D01*
X632299Y-80032D01*
X632854Y-78698D01*
X633966Y-78032D01*
X641188Y-78032D01*
G54D16*
X632299Y-75588D02*
X641188Y-75588D01*
X641188Y-70921D01*
G54D16*
X636743Y-75588D02*
X636743Y-70921D01*
M02*
