%FSLAX34Y34*%
%MOMM*%
%LNSMDMASK_BOTTOM*%
G71*
G01*
%ADD10R,1.000X2.000*%
%ADD11R,2.000X1.000*%
%ADD12R,1.400X2.000*%
%ADD13R,3.020X1.980*%
%LPD*%
X242920Y-515679D02*
G54D10*
D03*
X209120Y-516179D02*
G54D10*
D03*
X748544Y-376730D02*
G54D10*
D03*
X714744Y-377230D02*
G54D10*
D03*
G36*
X320430Y-447908D02*
X330430Y-447908D01*
X330430Y-467908D01*
X320430Y-467908D01*
X320430Y-447908D01*
G37*
G36*
X354230Y-447408D02*
X364230Y-447408D01*
X364230Y-467408D01*
X354230Y-467408D01*
X354230Y-447408D01*
G37*
G36*
X467177Y-119590D02*
X477177Y-119590D01*
X477178Y-139590D01*
X467178Y-139590D01*
X467177Y-119590D01*
G37*
G36*
X500977Y-119090D02*
X510977Y-119090D01*
X510978Y-139090D01*
X500978Y-139090D01*
X500977Y-119090D01*
G37*
G36*
X467177Y-170390D02*
X477177Y-170390D01*
X477178Y-190390D01*
X467178Y-190390D01*
X467177Y-170390D01*
G37*
G36*
X500977Y-169890D02*
X510977Y-169890D01*
X510978Y-189890D01*
X500978Y-189890D01*
X500977Y-169890D01*
G37*
G36*
X467177Y-205315D02*
X477177Y-205315D01*
X477178Y-225315D01*
X467178Y-225315D01*
X467177Y-205315D01*
G37*
G36*
X500977Y-204815D02*
X510977Y-204815D01*
X510978Y-224815D01*
X500978Y-224815D01*
X500977Y-204815D01*
G37*
X400908Y-119495D02*
G54D11*
D03*
X400408Y-85695D02*
G54D11*
D03*
G36*
X484072Y-296483D02*
X494072Y-296483D01*
X494072Y-316483D01*
X484072Y-316483D01*
X484072Y-296483D01*
G37*
G36*
X517872Y-295983D02*
X527872Y-295983D01*
X527872Y-315983D01*
X517872Y-315983D01*
X517872Y-295983D01*
G37*
G36*
X484072Y-261558D02*
X494072Y-261558D01*
X494072Y-281558D01*
X484072Y-281558D01*
X484072Y-261558D01*
G37*
G36*
X517872Y-261058D02*
X527872Y-261058D01*
X527872Y-281058D01*
X517872Y-281058D01*
X517872Y-261058D01*
G37*
X634457Y-240564D02*
G54D12*
D03*
X684457Y-240564D02*
G54D12*
D03*
X749144Y-240627D02*
G54D12*
D03*
X799144Y-240627D02*
G54D12*
D03*
X612265Y-134606D02*
G54D13*
D03*
X612265Y-64506D02*
G54D13*
D03*
X559072Y-296958D02*
G54D12*
D03*
X609072Y-296958D02*
G54D12*
D03*
X227816Y-104876D02*
G54D12*
D03*
X177816Y-104876D02*
G54D12*
D03*
X175755Y-464332D02*
G54D12*
D03*
X225755Y-464332D02*
G54D12*
D03*
M02*
