%FSLAX34Y34*%
%MOMM*%
%LNSILK_TOP*%
G71*
G01*
%ADD10C, 0.12*%
%ADD11C, 0.10*%
%ADD12C, 0.11*%
%ADD13C, 0.20*%
%LPD*%
G54D10*
X579787Y-96083D02*
X573921Y-96083D01*
X573921Y-95472D01*
X574654Y-94249D01*
X579054Y-90583D01*
X579787Y-89360D01*
X579787Y-88138D01*
X579054Y-86916D01*
X577587Y-86305D01*
X576121Y-86305D01*
X574654Y-86916D01*
X573921Y-88138D01*
G54D10*
X582477Y-96083D02*
X582477Y-86305D01*
G54D10*
X582477Y-93027D02*
X588343Y-86305D01*
G54D10*
X584677Y-91194D02*
X588343Y-96083D01*
G54D10*
X374266Y-505677D02*
X373044Y-504944D01*
X372433Y-503477D01*
X372433Y-502010D01*
X373044Y-500544D01*
X374266Y-499810D01*
X375488Y-499810D01*
X376711Y-500544D01*
X377322Y-502010D01*
X377933Y-500544D01*
X379155Y-499810D01*
X380377Y-499810D01*
X381600Y-500544D01*
X382211Y-502010D01*
X382211Y-503477D01*
X381600Y-504944D01*
X380377Y-505677D01*
G54D10*
X382211Y-497121D02*
X382211Y-496534D01*
X381722Y-496534D01*
X381722Y-497121D01*
X382211Y-497121D01*
G54D10*
X380377Y-493845D02*
X381600Y-493112D01*
X382211Y-491645D01*
X382211Y-490178D01*
X381600Y-488712D01*
X380377Y-487978D01*
X377322Y-487978D01*
X376711Y-487978D01*
X377933Y-490178D01*
X377933Y-491645D01*
X377322Y-493112D01*
X376100Y-493845D01*
X374266Y-493845D01*
X373044Y-493112D01*
X372433Y-491645D01*
X372433Y-490178D01*
X373044Y-488712D01*
X374266Y-487978D01*
X377322Y-487978D01*
G54D10*
X382211Y-485289D02*
X372433Y-485289D01*
G54D10*
X379155Y-485289D02*
X372433Y-479422D01*
G54D10*
X377322Y-483089D02*
X382211Y-479422D01*
G54D10*
X561537Y-312878D02*
X565204Y-309211D01*
X565204Y-318989D01*
G54D10*
X573760Y-311044D02*
X573760Y-317156D01*
X573027Y-318378D01*
X571560Y-318989D01*
X570093Y-318989D01*
X568627Y-318378D01*
X567893Y-317156D01*
X567893Y-311044D01*
X568627Y-309822D01*
X570093Y-309211D01*
X571560Y-309211D01*
X573027Y-309822D01*
X573760Y-311044D01*
G54D10*
X576449Y-318989D02*
X576449Y-309211D01*
G54D10*
X576449Y-315933D02*
X582316Y-309211D01*
G54D10*
X578649Y-314100D02*
X582316Y-318989D01*
G54D11*
X345330Y-312319D02*
X345930Y-311319D01*
X347130Y-310819D01*
X348330Y-310819D01*
X349530Y-311319D01*
X350130Y-312319D01*
X350130Y-313319D01*
X349530Y-314319D01*
X348330Y-314819D01*
X349530Y-315319D01*
X350130Y-316319D01*
X350130Y-317319D01*
X349530Y-318319D01*
X348330Y-318819D01*
X347130Y-318819D01*
X345930Y-318319D01*
X345330Y-317319D01*
G54D11*
X352330Y-312319D02*
X352930Y-311319D01*
X354130Y-310819D01*
X355330Y-310819D01*
X356530Y-311319D01*
X357130Y-312319D01*
X357130Y-313319D01*
X356530Y-314319D01*
X355330Y-314819D01*
X356530Y-315319D01*
X357130Y-316319D01*
X357130Y-317319D01*
X356530Y-318319D01*
X355330Y-318819D01*
X354130Y-318819D01*
X352930Y-318319D01*
X352330Y-317319D01*
G54D11*
X364130Y-312319D02*
X364130Y-317319D01*
X363530Y-318319D01*
X362330Y-318819D01*
X361130Y-318819D01*
X359930Y-318319D01*
X359330Y-317319D01*
X359330Y-312319D01*
X359930Y-311319D01*
X361130Y-310819D01*
X362330Y-310819D01*
X363530Y-311319D01*
X364130Y-312319D01*
G54D11*
X368730Y-314819D02*
X370530Y-315819D01*
X371130Y-316819D01*
X371130Y-318819D01*
G54D11*
X366330Y-318819D02*
X366330Y-310819D01*
X369330Y-310819D01*
X370530Y-311319D01*
X371130Y-312319D01*
X371130Y-313319D01*
X370530Y-314319D01*
X369330Y-314819D01*
X366330Y-314819D01*
G54D11*
X348533Y-363628D02*
X348533Y-368628D01*
X347933Y-369628D01*
X346733Y-370128D01*
X345533Y-370128D01*
X344333Y-369628D01*
X343733Y-368628D01*
X343733Y-363628D01*
X344333Y-362628D01*
X345533Y-362128D01*
X346733Y-362128D01*
X347933Y-362628D01*
X348533Y-363628D01*
G54D11*
X350733Y-370128D02*
X351213Y-370128D01*
X351213Y-369728D01*
X350733Y-369728D01*
X350733Y-370128D01*
G54D11*
X358213Y-363628D02*
X358213Y-368628D01*
X357613Y-369628D01*
X356413Y-370128D01*
X355213Y-370128D01*
X354013Y-369628D01*
X353413Y-368628D01*
X353413Y-363628D01*
X354013Y-362628D01*
X355213Y-362128D01*
X356413Y-362128D01*
X357613Y-362628D01*
X358213Y-363628D01*
G54D11*
X360413Y-365128D02*
X363413Y-362128D01*
X363413Y-370128D01*
G54D11*
X369213Y-365628D02*
X369213Y-370128D01*
G54D11*
X369213Y-369128D02*
X368613Y-369928D01*
X367413Y-370128D01*
X366213Y-369928D01*
X365613Y-369128D01*
X365613Y-365628D01*
G54D11*
X371413Y-370128D02*
X371413Y-362128D01*
X375613Y-362128D01*
G54D11*
X371413Y-366128D02*
X375613Y-366128D01*
G54D10*
X560602Y-381771D02*
X560602Y-376586D01*
X567516Y-383500D01*
G54D10*
X567948Y-371832D02*
X572270Y-376153D01*
X572616Y-377536D01*
X572010Y-379005D01*
X570973Y-380042D01*
X569504Y-380648D01*
X568121Y-380302D01*
X563800Y-375981D01*
X563454Y-374598D01*
X564059Y-373128D01*
X565096Y-372092D01*
X566566Y-371486D01*
X567948Y-371832D01*
G54D10*
X575468Y-375548D02*
X568554Y-368634D01*
G54D10*
X573307Y-373388D02*
X572702Y-364486D01*
G54D10*
X573566Y-370536D02*
X579616Y-371400D01*
G54D11*
X730055Y-331594D02*
X727055Y-328594D01*
X735055Y-328594D01*
G54D11*
X735055Y-326394D02*
X735055Y-325914D01*
X734655Y-325914D01*
X734655Y-326394D01*
X735055Y-326394D01*
G54D11*
X728555Y-318914D02*
X733555Y-318914D01*
X734555Y-319514D01*
X735055Y-320714D01*
X735055Y-321914D01*
X734555Y-323114D01*
X733555Y-323714D01*
X728555Y-323714D01*
X727555Y-323114D01*
X727055Y-321914D01*
X727055Y-320714D01*
X727555Y-319514D01*
X728555Y-318914D01*
G54D11*
X730555Y-313114D02*
X735055Y-313114D01*
G54D11*
X734055Y-313114D02*
X734855Y-313714D01*
X735055Y-314914D01*
X734855Y-316114D01*
X734055Y-316714D01*
X730555Y-316714D01*
G54D11*
X735055Y-310914D02*
X727055Y-310914D01*
X727055Y-306714D01*
G54D11*
X731055Y-310914D02*
X731055Y-306714D01*
G54D12*
X251348Y-91063D02*
X251348Y-82174D01*
X254682Y-82174D01*
X256015Y-82729D01*
X256682Y-83841D01*
X256682Y-84952D01*
X256015Y-86063D01*
X254682Y-86618D01*
X256015Y-87174D01*
X256682Y-88285D01*
X256682Y-89396D01*
X256015Y-90507D01*
X254682Y-91063D01*
X251348Y-91063D01*
G54D12*
X251348Y-86618D02*
X254682Y-86618D01*
G54D12*
X264459Y-89396D02*
X263792Y-90507D01*
X262459Y-91063D01*
X261125Y-91063D01*
X259792Y-90507D01*
X259125Y-89396D01*
X259125Y-83841D01*
X259792Y-82729D01*
X261125Y-82174D01*
X262459Y-82174D01*
X263792Y-82729D01*
X264459Y-83841D01*
G54D12*
X270236Y-86618D02*
X268902Y-86618D01*
X267569Y-86063D01*
X266902Y-84952D01*
X266902Y-83841D01*
X267569Y-82729D01*
X268902Y-82174D01*
X270236Y-82174D01*
X271569Y-82729D01*
X272236Y-83841D01*
X272236Y-84952D01*
X271569Y-86063D01*
X270236Y-86618D01*
X271569Y-87174D01*
X272236Y-88285D01*
X272236Y-89396D01*
X271569Y-90507D01*
X270236Y-91063D01*
X268902Y-91063D01*
X267569Y-90507D01*
X266902Y-89396D01*
X266902Y-88285D01*
X267569Y-87174D01*
X268902Y-86618D01*
G54D12*
X274679Y-85507D02*
X278013Y-82174D01*
X278013Y-91063D01*
G54D12*
X280456Y-82174D02*
X285790Y-82174D01*
X285123Y-83285D01*
X283790Y-84952D01*
X282456Y-87174D01*
X281790Y-88841D01*
X281790Y-91063D01*
G54D13*
X543021Y-202424D02*
X591270Y-202424D01*
X591270Y-249121D01*
X543021Y-249121D01*
X543021Y-202424D01*
G54D12*
X548847Y-262044D02*
X548847Y-253155D01*
X552180Y-253156D01*
X553513Y-253711D01*
X554180Y-254822D01*
X554180Y-255933D01*
X553513Y-257044D01*
X552180Y-257600D01*
X553513Y-258155D01*
X554180Y-259267D01*
X554180Y-260378D01*
X553513Y-261489D01*
X552180Y-262044D01*
X548847Y-262044D01*
G54D12*
X548847Y-257600D02*
X552180Y-257600D01*
G54D12*
X561957Y-260378D02*
X561290Y-261489D01*
X559957Y-262044D01*
X558624Y-262044D01*
X557290Y-261489D01*
X556624Y-260378D01*
X556624Y-254822D01*
X557290Y-253711D01*
X558624Y-253155D01*
X559957Y-253156D01*
X561290Y-253711D01*
X561957Y-254822D01*
G54D12*
X567734Y-257600D02*
X566401Y-257600D01*
X565068Y-257044D01*
X564401Y-255933D01*
X564401Y-254822D01*
X565068Y-253711D01*
X566401Y-253156D01*
X567734Y-253155D01*
X569067Y-253711D01*
X569734Y-254822D01*
X569734Y-255933D01*
X569067Y-257044D01*
X567734Y-257600D01*
X569067Y-258155D01*
X569734Y-259267D01*
X569734Y-260378D01*
X569067Y-261489D01*
X567734Y-262044D01*
X566401Y-262044D01*
X565068Y-261489D01*
X564401Y-260378D01*
X564401Y-259267D01*
X565068Y-258155D01*
X566401Y-257600D01*
G54D12*
X572178Y-256489D02*
X575511Y-253155D01*
X575511Y-262044D01*
G54D12*
X577955Y-253156D02*
X583288Y-253155D01*
X582622Y-254267D01*
X581288Y-255933D01*
X579955Y-258155D01*
X579288Y-259822D01*
X579288Y-262044D01*
G54D12*
X546000Y-229412D02*
X546000Y-220523D01*
X549333Y-220523D01*
X550667Y-221078D01*
X551333Y-222189D01*
X551333Y-223301D01*
X550667Y-224412D01*
X549333Y-224967D01*
X550667Y-225523D01*
X551333Y-226634D01*
X551333Y-227745D01*
X550667Y-228856D01*
X549333Y-229412D01*
X546000Y-229412D01*
G54D12*
X546000Y-224967D02*
X549333Y-224967D01*
G54D12*
X588196Y-233917D02*
X583529Y-233917D01*
X583529Y-225028D01*
X588196Y-225028D01*
G54D12*
X583529Y-229473D02*
X588196Y-229473D01*
G54D12*
X559172Y-213075D02*
X558505Y-214186D01*
X557172Y-214742D01*
X555838Y-214742D01*
X554505Y-214186D01*
X553838Y-213075D01*
X553838Y-207520D01*
X554505Y-206408D01*
X555838Y-205853D01*
X557172Y-205853D01*
X558505Y-206408D01*
X559172Y-207520D01*
G54D12*
X280462Y-137679D02*
X271573Y-137679D01*
X271573Y-134346D01*
X272128Y-133013D01*
X273239Y-132346D01*
X274350Y-132346D01*
X275462Y-133013D01*
X276017Y-134346D01*
X276573Y-133013D01*
X277684Y-132346D01*
X278795Y-132346D01*
X279906Y-133013D01*
X280462Y-134346D01*
X280462Y-137679D01*
G54D12*
X276017Y-137679D02*
X276017Y-134346D01*
G54D12*
X289724Y-91217D02*
X289724Y-95883D01*
X298613Y-95883D01*
X298613Y-91217D01*
G54D12*
X294169Y-95883D02*
X294169Y-91217D01*
G54D10*
X300110Y-125987D02*
X303776Y-122320D01*
X303776Y-132098D01*
G54D10*
X306466Y-132098D02*
X306466Y-122320D01*
G54D10*
X306466Y-129042D02*
X312332Y-122320D01*
G54D10*
X308666Y-127209D02*
X312332Y-132098D01*
G54D13*
X242404Y-94069D02*
X286322Y-94069D01*
X286322Y-130358D01*
X242404Y-130358D01*
X242404Y-94069D01*
G54D13*
X596474Y-380422D02*
X574023Y-402873D01*
X540347Y-369197D01*
X562798Y-346746D01*
X596474Y-380422D01*
G54D13*
X589121Y-340005D02*
X557371Y-340005D01*
X557371Y-292380D01*
X589121Y-292380D01*
X589121Y-340005D01*
G54D13*
X341680Y-341266D02*
X373430Y-341266D01*
X373430Y-388891D01*
X341680Y-388890D01*
X341680Y-341266D01*
G54D13*
X341767Y-291540D02*
X373517Y-291540D01*
X373517Y-339165D01*
X341767Y-339165D01*
X341767Y-291540D01*
G54D12*
X252460Y-98168D02*
X253571Y-98835D01*
X254127Y-100168D01*
X254127Y-101502D01*
X253571Y-102835D01*
X252460Y-103502D01*
X246904Y-103502D01*
X245793Y-102835D01*
X245238Y-101502D01*
X245238Y-100168D01*
X245793Y-98835D01*
X246904Y-98168D01*
G54D13*
X283123Y-144070D02*
X283123Y-112320D01*
X330748Y-112320D01*
X330748Y-144070D01*
X283123Y-144070D01*
G54D13*
X354774Y-508950D02*
X354774Y-477200D01*
X402400Y-477200D01*
X402400Y-508950D01*
X354774Y-508950D01*
G54D13*
X707172Y-334326D02*
X707173Y-302576D01*
X754798Y-302576D01*
X754798Y-334326D01*
X707172Y-334326D01*
G54D13*
X621451Y-507518D02*
X599001Y-529968D01*
X565325Y-496292D01*
X587775Y-473842D01*
X621451Y-507518D01*
G54D10*
X581589Y-508548D02*
X581243Y-507165D01*
X581848Y-505696D01*
X582885Y-504659D01*
X584355Y-504054D01*
X585737Y-504400D01*
X586602Y-505264D01*
X586947Y-506647D01*
X586342Y-508116D01*
X587812Y-507511D01*
X589194Y-507857D01*
X590059Y-508721D01*
X590404Y-510104D01*
X589799Y-511573D01*
X588762Y-512610D01*
X587293Y-513215D01*
X585910Y-512869D01*
G54D10*
X593257Y-508116D02*
X593671Y-507701D01*
X593326Y-507355D01*
X592911Y-507770D01*
X593257Y-508116D01*
G54D10*
X594277Y-504503D02*
X595660Y-504848D01*
X597129Y-504244D01*
X598166Y-503206D01*
X598771Y-501737D01*
X598425Y-500354D01*
X596265Y-498194D01*
X595832Y-497762D01*
X595141Y-500182D01*
X594104Y-501219D01*
X592635Y-501824D01*
X591252Y-501478D01*
X589956Y-500182D01*
X589610Y-498799D01*
X590215Y-497330D01*
X591252Y-496292D01*
X592721Y-495688D01*
X594104Y-496033D01*
X596265Y-498194D01*
G54D10*
X601623Y-499749D02*
X594709Y-492835D01*
G54D10*
X599462Y-497588D02*
X598858Y-488687D01*
G54D10*
X599722Y-494737D02*
X605772Y-495601D01*
G54D11*
X835911Y-461985D02*
X835175Y-457807D01*
X841728Y-462396D01*
G54D11*
X842990Y-460594D02*
X843265Y-460200D01*
X842938Y-459971D01*
X842662Y-460364D01*
X842990Y-460594D01*
G54D11*
X841956Y-450738D02*
X846051Y-453606D01*
X846526Y-454671D01*
X846248Y-455941D01*
X845559Y-456924D01*
X844462Y-457620D01*
X843298Y-457538D01*
X839202Y-454670D01*
X838727Y-453605D01*
X839006Y-452335D01*
X839694Y-451352D01*
X840792Y-450656D01*
X841956Y-450738D01*
G54D11*
X846921Y-447134D02*
X850607Y-449715D01*
G54D11*
X849787Y-449142D02*
X850099Y-450092D01*
X849574Y-451190D01*
X848722Y-452058D01*
X847723Y-452090D01*
X844856Y-450083D01*
G54D11*
X851869Y-447913D02*
X845315Y-443324D01*
X847725Y-439884D01*
G54D11*
X848592Y-445619D02*
X851001Y-442178D01*
G54D13*
X815223Y-451474D02*
X833434Y-425466D01*
X872446Y-452782D01*
X854235Y-478790D01*
X815223Y-451474D01*
G54D10*
X504508Y-469707D02*
X504508Y-464522D01*
X511422Y-471436D01*
G54D10*
X511854Y-459768D02*
X516175Y-464089D01*
X516521Y-465472D01*
X515916Y-466941D01*
X514879Y-467978D01*
X513410Y-468584D01*
X512027Y-468238D01*
X507706Y-463917D01*
X507360Y-462534D01*
X507965Y-461065D01*
X509002Y-460027D01*
X510471Y-459422D01*
X511854Y-459768D01*
G54D10*
X519373Y-463484D02*
X512459Y-456570D01*
G54D10*
X517212Y-461324D02*
X516608Y-452422D01*
G54D10*
X517472Y-458472D02*
X523522Y-459336D01*
G54D13*
X542009Y-467448D02*
X519558Y-489899D01*
X485882Y-456223D01*
X508333Y-433772D01*
X542009Y-467448D01*
G54D10*
X536880Y-519367D02*
X531013Y-519367D01*
X531013Y-518755D01*
X531746Y-517533D01*
X536146Y-513866D01*
X536880Y-512644D01*
X536880Y-511422D01*
X536146Y-510200D01*
X534680Y-509589D01*
X533213Y-509589D01*
X531746Y-510200D01*
X531013Y-511422D01*
G54D10*
X539569Y-519367D02*
X539569Y-509589D01*
G54D10*
X539569Y-516311D02*
X545436Y-509589D01*
G54D10*
X541769Y-514478D02*
X545436Y-519367D01*
G54D13*
X554523Y-537626D02*
X522772Y-537625D01*
X522773Y-490000D01*
X554522Y-490000D01*
X554523Y-537626D01*
G54D10*
X451564Y-285945D02*
X455230Y-282279D01*
X455230Y-292056D01*
G54D10*
X457920Y-292056D02*
X457920Y-282279D01*
G54D10*
X457920Y-289001D02*
X463786Y-282279D01*
G54D10*
X460120Y-287168D02*
X463786Y-292056D01*
G54D13*
X472463Y-263381D02*
X440713Y-263381D01*
X440713Y-311006D01*
X472463Y-311006D01*
X472463Y-263381D01*
G54D13*
X598404Y-115133D02*
X566654Y-115133D01*
X566654Y-67508D01*
X598404Y-67508D01*
X598404Y-115133D01*
G54D13*
X251833Y-415836D02*
X220083Y-415836D01*
X220083Y-368211D01*
X251833Y-368211D01*
X251833Y-415836D01*
G54D11*
X223913Y-390849D02*
X224513Y-389849D01*
X225714Y-389349D01*
X226914Y-389349D01*
X228114Y-389849D01*
X228713Y-390849D01*
X228714Y-391849D01*
X228114Y-392849D01*
X226913Y-393349D01*
X228114Y-393849D01*
X228714Y-394849D01*
X228713Y-395849D01*
X228113Y-396849D01*
X226913Y-397349D01*
X225714Y-397349D01*
X224514Y-396849D01*
X223913Y-395849D01*
G54D11*
X230914Y-390849D02*
X231514Y-389849D01*
X232714Y-389349D01*
X233914Y-389349D01*
X235113Y-389849D01*
X235713Y-390849D01*
X235714Y-391849D01*
X235114Y-392849D01*
X233913Y-393349D01*
X235114Y-393849D01*
X235713Y-394849D01*
X235713Y-395849D01*
X235113Y-396849D01*
X233914Y-397349D01*
X232714Y-397349D01*
X231514Y-396849D01*
X230914Y-395849D01*
G54D11*
X242713Y-390849D02*
X242713Y-395849D01*
X242113Y-396849D01*
X240914Y-397349D01*
X239713Y-397349D01*
X238513Y-396849D01*
X237914Y-395849D01*
X237914Y-390849D01*
X238514Y-389849D01*
X239714Y-389349D01*
X240914Y-389349D01*
X242113Y-389849D01*
X242713Y-390849D01*
G54D11*
X247313Y-393349D02*
X249114Y-394349D01*
X249713Y-395349D01*
X249714Y-397349D01*
G54D11*
X244914Y-397349D02*
X244913Y-389349D01*
X247914Y-389349D01*
X249113Y-389849D01*
X249714Y-390849D01*
X249713Y-391849D01*
X249114Y-392849D01*
X247913Y-393349D01*
X244914Y-393349D01*
G54D10*
X157322Y-193881D02*
X151456Y-193881D01*
X151456Y-193270D01*
X152189Y-192048D01*
X156589Y-188381D01*
X157322Y-187159D01*
X157322Y-185937D01*
X156589Y-184715D01*
X155122Y-184104D01*
X153656Y-184104D01*
X152189Y-184715D01*
X151456Y-185937D01*
G54D10*
X160012Y-193881D02*
X160012Y-184104D01*
G54D10*
X160012Y-190826D02*
X165878Y-184104D01*
G54D10*
X162212Y-188992D02*
X165878Y-193881D01*
G54D13*
X178209Y-212139D02*
X146459Y-212139D01*
X146459Y-164514D01*
X178209Y-164514D01*
X178209Y-212139D01*
G54D10*
X342485Y-284295D02*
X338818Y-280628D01*
X348596Y-280628D01*
G54D10*
X340652Y-272072D02*
X346763Y-272072D01*
X347985Y-272805D01*
X348596Y-274272D01*
X348596Y-275739D01*
X347985Y-277205D01*
X346763Y-277939D01*
X340652Y-277939D01*
X339430Y-277205D01*
X338818Y-275739D01*
X338818Y-274272D01*
X339430Y-272805D01*
X340652Y-272072D01*
G54D10*
X348596Y-269383D02*
X338818Y-269383D01*
G54D10*
X345541Y-269383D02*
X338818Y-263516D01*
G54D10*
X343707Y-267183D02*
X348596Y-263516D01*
G54D13*
X317802Y-256711D02*
X317802Y-288461D01*
X365427Y-288461D01*
X365427Y-256711D01*
X317802Y-256711D01*
G54D12*
X316022Y-314755D02*
X314911Y-314088D01*
X314355Y-312755D01*
X314355Y-311422D01*
X314911Y-310088D01*
X316022Y-309422D01*
X317133Y-309422D01*
X318244Y-310088D01*
X318800Y-311422D01*
X319355Y-310088D01*
X320466Y-309422D01*
X321577Y-309422D01*
X322688Y-310088D01*
X323244Y-311422D01*
X323244Y-312755D01*
X322688Y-314088D01*
X321577Y-314755D01*
G54D12*
X323244Y-306978D02*
X323244Y-306445D01*
X322800Y-306445D01*
X322800Y-306978D01*
X323244Y-306978D01*
G54D12*
X321577Y-304001D02*
X322688Y-303334D01*
X323244Y-302001D01*
X323244Y-300668D01*
X322688Y-299334D01*
X321577Y-298668D01*
X318800Y-298668D01*
X318244Y-298668D01*
X319355Y-300668D01*
X319355Y-302001D01*
X318800Y-303334D01*
X317688Y-304001D01*
X316022Y-304001D01*
X314911Y-303334D01*
X314355Y-302001D01*
X314355Y-300668D01*
X314911Y-299334D01*
X316022Y-298668D01*
X318800Y-298668D01*
G54D12*
X323244Y-296224D02*
X314355Y-296224D01*
G54D12*
X320466Y-296224D02*
X314355Y-290891D01*
G54D12*
X318800Y-294224D02*
X323244Y-290891D01*
G54D13*
X344260Y-287171D02*
X344260Y-318921D01*
X296635Y-318921D01*
X296635Y-287171D01*
X344260Y-287171D01*
G54D12*
X355898Y-469141D02*
X352564Y-465808D01*
X361453Y-465808D01*
G54D12*
X354231Y-458031D02*
X359787Y-458031D01*
X360898Y-458698D01*
X361453Y-460031D01*
X361453Y-461364D01*
X360898Y-462698D01*
X359787Y-463364D01*
X354231Y-463364D01*
X353120Y-462698D01*
X352564Y-461364D01*
X352564Y-460031D01*
X353120Y-458698D01*
X354231Y-458031D01*
G54D12*
X361453Y-455587D02*
X352564Y-455587D01*
G54D12*
X358675Y-455587D02*
X352564Y-450254D01*
G54D12*
X357009Y-453587D02*
X361453Y-450254D01*
G54D13*
X381068Y-443173D02*
X381068Y-474923D01*
X333443Y-474923D01*
X333443Y-443173D01*
X381068Y-443173D01*
G54D10*
X44019Y-125373D02*
X40352Y-121706D01*
X50130Y-121706D01*
G54D10*
X42185Y-113150D02*
X48296Y-113150D01*
X49519Y-113883D01*
X50130Y-115350D01*
X50130Y-116817D01*
X49519Y-118284D01*
X48296Y-119017D01*
X42185Y-119017D01*
X40963Y-118284D01*
X40352Y-116817D01*
X40352Y-115350D01*
X40963Y-113883D01*
X42185Y-113150D01*
G54D10*
X50130Y-110461D02*
X40352Y-110461D01*
G54D10*
X47074Y-110461D02*
X40352Y-104594D01*
G54D10*
X45241Y-108261D02*
X50130Y-104594D01*
G54D13*
X71146Y-97789D02*
X71146Y-129539D01*
X23521Y-129539D01*
X23521Y-97789D01*
X71146Y-97789D01*
G54D13*
X171745Y-447101D02*
X139995Y-447100D01*
X139995Y-399476D01*
X171745Y-399475D01*
X171745Y-447101D01*
G54D10*
X145475Y-426947D02*
X145475Y-417780D01*
X146209Y-417169D01*
X146942Y-417536D01*
G54D10*
X144009Y-421447D02*
X146942Y-421447D01*
G54D10*
X154031Y-421447D02*
X154031Y-426947D01*
G54D10*
X154031Y-425725D02*
X153297Y-426703D01*
X151831Y-426947D01*
X150364Y-426703D01*
X149631Y-425725D01*
X149631Y-421447D01*
G54D10*
X156720Y-426336D02*
X158187Y-426947D01*
X159653Y-426947D01*
X161120Y-426336D01*
X161120Y-425114D01*
X160386Y-424503D01*
X157453Y-423892D01*
X156720Y-423280D01*
X156720Y-422058D01*
X158186Y-421447D01*
X159653Y-421447D01*
X161120Y-422058D01*
G54D10*
X168209Y-426336D02*
X167036Y-426947D01*
X165569Y-426947D01*
X164102Y-426336D01*
X163809Y-425114D01*
X163809Y-423036D01*
X164542Y-421814D01*
X166009Y-421447D01*
X167476Y-421814D01*
X168209Y-422669D01*
X168209Y-423892D01*
X163809Y-423892D01*
G54D13*
X343620Y-233246D02*
X295371Y-233246D01*
X295370Y-186549D01*
X343620Y-186549D01*
X343620Y-233246D01*
G54D12*
X335917Y-215399D02*
X335917Y-206510D01*
X339250Y-206510D01*
X340584Y-207066D01*
X341250Y-208177D01*
X341250Y-209288D01*
X340584Y-210399D01*
X339251Y-210955D01*
X340584Y-211510D01*
X341250Y-212622D01*
X341250Y-213733D01*
X340584Y-214844D01*
X339250Y-215399D01*
X335917Y-215399D01*
G54D12*
X335917Y-210955D02*
X339251Y-210955D01*
G54D12*
X303149Y-210626D02*
X298483Y-210626D01*
X298483Y-201738D01*
X303149Y-201738D01*
G54D12*
X298483Y-206182D02*
X303149Y-206182D01*
G54D12*
X332838Y-228136D02*
X332171Y-229247D01*
X330838Y-229802D01*
X329504Y-229802D01*
X328171Y-229247D01*
X327504Y-228136D01*
X327504Y-222580D01*
X328171Y-221469D01*
X329504Y-220914D01*
X330838Y-220914D01*
X332171Y-221469D01*
X332838Y-222580D01*
G54D12*
X376722Y-204057D02*
X373388Y-200724D01*
X382277Y-200724D01*
G54D12*
X382277Y-198280D02*
X373388Y-198280D01*
G54D12*
X379500Y-198280D02*
X373388Y-192947D01*
G54D12*
X377833Y-196280D02*
X382277Y-192947D01*
G54D13*
X401333Y-182403D02*
X401333Y-214153D01*
X353708Y-214153D01*
X353708Y-182402D01*
X401333Y-182403D01*
G54D12*
X327903Y-245799D02*
X327903Y-236910D01*
X331237Y-236910D01*
X332570Y-237465D01*
X333237Y-238577D01*
X333237Y-239688D01*
X332570Y-240799D01*
X331237Y-241354D01*
X332570Y-241910D01*
X333237Y-243021D01*
X333237Y-244132D01*
X332570Y-245243D01*
X331237Y-245799D01*
X327903Y-245799D01*
G54D12*
X327903Y-241354D02*
X331237Y-241354D01*
G54D12*
X341014Y-244132D02*
X340347Y-245243D01*
X339014Y-245799D01*
X337680Y-245799D01*
X336347Y-245243D01*
X335680Y-244132D01*
X335680Y-238577D01*
X336347Y-237465D01*
X337680Y-236910D01*
X339014Y-236910D01*
X340347Y-237465D01*
X341014Y-238577D01*
G54D12*
X346791Y-241354D02*
X345457Y-241354D01*
X344124Y-240799D01*
X343457Y-239688D01*
X343457Y-238577D01*
X344124Y-237465D01*
X345457Y-236910D01*
X346791Y-236910D01*
X348124Y-237465D01*
X348791Y-238577D01*
X348791Y-239688D01*
X348124Y-240799D01*
X346791Y-241354D01*
X348124Y-241910D01*
X348791Y-243021D01*
X348791Y-244132D01*
X348124Y-245243D01*
X346791Y-245799D01*
X345457Y-245799D01*
X344124Y-245243D01*
X343457Y-244132D01*
X343457Y-243021D01*
X344124Y-241910D01*
X345457Y-241354D01*
G54D12*
X351234Y-240243D02*
X354568Y-236910D01*
X354568Y-245799D01*
G54D12*
X357011Y-236910D02*
X362345Y-236910D01*
X361678Y-238021D01*
X360345Y-239688D01*
X359011Y-241910D01*
X358345Y-243577D01*
X358345Y-245799D01*
M02*
