%FSLAX34Y34*%
%MOMM*%
%LNCOPPER_BOTTOM*%
G71*
G01*
%ADD10C, 2.90*%
%ADD11C, 3.60*%
%ADD12C, 2.30*%
%ADD13C, 4.80*%
%ADD14C, 2.80*%
%ADD15C, 1.80*%
%ADD16C, 3.20*%
%ADD17C, 1.70*%
%ADD18C, 2.00*%
%ADD19C, 2.30*%
%ADD20R, 1.80X2.80*%
%ADD21C, 1.50*%
%ADD22R, 2.80X1.80*%
%ADD23C, 1.60*%
%ADD24R, 2.20X2.80*%
%ADD25R, 3.82X2.78*%
%ADD26C, 2.10*%
%ADD27C, 2.80*%
%ADD28C, 4.00*%
%ADD29C, 2.20*%
%ADD30C, 1.00*%
%ADD31C, 2.40*%
%ADD32C, 0.90*%
%ADD33C, 1.20*%
%ADD34C, 1.50*%
%ADD35R, 1.00X2.00*%
%ADD36C, 0.70*%
%ADD37R, 2.00X1.00*%
%ADD38C, 0.80*%
%ADD39R, 1.40X2.00*%
%ADD40R, 3.02X1.98*%
%ADD41C, 2.50*%
%ADD42C, 0.40*%
%LPD*%
G36*
X-128Y-958D02*
X959872Y-958D01*
X959872Y-560958D01*
X-128Y-560958D01*
X-128Y-958D01*
G37*
%LPC*%
X163384Y-134524D02*
G54D10*
D03*
X163384Y-159924D02*
G54D10*
D03*
X241171Y-134524D02*
G54D10*
D03*
X241171Y-159924D02*
G54D10*
D03*
X426292Y-437813D02*
G54D10*
D03*
X426292Y-412413D02*
G54D10*
D03*
X426292Y-387013D02*
G54D10*
D03*
X426292Y-361613D02*
G54D10*
D03*
X426292Y-234613D02*
G54D10*
D03*
X426292Y-209213D02*
G54D10*
D03*
X426292Y-183813D02*
G54D10*
D03*
X426292Y-158413D02*
G54D10*
D03*
X273892Y-437813D02*
G54D10*
D03*
X273892Y-412413D02*
G54D10*
D03*
X273892Y-387013D02*
G54D10*
D03*
X273892Y-361613D02*
G54D10*
D03*
X273892Y-234613D02*
G54D10*
D03*
X273892Y-209213D02*
G54D10*
D03*
X273892Y-183813D02*
G54D10*
D03*
X273892Y-158413D02*
G54D10*
D03*
X426292Y-336213D02*
G54D10*
D03*
X273892Y-336213D02*
G54D10*
D03*
X426292Y-310813D02*
G54D10*
D03*
X273892Y-310813D02*
G54D10*
D03*
X426292Y-285413D02*
G54D10*
D03*
X273892Y-285413D02*
G54D10*
D03*
X426292Y-260013D02*
G54D10*
D03*
X273892Y-260013D02*
G54D10*
D03*
X531721Y-342424D02*
G54D10*
D03*
X607921Y-342424D02*
G54D10*
D03*
X531721Y-367824D02*
G54D10*
D03*
X531721Y-393224D02*
G54D10*
D03*
X531721Y-418624D02*
G54D10*
D03*
X607921Y-367824D02*
G54D10*
D03*
X607921Y-393224D02*
G54D10*
D03*
X607921Y-418624D02*
G54D10*
D03*
X208743Y-421386D02*
G54D10*
D03*
X234143Y-421386D02*
G54D10*
D03*
X208743Y-342012D02*
G54D10*
D03*
X234143Y-342011D02*
G54D10*
D03*
X383897Y-356018D02*
G54D10*
D03*
X383897Y-330618D02*
G54D10*
D03*
X307697Y-356018D02*
G54D10*
D03*
X307697Y-330618D02*
G54D10*
D03*
X677116Y-86184D02*
G54D10*
D03*
X727916Y-86184D02*
G54D10*
D03*
X677116Y-111584D02*
G54D10*
D03*
X677116Y-136984D02*
G54D10*
D03*
X727916Y-111584D02*
G54D10*
D03*
X727916Y-136984D02*
G54D10*
D03*
X677116Y-187784D02*
G54D10*
D03*
X727916Y-187784D02*
G54D10*
D03*
X889034Y-357853D02*
G54D11*
D03*
X889034Y-413653D02*
G54D11*
D03*
X299292Y-158413D02*
G54D10*
D03*
X324692Y-158413D02*
G54D10*
D03*
X350092Y-158413D02*
G54D10*
D03*
X375492Y-158413D02*
G54D10*
D03*
X400892Y-158413D02*
G54D10*
D03*
G54D12*
X156627Y-532922D02*
X156705Y-464332D01*
X889875Y-167523D02*
G54D11*
D03*
X889895Y-225358D02*
G54D11*
D03*
X552621Y-84524D02*
G54D10*
D03*
X552621Y-109924D02*
G54D10*
D03*
X552621Y-135324D02*
G54D10*
D03*
X552621Y-160724D02*
G54D10*
D03*
X552621Y-186124D02*
G54D10*
D03*
X771709Y-59090D02*
G54D10*
D03*
X771709Y-84490D02*
G54D10*
D03*
X771709Y-109890D02*
G54D10*
D03*
X771709Y-135290D02*
G54D10*
D03*
X771709Y-160690D02*
G54D10*
D03*
X771709Y-186090D02*
G54D10*
D03*
X917675Y-523068D02*
G54D13*
D03*
X67391Y-145595D02*
G54D14*
D03*
X67391Y-175595D02*
G54D14*
D03*
X67391Y-205595D02*
G54D14*
D03*
X67391Y-235595D02*
G54D14*
D03*
X67391Y-265595D02*
G54D14*
D03*
X67391Y-295595D02*
G54D14*
D03*
X67391Y-325595D02*
G54D14*
D03*
X67391Y-355595D02*
G54D14*
D03*
X67391Y-385595D02*
G54D14*
D03*
X67391Y-415595D02*
G54D14*
D03*
X97391Y-145595D02*
G54D14*
D03*
X97391Y-175595D02*
G54D14*
D03*
X97391Y-205595D02*
G54D14*
D03*
X97391Y-235595D02*
G54D14*
D03*
X97391Y-265595D02*
G54D14*
D03*
X97391Y-295595D02*
G54D14*
D03*
X97391Y-325595D02*
G54D14*
D03*
X97391Y-355595D02*
G54D14*
D03*
X97391Y-385595D02*
G54D14*
D03*
X97391Y-415595D02*
G54D14*
D03*
G54D15*
X203142Y-133953D02*
X203142Y-21824D01*
X34051Y-81261D02*
G54D10*
D03*
X156595Y-81182D02*
G54D10*
D03*
X917299Y-43346D02*
G54D13*
D03*
X660856Y-281119D02*
G54D16*
D03*
X800414Y-467476D02*
G54D16*
D03*
X660579Y-467468D02*
G54D16*
D03*
X800592Y-281053D02*
G54D16*
D03*
X43183Y-522176D02*
G54D13*
D03*
G54D17*
X305642Y-240963D02*
X305642Y-261597D01*
X343917Y-299872D01*
X343917Y-472178D01*
X325909Y-490186D01*
X272336Y-490186D01*
X248419Y-466269D01*
X218382Y-466270D01*
X187920Y-435975D01*
X175642Y-423697D01*
X131192Y-423697D01*
X93092Y-458622D01*
X58167Y-458622D01*
X29592Y-430047D01*
X29592Y-318922D01*
X51817Y-296697D01*
X66289Y-296697D01*
X67391Y-295595D01*
G54D18*
X306116Y-23504D02*
X306116Y-107059D01*
X321353Y-435094D02*
G54D19*
D03*
X320853Y-401294D02*
G54D19*
D03*
G54D15*
X320853Y-401294D02*
X320853Y-434594D01*
X321353Y-435094D01*
X156705Y-464332D02*
G54D19*
D03*
X156627Y-532922D02*
G54D19*
D03*
X505002Y-241365D02*
G54D19*
D03*
X306116Y-107059D02*
G54D19*
D03*
X306116Y-23504D02*
G54D19*
D03*
X202728Y-22425D02*
G54D19*
D03*
X203071Y-134524D02*
G54D19*
D03*
X305642Y-240963D02*
G54D19*
D03*
X242920Y-515679D02*
G54D20*
D03*
X209120Y-516179D02*
G54D20*
D03*
X343952Y-501172D02*
G54D19*
D03*
G54D15*
X343952Y-501172D02*
X343497Y-501172D01*
X329256Y-515413D01*
X243187Y-515413D01*
X242920Y-515679D01*
X184304Y-501624D02*
G54D19*
D03*
G54D15*
X209120Y-516179D02*
X198860Y-516179D01*
X184304Y-501624D01*
X367071Y-435053D02*
G54D19*
D03*
X366571Y-401253D02*
G54D19*
D03*
G54D15*
X366571Y-401253D02*
X366571Y-434553D01*
X367071Y-435053D01*
X42807Y-42455D02*
G54D13*
D03*
X17427Y-157146D02*
G54D19*
D03*
X159833Y-40408D02*
G54D19*
D03*
G54D21*
X17427Y-157146D02*
X17427Y-125448D01*
X38790Y-104086D01*
X61664Y-104086D01*
X125406Y-40343D01*
X159767Y-40343D01*
X159833Y-40408D01*
X32180Y-191910D02*
G54D19*
D03*
G54D21*
X156627Y-532922D02*
X139221Y-532922D01*
X79375Y-473075D01*
X53975Y-473075D01*
X15875Y-434975D01*
X15875Y-307975D01*
X31750Y-292100D01*
X31750Y-192340D01*
X32180Y-191910D01*
X748544Y-376730D02*
G54D20*
D03*
X714744Y-377230D02*
G54D20*
D03*
G36*
X316430Y-443908D02*
X334430Y-443908D01*
X334430Y-471908D01*
X316430Y-471908D01*
X316430Y-443908D01*
G37*
G36*
X350230Y-443408D02*
X368230Y-443408D01*
X368231Y-471408D01*
X350231Y-471408D01*
X350230Y-443408D01*
G37*
G54D15*
X325430Y-457908D02*
X318208Y-457908D01*
X298450Y-438150D01*
X274229Y-438150D01*
X273892Y-437813D01*
G54D15*
X359230Y-457408D02*
X561767Y-457408D01*
X587375Y-431800D01*
X587375Y-349250D01*
X593725Y-342900D01*
X607445Y-342900D01*
X607921Y-342424D01*
X524450Y-214724D02*
G54D19*
D03*
G36*
X463177Y-115590D02*
X481177Y-115590D01*
X481178Y-143590D01*
X463178Y-143590D01*
X463177Y-115590D01*
G37*
G36*
X496977Y-115090D02*
X514977Y-115090D01*
X514978Y-143090D01*
X496978Y-143090D01*
X496977Y-115090D01*
G37*
G36*
X463177Y-166390D02*
X481177Y-166390D01*
X481178Y-194390D01*
X463178Y-194390D01*
X463177Y-166390D01*
G37*
G36*
X496977Y-165890D02*
X514977Y-165890D01*
X514978Y-193890D01*
X496978Y-193890D01*
X496977Y-165890D01*
G37*
G36*
X463177Y-201315D02*
X481177Y-201315D01*
X481178Y-229315D01*
X463178Y-229315D01*
X463177Y-201315D01*
G37*
G36*
X496977Y-200815D02*
X514977Y-200815D01*
X514978Y-228815D01*
X496978Y-228815D01*
X496977Y-200815D01*
G37*
X400908Y-119495D02*
G54D22*
D03*
X400408Y-85695D02*
G54D22*
D03*
G54D23*
X400892Y-158413D02*
X400908Y-119495D01*
G54D23*
X400408Y-85695D02*
X304830Y-85695D01*
X304800Y-85725D01*
G54D15*
X426292Y-158413D02*
X426292Y-145208D01*
X441325Y-130175D01*
X471592Y-130175D01*
X472177Y-129590D01*
G54D15*
X505977Y-129090D02*
X517586Y-129090D01*
X536487Y-110189D01*
X552356Y-110189D01*
X552621Y-109924D01*
G54D15*
X552621Y-135324D02*
X540951Y-135324D01*
X523875Y-152400D01*
X523875Y-174625D01*
X517525Y-180975D01*
X507062Y-180975D01*
X505977Y-179890D01*
G54D15*
X426292Y-209213D02*
X450513Y-209213D01*
X457200Y-215900D01*
X471592Y-215900D01*
X472177Y-215315D01*
G54D15*
X472177Y-180390D02*
X454610Y-180390D01*
X450850Y-184150D01*
X426629Y-184150D01*
X426292Y-183813D01*
G54D15*
X505977Y-214815D02*
X524359Y-214815D01*
X524450Y-214724D01*
G54D15*
X531721Y-342424D02*
X505002Y-342424D01*
X505002Y-241365D01*
G36*
X480072Y-292483D02*
X498072Y-292483D01*
X498072Y-320483D01*
X480072Y-320483D01*
X480072Y-292483D01*
G37*
G36*
X513872Y-291983D02*
X531872Y-291983D01*
X531872Y-319983D01*
X513872Y-319983D01*
X513872Y-291983D01*
G37*
G54D15*
X489072Y-306483D02*
X483183Y-306483D01*
X453143Y-336524D01*
X426603Y-336524D01*
X426292Y-336213D01*
G54D15*
X522872Y-271058D02*
X522870Y-247689D01*
X608887Y-247616D01*
G36*
X480072Y-257558D02*
X498072Y-257558D01*
X498072Y-285558D01*
X480072Y-285558D01*
X480072Y-257558D01*
G37*
G36*
X513872Y-257058D02*
X531872Y-257058D01*
X531872Y-285058D01*
X513872Y-285058D01*
X513872Y-257058D01*
G37*
G54D15*
X489072Y-271558D02*
X503333Y-271558D01*
X504825Y-273050D01*
G54D15*
X522872Y-305983D02*
X522872Y-271058D01*
G54D15*
X607921Y-367824D02*
X628174Y-367824D01*
X638175Y-377825D01*
X714150Y-377825D01*
X714744Y-377230D01*
G54D15*
X748544Y-376730D02*
X769445Y-376730D01*
X800100Y-346075D01*
X800100Y-281545D01*
X800592Y-281053D01*
X634457Y-240564D02*
G54D24*
D03*
X684457Y-240564D02*
G54D24*
D03*
G54D15*
X677116Y-187784D02*
X634464Y-230974D01*
X634457Y-240564D01*
X591340Y-267017D02*
G54D19*
D03*
X749144Y-240627D02*
G54D24*
D03*
X799144Y-240627D02*
G54D24*
D03*
G54D15*
X591340Y-267017D02*
X643276Y-267164D01*
X666344Y-247296D01*
X708871Y-247760D02*
G54D19*
D03*
G54D12*
X749144Y-240627D02*
X705049Y-218402D01*
X704850Y-111125D01*
X677116Y-111584D01*
X608887Y-247616D02*
G54D19*
D03*
G54D12*
X660856Y-281119D02*
X774644Y-281120D01*
X774700Y-241583D01*
X612265Y-134606D02*
G54D25*
D03*
X612265Y-64506D02*
G54D25*
D03*
G54D12*
X774700Y-241583D02*
X798188Y-241583D01*
X799144Y-240627D01*
G54D15*
X681178Y-244390D02*
X705501Y-244390D01*
X708871Y-247760D01*
G54D15*
X666344Y-247296D02*
X678271Y-247296D01*
X681178Y-244390D01*
X614091Y-23504D02*
G54D19*
D03*
G54D12*
X612265Y-64506D02*
X612265Y-25330D01*
X614091Y-23504D01*
G54D12*
X612265Y-134606D02*
X612265Y-133860D01*
X635000Y-111125D01*
X676657Y-111125D01*
X677116Y-111584D01*
G54D12*
X799144Y-240627D02*
X874626Y-240627D01*
X889895Y-225358D01*
X559072Y-296958D02*
G54D24*
D03*
X609072Y-296958D02*
G54D24*
D03*
X543770Y-292397D02*
G54D19*
D03*
G54D15*
X543770Y-292397D02*
X552153Y-292397D01*
X552450Y-292100D01*
G54D12*
X609072Y-296958D02*
X645017Y-296958D01*
X660856Y-281119D01*
X227816Y-104876D02*
G54D24*
D03*
X177816Y-104876D02*
G54D24*
D03*
G54D15*
X350092Y-158413D02*
X350092Y-137367D01*
X339725Y-127000D01*
X276225Y-127000D01*
X254000Y-104775D01*
X227917Y-104775D01*
X227816Y-104876D01*
G54D15*
X177816Y-104876D02*
X138111Y-104876D01*
X97391Y-145595D01*
X478926Y-350282D02*
G54D11*
D03*
X478946Y-408116D02*
G54D11*
D03*
X175755Y-464332D02*
G54D24*
D03*
X225755Y-464332D02*
G54D24*
D03*
G54D17*
X156705Y-464332D02*
X175755Y-464332D01*
%LPD*%
X163384Y-134524D02*
G54D26*
D03*
X163384Y-159924D02*
G54D26*
D03*
X241171Y-134524D02*
G54D26*
D03*
X241171Y-159924D02*
G54D26*
D03*
X426292Y-437813D02*
G54D26*
D03*
X426292Y-412413D02*
G54D26*
D03*
X426292Y-387013D02*
G54D26*
D03*
X426292Y-361613D02*
G54D26*
D03*
X426292Y-234613D02*
G54D26*
D03*
X426292Y-209213D02*
G54D26*
D03*
X426292Y-183813D02*
G54D26*
D03*
X426292Y-158413D02*
G54D26*
D03*
X273892Y-437813D02*
G54D26*
D03*
X273892Y-412413D02*
G54D26*
D03*
X273892Y-387013D02*
G54D26*
D03*
X273892Y-361613D02*
G54D26*
D03*
X273892Y-234613D02*
G54D26*
D03*
X273892Y-209213D02*
G54D26*
D03*
X273892Y-183813D02*
G54D26*
D03*
X273892Y-158413D02*
G54D26*
D03*
X426292Y-336213D02*
G54D26*
D03*
X273892Y-336213D02*
G54D26*
D03*
X426292Y-310813D02*
G54D26*
D03*
X273892Y-310813D02*
G54D26*
D03*
X426292Y-285413D02*
G54D26*
D03*
X273892Y-285413D02*
G54D26*
D03*
X426292Y-260013D02*
G54D26*
D03*
X273892Y-260013D02*
G54D26*
D03*
X531721Y-342424D02*
G54D26*
D03*
X607921Y-342424D02*
G54D26*
D03*
X531721Y-367824D02*
G54D26*
D03*
X531721Y-393224D02*
G54D26*
D03*
X531721Y-418624D02*
G54D26*
D03*
X607921Y-367824D02*
G54D26*
D03*
X607921Y-393224D02*
G54D26*
D03*
X607921Y-418624D02*
G54D26*
D03*
X208743Y-421386D02*
G54D26*
D03*
X234143Y-421386D02*
G54D26*
D03*
X208743Y-342012D02*
G54D26*
D03*
X234143Y-342011D02*
G54D26*
D03*
X383897Y-356018D02*
G54D26*
D03*
X383897Y-330618D02*
G54D26*
D03*
X307697Y-356018D02*
G54D26*
D03*
X307697Y-330618D02*
G54D26*
D03*
X677116Y-86184D02*
G54D26*
D03*
X727916Y-86184D02*
G54D26*
D03*
X677116Y-111584D02*
G54D26*
D03*
X677116Y-136984D02*
G54D26*
D03*
X727916Y-111584D02*
G54D26*
D03*
X727916Y-136984D02*
G54D26*
D03*
X677116Y-187784D02*
G54D26*
D03*
X727916Y-187784D02*
G54D26*
D03*
X889034Y-357853D02*
G54D27*
D03*
X889034Y-413653D02*
G54D27*
D03*
X299292Y-158413D02*
G54D26*
D03*
X324692Y-158413D02*
G54D26*
D03*
X350092Y-158413D02*
G54D26*
D03*
X375492Y-158413D02*
G54D26*
D03*
X400892Y-158413D02*
G54D26*
D03*
G54D21*
X156627Y-532922D02*
X156705Y-464332D01*
X889875Y-167523D02*
G54D27*
D03*
X889895Y-225358D02*
G54D27*
D03*
X552621Y-84524D02*
G54D26*
D03*
X552621Y-109924D02*
G54D26*
D03*
X552621Y-135324D02*
G54D26*
D03*
X552621Y-160724D02*
G54D26*
D03*
X552621Y-186124D02*
G54D26*
D03*
X771709Y-59090D02*
G54D26*
D03*
X771709Y-84490D02*
G54D26*
D03*
X771709Y-109890D02*
G54D26*
D03*
X771709Y-135290D02*
G54D26*
D03*
X771709Y-160690D02*
G54D26*
D03*
X771709Y-186090D02*
G54D26*
D03*
X917675Y-523068D02*
G54D28*
D03*
X67391Y-145595D02*
G54D29*
D03*
X67391Y-175595D02*
G54D29*
D03*
X67391Y-205595D02*
G54D29*
D03*
X67391Y-235595D02*
G54D29*
D03*
X67391Y-265595D02*
G54D29*
D03*
X67391Y-295595D02*
G54D29*
D03*
X67391Y-325595D02*
G54D29*
D03*
X67391Y-355595D02*
G54D29*
D03*
X67391Y-385595D02*
G54D29*
D03*
X67391Y-415595D02*
G54D29*
D03*
X97391Y-145595D02*
G54D29*
D03*
X97391Y-175595D02*
G54D29*
D03*
X97391Y-205595D02*
G54D29*
D03*
X97391Y-235595D02*
G54D29*
D03*
X97391Y-265595D02*
G54D29*
D03*
X97391Y-295595D02*
G54D29*
D03*
X97391Y-325595D02*
G54D29*
D03*
X97391Y-355595D02*
G54D29*
D03*
X97391Y-385595D02*
G54D29*
D03*
X97391Y-415595D02*
G54D29*
D03*
G54D30*
X203142Y-133953D02*
X203142Y-21824D01*
X34051Y-81261D02*
G54D26*
D03*
X156595Y-81182D02*
G54D26*
D03*
X917299Y-43346D02*
G54D28*
D03*
X660856Y-281119D02*
G54D31*
D03*
X800414Y-467476D02*
G54D31*
D03*
X660579Y-467468D02*
G54D31*
D03*
X800592Y-281053D02*
G54D31*
D03*
X43183Y-522176D02*
G54D28*
D03*
G54D32*
X305642Y-240963D02*
X305642Y-261597D01*
X343917Y-299872D01*
X343917Y-472178D01*
X325909Y-490186D01*
X272336Y-490186D01*
X248419Y-466269D01*
X218382Y-466270D01*
X187920Y-435975D01*
X175642Y-423697D01*
X131192Y-423697D01*
X93092Y-458622D01*
X58167Y-458622D01*
X29592Y-430047D01*
X29592Y-318922D01*
X51817Y-296697D01*
X66289Y-296697D01*
X67391Y-295595D01*
G54D33*
X306116Y-23504D02*
X306116Y-107059D01*
X321353Y-435094D02*
G54D34*
D03*
X320853Y-401294D02*
G54D34*
D03*
G54D30*
X320853Y-401294D02*
X320853Y-434594D01*
X321353Y-435094D01*
X156705Y-464332D02*
G54D34*
D03*
X156627Y-532922D02*
G54D34*
D03*
X505002Y-241365D02*
G54D34*
D03*
X306116Y-107059D02*
G54D34*
D03*
X306116Y-23504D02*
G54D34*
D03*
X202728Y-22425D02*
G54D34*
D03*
X203071Y-134524D02*
G54D34*
D03*
X305642Y-240963D02*
G54D34*
D03*
X242920Y-515679D02*
G54D35*
D03*
X209120Y-516179D02*
G54D35*
D03*
X343952Y-501172D02*
G54D34*
D03*
G54D30*
X343952Y-501172D02*
X343497Y-501172D01*
X329256Y-515413D01*
X243187Y-515413D01*
X242920Y-515679D01*
X184304Y-501624D02*
G54D34*
D03*
G54D30*
X209120Y-516179D02*
X198860Y-516179D01*
X184304Y-501624D01*
X367071Y-435053D02*
G54D34*
D03*
X366571Y-401253D02*
G54D34*
D03*
G54D30*
X366571Y-401253D02*
X366571Y-434553D01*
X367071Y-435053D01*
X42807Y-42455D02*
G54D28*
D03*
X17427Y-157146D02*
G54D34*
D03*
X159833Y-40408D02*
G54D34*
D03*
G54D36*
X17427Y-157146D02*
X17427Y-125448D01*
X38790Y-104086D01*
X61664Y-104086D01*
X125406Y-40343D01*
X159767Y-40343D01*
X159833Y-40408D01*
X32180Y-191910D02*
G54D34*
D03*
G54D36*
X156627Y-532922D02*
X139221Y-532922D01*
X79375Y-473075D01*
X53975Y-473075D01*
X15875Y-434975D01*
X15875Y-307975D01*
X31750Y-292100D01*
X31750Y-192340D01*
X32180Y-191910D01*
X748544Y-376730D02*
G54D35*
D03*
X714744Y-377230D02*
G54D35*
D03*
G36*
X320430Y-447908D02*
X330430Y-447908D01*
X330430Y-467908D01*
X320430Y-467908D01*
X320430Y-447908D01*
G37*
G36*
X354230Y-447408D02*
X364230Y-447408D01*
X364230Y-467408D01*
X354230Y-467408D01*
X354230Y-447408D01*
G37*
G54D30*
X325430Y-457908D02*
X318208Y-457908D01*
X298450Y-438150D01*
X274229Y-438150D01*
X273892Y-437813D01*
G54D30*
X359230Y-457408D02*
X561767Y-457408D01*
X587375Y-431800D01*
X587375Y-349250D01*
X593725Y-342900D01*
X607445Y-342900D01*
X607921Y-342424D01*
X524450Y-214724D02*
G54D34*
D03*
G36*
X467177Y-119590D02*
X477177Y-119590D01*
X477178Y-139590D01*
X467178Y-139590D01*
X467177Y-119590D01*
G37*
G36*
X500977Y-119090D02*
X510977Y-119090D01*
X510978Y-139090D01*
X500978Y-139090D01*
X500977Y-119090D01*
G37*
G36*
X467177Y-170390D02*
X477177Y-170390D01*
X477178Y-190390D01*
X467178Y-190390D01*
X467177Y-170390D01*
G37*
G36*
X500977Y-169890D02*
X510977Y-169890D01*
X510978Y-189890D01*
X500978Y-189890D01*
X500977Y-169890D01*
G37*
G36*
X467177Y-205315D02*
X477177Y-205315D01*
X477178Y-225315D01*
X467178Y-225315D01*
X467177Y-205315D01*
G37*
G36*
X500977Y-204815D02*
X510977Y-204815D01*
X510978Y-224815D01*
X500978Y-224815D01*
X500977Y-204815D01*
G37*
X400908Y-119495D02*
G54D37*
D03*
X400408Y-85695D02*
G54D37*
D03*
G54D38*
X400892Y-158413D02*
X400908Y-119495D01*
G54D38*
X400408Y-85695D02*
X304830Y-85695D01*
X304800Y-85725D01*
G54D30*
X426292Y-158413D02*
X426292Y-145208D01*
X441325Y-130175D01*
X471592Y-130175D01*
X472177Y-129590D01*
G54D30*
X505977Y-129090D02*
X517586Y-129090D01*
X536487Y-110189D01*
X552356Y-110189D01*
X552621Y-109924D01*
G54D30*
X552621Y-135324D02*
X540951Y-135324D01*
X523875Y-152400D01*
X523875Y-174625D01*
X517525Y-180975D01*
X507062Y-180975D01*
X505977Y-179890D01*
G54D30*
X426292Y-209213D02*
X450513Y-209213D01*
X457200Y-215900D01*
X471592Y-215900D01*
X472177Y-215315D01*
G54D30*
X472177Y-180390D02*
X454610Y-180390D01*
X450850Y-184150D01*
X426629Y-184150D01*
X426292Y-183813D01*
G54D30*
X505977Y-214815D02*
X524359Y-214815D01*
X524450Y-214724D01*
G54D30*
X531721Y-342424D02*
X505002Y-342424D01*
X505002Y-241365D01*
G36*
X484072Y-296483D02*
X494072Y-296483D01*
X494072Y-316483D01*
X484072Y-316483D01*
X484072Y-296483D01*
G37*
G36*
X517872Y-295983D02*
X527872Y-295983D01*
X527872Y-315983D01*
X517872Y-315983D01*
X517872Y-295983D01*
G37*
G54D30*
X489072Y-306483D02*
X483183Y-306483D01*
X453143Y-336524D01*
X426603Y-336524D01*
X426292Y-336213D01*
G54D30*
X522872Y-271058D02*
X522870Y-247689D01*
X608887Y-247616D01*
G36*
X484072Y-261558D02*
X494072Y-261558D01*
X494072Y-281558D01*
X484072Y-281558D01*
X484072Y-261558D01*
G37*
G36*
X517872Y-261058D02*
X527872Y-261058D01*
X527872Y-281058D01*
X517872Y-281058D01*
X517872Y-261058D01*
G37*
G54D30*
X489072Y-271558D02*
X503333Y-271558D01*
X504825Y-273050D01*
G54D30*
X522872Y-305983D02*
X522872Y-271058D01*
G54D30*
X607921Y-367824D02*
X628174Y-367824D01*
X638175Y-377825D01*
X714150Y-377825D01*
X714744Y-377230D01*
G54D30*
X748544Y-376730D02*
X769445Y-376730D01*
X800100Y-346075D01*
X800100Y-281545D01*
X800592Y-281053D01*
X634457Y-240564D02*
G54D39*
D03*
X684457Y-240564D02*
G54D39*
D03*
G54D30*
X677116Y-187784D02*
X634464Y-230974D01*
X634457Y-240564D01*
X591340Y-267017D02*
G54D34*
D03*
X749144Y-240627D02*
G54D39*
D03*
X799144Y-240627D02*
G54D39*
D03*
G54D30*
X591340Y-267017D02*
X643276Y-267164D01*
X666344Y-247296D01*
X708871Y-247760D02*
G54D34*
D03*
G54D21*
X749144Y-240627D02*
X705049Y-218402D01*
X704850Y-111125D01*
X677116Y-111584D01*
X608887Y-247616D02*
G54D34*
D03*
G54D21*
X660856Y-281119D02*
X774644Y-281120D01*
X774700Y-241583D01*
X612265Y-134606D02*
G54D40*
D03*
X612265Y-64506D02*
G54D40*
D03*
G54D21*
X774700Y-241583D02*
X798188Y-241583D01*
X799144Y-240627D01*
G54D30*
X681178Y-244390D02*
X705501Y-244390D01*
X708871Y-247760D01*
G54D30*
X666344Y-247296D02*
X678271Y-247296D01*
X681178Y-244390D01*
X614091Y-23504D02*
G54D34*
D03*
G54D21*
X612265Y-64506D02*
X612265Y-25330D01*
X614091Y-23504D01*
G54D21*
X612265Y-134606D02*
X612265Y-133860D01*
X635000Y-111125D01*
X676657Y-111125D01*
X677116Y-111584D01*
G54D21*
X799144Y-240627D02*
X874626Y-240627D01*
X889895Y-225358D01*
X559072Y-296958D02*
G54D39*
D03*
X609072Y-296958D02*
G54D39*
D03*
X543770Y-292397D02*
G54D34*
D03*
G54D30*
X543770Y-292397D02*
X552153Y-292397D01*
X552450Y-292100D01*
G54D21*
X609072Y-296958D02*
X645017Y-296958D01*
X660856Y-281119D01*
X227816Y-104876D02*
G54D39*
D03*
X177816Y-104876D02*
G54D39*
D03*
G54D30*
X350092Y-158413D02*
X350092Y-137367D01*
X339725Y-127000D01*
X276225Y-127000D01*
X254000Y-104775D01*
X227917Y-104775D01*
X227816Y-104876D01*
G54D30*
X177816Y-104876D02*
X138111Y-104876D01*
X97391Y-145595D01*
X478926Y-350282D02*
G54D27*
D03*
X478946Y-408116D02*
G54D27*
D03*
X175755Y-464332D02*
G54D39*
D03*
X225755Y-464332D02*
G54D39*
D03*
G54D32*
X156705Y-464332D02*
X175755Y-464332D01*
%LNZENTR*%
%LPC*%
X163384Y-134524D02*
G54D30*
D03*
X163384Y-159924D02*
G54D30*
D03*
X241171Y-134524D02*
G54D30*
D03*
X241171Y-159924D02*
G54D30*
D03*
X426292Y-437813D02*
G54D30*
D03*
X426292Y-412413D02*
G54D30*
D03*
X426292Y-387013D02*
G54D30*
D03*
X426292Y-361613D02*
G54D30*
D03*
X426292Y-234613D02*
G54D30*
D03*
X426292Y-209213D02*
G54D30*
D03*
X426292Y-183813D02*
G54D30*
D03*
X426292Y-158413D02*
G54D30*
D03*
X273892Y-437813D02*
G54D30*
D03*
X273892Y-412413D02*
G54D30*
D03*
X273892Y-387013D02*
G54D30*
D03*
X273892Y-361613D02*
G54D30*
D03*
X273892Y-234613D02*
G54D30*
D03*
X273892Y-209213D02*
G54D30*
D03*
X273892Y-183813D02*
G54D30*
D03*
X273892Y-158413D02*
G54D30*
D03*
X426292Y-336213D02*
G54D30*
D03*
X273892Y-336213D02*
G54D30*
D03*
X426292Y-310813D02*
G54D30*
D03*
X273892Y-310813D02*
G54D30*
D03*
X426292Y-285413D02*
G54D30*
D03*
X273892Y-285413D02*
G54D30*
D03*
X426292Y-260013D02*
G54D30*
D03*
X273892Y-260013D02*
G54D30*
D03*
X531721Y-342424D02*
G54D30*
D03*
X607921Y-342424D02*
G54D30*
D03*
X531721Y-367824D02*
G54D30*
D03*
X531721Y-393224D02*
G54D30*
D03*
X531721Y-418624D02*
G54D30*
D03*
X607921Y-367824D02*
G54D30*
D03*
X607921Y-393224D02*
G54D30*
D03*
X607921Y-418624D02*
G54D30*
D03*
X208743Y-421386D02*
G54D30*
D03*
X234143Y-421386D02*
G54D30*
D03*
X208743Y-342012D02*
G54D30*
D03*
X234143Y-342011D02*
G54D30*
D03*
X383897Y-356018D02*
G54D30*
D03*
X383897Y-330618D02*
G54D30*
D03*
X307697Y-356018D02*
G54D30*
D03*
X307697Y-330618D02*
G54D30*
D03*
X677116Y-86184D02*
G54D30*
D03*
X727916Y-86184D02*
G54D30*
D03*
X677116Y-111584D02*
G54D30*
D03*
X677116Y-136984D02*
G54D30*
D03*
X727916Y-111584D02*
G54D30*
D03*
X727916Y-136984D02*
G54D30*
D03*
X677116Y-187784D02*
G54D30*
D03*
X727916Y-187784D02*
G54D30*
D03*
X889034Y-357853D02*
G54D33*
D03*
X889034Y-413653D02*
G54D33*
D03*
X299292Y-158413D02*
G54D30*
D03*
X324692Y-158413D02*
G54D30*
D03*
X350092Y-158413D02*
G54D30*
D03*
X375492Y-158413D02*
G54D30*
D03*
X400892Y-158413D02*
G54D30*
D03*
X889875Y-167523D02*
G54D33*
D03*
X889895Y-225358D02*
G54D33*
D03*
X552621Y-84524D02*
G54D30*
D03*
X552621Y-109924D02*
G54D30*
D03*
X552621Y-135324D02*
G54D30*
D03*
X552621Y-160724D02*
G54D30*
D03*
X552621Y-186124D02*
G54D30*
D03*
X771709Y-59090D02*
G54D30*
D03*
X771709Y-84490D02*
G54D30*
D03*
X771709Y-109890D02*
G54D30*
D03*
X771709Y-135290D02*
G54D30*
D03*
X771709Y-160690D02*
G54D30*
D03*
X771709Y-186090D02*
G54D30*
D03*
X917675Y-523068D02*
G54D41*
D03*
X67391Y-145595D02*
G54D30*
D03*
X67391Y-175595D02*
G54D30*
D03*
X67391Y-205595D02*
G54D30*
D03*
X67391Y-235595D02*
G54D30*
D03*
X67391Y-265595D02*
G54D30*
D03*
X67391Y-295595D02*
G54D30*
D03*
X67391Y-325595D02*
G54D30*
D03*
X67391Y-355595D02*
G54D30*
D03*
X67391Y-385595D02*
G54D30*
D03*
X67391Y-415595D02*
G54D30*
D03*
X97391Y-145595D02*
G54D30*
D03*
X97391Y-175595D02*
G54D30*
D03*
X97391Y-205595D02*
G54D30*
D03*
X97391Y-235595D02*
G54D30*
D03*
X97391Y-265595D02*
G54D30*
D03*
X97391Y-295595D02*
G54D30*
D03*
X97391Y-325595D02*
G54D30*
D03*
X97391Y-355595D02*
G54D30*
D03*
X97391Y-385595D02*
G54D30*
D03*
X97391Y-415595D02*
G54D30*
D03*
X34051Y-81261D02*
G54D30*
D03*
X156595Y-81182D02*
G54D30*
D03*
X917299Y-43346D02*
G54D41*
D03*
X660856Y-281119D02*
G54D33*
D03*
X800414Y-467476D02*
G54D33*
D03*
X660579Y-467468D02*
G54D33*
D03*
X800592Y-281053D02*
G54D33*
D03*
X43183Y-522176D02*
G54D41*
D03*
X321353Y-435094D02*
G54D42*
D03*
X320853Y-401294D02*
G54D42*
D03*
X156705Y-464332D02*
G54D42*
D03*
X156627Y-532922D02*
G54D42*
D03*
X505002Y-241365D02*
G54D42*
D03*
X306116Y-107059D02*
G54D42*
D03*
X306116Y-23504D02*
G54D42*
D03*
X202728Y-22425D02*
G54D42*
D03*
X203071Y-134524D02*
G54D42*
D03*
X305642Y-240963D02*
G54D42*
D03*
X343952Y-501172D02*
G54D42*
D03*
X184304Y-501624D02*
G54D42*
D03*
X367071Y-435053D02*
G54D42*
D03*
X366571Y-401253D02*
G54D42*
D03*
X42807Y-42455D02*
G54D41*
D03*
X17427Y-157146D02*
G54D42*
D03*
X159833Y-40408D02*
G54D42*
D03*
X32180Y-191910D02*
G54D42*
D03*
X524450Y-214724D02*
G54D42*
D03*
X591340Y-267017D02*
G54D42*
D03*
X708871Y-247760D02*
G54D42*
D03*
X608887Y-247616D02*
G54D42*
D03*
X614091Y-23504D02*
G54D42*
D03*
X543770Y-292397D02*
G54D42*
D03*
X478926Y-350282D02*
G54D33*
D03*
X478946Y-408116D02*
G54D33*
D03*
M02*
