; Drill file
; Format: 3.3 (000.000)
M48
METRIC
T01C0.4
T02C1.0
T03C1.2
T04C2.5
%
G05
G90
T01
X015660Y-053290
X018430Y-050160
X015670Y-046430
X032140Y-043510
X032090Y-040130
X036660Y-040130
X036710Y-043510
X034400Y-050120
X030560Y-024100
X030610Y-010710
X030610Y-002350
X020270Y-002240
X015980Y-004040
X020310Y-013450
X003220Y-019190
X001740Y-015710
X050500Y-024140
X052440Y-021470
X054380Y-029240
X059130Y-026700
X060890Y-024760
X070890Y-024780
X061410Y-002350
T02
X006740Y-041560
X006740Y-038560
X006740Y-035560
X006740Y-032560
X006740Y-029560
X006740Y-026560
X006740Y-023560
X006740Y-020560
X006740Y-017560
X006740Y-014560
X009740Y-014560
X009740Y-017560
X009740Y-020560
X009740Y-023560
X009740Y-026560
X009740Y-029560
X009740Y-032560
X009740Y-035560
X009740Y-038560
X009740Y-041560
X020870Y-042140
X023410Y-042140
X027390Y-041240
X027390Y-043780
X027390Y-038700
X027390Y-036160
X027390Y-033620
X027390Y-031080
X027390Y-028540
X027390Y-026000
X027390Y-023460
X027390Y-020920
X027390Y-018380
X027390Y-015840
X029930Y-015840
X032470Y-015840
X035010Y-015840
X037550Y-015840
X040090Y-015840
X042630Y-015840
X042630Y-018380
X042630Y-020920
X042630Y-023460
X042630Y-026000
X042630Y-028540
X042630Y-031080
X042630Y-033620
X042630Y-036160
X042630Y-038700
X042630Y-041240
X042630Y-043780
X038390Y-035600
X038390Y-033060
X030770Y-033060
X030770Y-035600
X023410Y-034200
X020870Y-034200
X024120Y-015990
X024120Y-013450
X016340Y-013450
X016340Y-015990
X015660Y-008120
X003410Y-008130
X055260Y-008450
X055260Y-010990
X055260Y-013530
X055260Y-016070
X055260Y-018610
X067710Y-018780
X067710Y-013700
X067710Y-011160
X067710Y-008620
X072790Y-008620
X072790Y-011160
X072790Y-013700
X077170Y-013530
X077170Y-010990
X077170Y-008450
X077170Y-005910
X077170Y-016070
X077170Y-018610
X072790Y-018780
X060790Y-034240
X060790Y-036780
X060790Y-039320
X060790Y-041860
X053170Y-041860
X053170Y-039320
X053170Y-036780
X053170Y-034240
T03
X047890Y-040810
X047890Y-035030
X066090Y-028110
X080060Y-028110
X088990Y-022540
X088990Y-016750
X088900Y-035790
X088900Y-041370
X080040Y-046750
X066060Y-046750
T04
X004320Y-052220
X004280Y-004250
X091730Y-004330
X091770Y-052310
M30
