%FSLAX34Y34*%
%MOMM*%
%LNSOLDERMASK_TOP*%
G71*
G01*
%ADD10C, 2.70*%
%ADD11R, 2.40X1.40*%
%ADD12R, 1.40X2.40*%
%ADD13C, 3.40*%
%ADD14R, 1.20X1.70*%
%ADD15R, 1.70X1.20*%
%ADD16C, 4.60*%
%ADD17C, 2.80*%
%ADD18C, 3.00*%
%LPD*%
X163384Y-134524D02*
G54D10*
D03*
X163384Y-159924D02*
G54D10*
D03*
X241171Y-134524D02*
G54D10*
D03*
X241171Y-159924D02*
G54D10*
D03*
X426292Y-437813D02*
G54D10*
D03*
X426292Y-412413D02*
G54D10*
D03*
X426292Y-387013D02*
G54D10*
D03*
X426292Y-361613D02*
G54D10*
D03*
X426292Y-234613D02*
G54D10*
D03*
X426292Y-209213D02*
G54D10*
D03*
X426292Y-183813D02*
G54D10*
D03*
X426292Y-158413D02*
G54D10*
D03*
X273892Y-437813D02*
G54D10*
D03*
X273892Y-412413D02*
G54D10*
D03*
X273892Y-387013D02*
G54D10*
D03*
X273892Y-361613D02*
G54D10*
D03*
X273892Y-234613D02*
G54D10*
D03*
X273892Y-209213D02*
G54D10*
D03*
X273892Y-183813D02*
G54D10*
D03*
X273892Y-158413D02*
G54D10*
D03*
X426292Y-336213D02*
G54D10*
D03*
X273892Y-336213D02*
G54D10*
D03*
X426292Y-310813D02*
G54D10*
D03*
X273892Y-310813D02*
G54D10*
D03*
X426292Y-285413D02*
G54D10*
D03*
X273892Y-285413D02*
G54D10*
D03*
X426292Y-260013D02*
G54D10*
D03*
X273892Y-260013D02*
G54D10*
D03*
X531721Y-342424D02*
G54D10*
D03*
X607921Y-342424D02*
G54D10*
D03*
X531721Y-367824D02*
G54D10*
D03*
X531721Y-393224D02*
G54D10*
D03*
X531721Y-418624D02*
G54D10*
D03*
X607921Y-367824D02*
G54D10*
D03*
X607921Y-393224D02*
G54D10*
D03*
X607921Y-418624D02*
G54D10*
D03*
G36*
X575475Y-398424D02*
X565575Y-388525D01*
X582546Y-371554D01*
X592445Y-381453D01*
X575475Y-398424D01*
G37*
G36*
X553979Y-377494D02*
X544079Y-367594D01*
X561050Y-350624D01*
X570949Y-360523D01*
X553979Y-377494D01*
G37*
X208743Y-421386D02*
G54D10*
D03*
X234143Y-421386D02*
G54D10*
D03*
X208743Y-342012D02*
G54D10*
D03*
X234143Y-342011D02*
G54D10*
D03*
X383897Y-356018D02*
G54D10*
D03*
X383897Y-330618D02*
G54D10*
D03*
X307697Y-356018D02*
G54D10*
D03*
X307697Y-330618D02*
G54D10*
D03*
X357192Y-346978D02*
G54D11*
D03*
X357692Y-380778D02*
G54D11*
D03*
X677116Y-86184D02*
G54D10*
D03*
X727916Y-86184D02*
G54D10*
D03*
X677116Y-111584D02*
G54D10*
D03*
X677116Y-136984D02*
G54D10*
D03*
X727916Y-111584D02*
G54D10*
D03*
X727916Y-136984D02*
G54D10*
D03*
X677116Y-187784D02*
G54D10*
D03*
X727916Y-187784D02*
G54D10*
D03*
X713483Y-318143D02*
G54D12*
D03*
G36*
X740283Y-305643D02*
X754283Y-305643D01*
X754283Y-329643D01*
X740283Y-329643D01*
X740283Y-305643D01*
G37*
X889034Y-357853D02*
G54D13*
D03*
X889034Y-413653D02*
G54D13*
D03*
X299292Y-158413D02*
G54D10*
D03*
X324692Y-158413D02*
G54D10*
D03*
X350092Y-158413D02*
G54D10*
D03*
X375492Y-158413D02*
G54D10*
D03*
X400892Y-158413D02*
G54D10*
D03*
X573225Y-332760D02*
G54D11*
D03*
X572725Y-298960D02*
G54D11*
D03*
X557277Y-236175D02*
G54D14*
D03*
X576399Y-236098D02*
G54D14*
D03*
X566886Y-212015D02*
G54D14*
D03*
X274281Y-121827D02*
G54D15*
D03*
X274204Y-102704D02*
G54D15*
D03*
X250120Y-112218D02*
G54D15*
D03*
G36*
X282536Y-116137D02*
X296536Y-116137D01*
X296536Y-140137D01*
X282536Y-140137D01*
X282536Y-116137D01*
G37*
G36*
X316336Y-115637D02*
X330336Y-115637D01*
X330336Y-139637D01*
X316336Y-139637D01*
X316336Y-115637D01*
G37*
X356572Y-298379D02*
G54D11*
D03*
X357072Y-332179D02*
G54D11*
D03*
X395069Y-491958D02*
G54D12*
D03*
X361269Y-492458D02*
G54D12*
D03*
G36*
X586179Y-476051D02*
X596079Y-485950D01*
X579108Y-502921D01*
X569208Y-493021D01*
X586179Y-476051D01*
G37*
G36*
X610432Y-499597D02*
X620332Y-509496D01*
X603362Y-526468D01*
X593462Y-516569D01*
X610432Y-499597D01*
G37*
G36*
X858301Y-476074D02*
X846833Y-468043D01*
X860599Y-448384D01*
X872067Y-456414D01*
X858301Y-476074D01*
G37*
G36*
X830327Y-457096D02*
X818859Y-449066D01*
X832625Y-429406D01*
X844093Y-437437D01*
X830327Y-457096D01*
G37*
G36*
X504694Y-437236D02*
X514594Y-447135D01*
X497623Y-464106D01*
X487724Y-454206D01*
X504694Y-437236D01*
G37*
G36*
X528947Y-460782D02*
X538847Y-470681D01*
X521877Y-487653D01*
X511978Y-477754D01*
X528947Y-460782D01*
G37*
X538298Y-531486D02*
G54D11*
D03*
X537798Y-497686D02*
G54D11*
D03*
X456082Y-270544D02*
G54D11*
D03*
X456582Y-304344D02*
G54D11*
D03*
X582869Y-108111D02*
G54D11*
D03*
X582369Y-74311D02*
G54D11*
D03*
X889875Y-167523D02*
G54D13*
D03*
X889895Y-225358D02*
G54D13*
D03*
X552621Y-84524D02*
G54D10*
D03*
X552621Y-109924D02*
G54D10*
D03*
X552621Y-135324D02*
G54D10*
D03*
X552621Y-160724D02*
G54D10*
D03*
X552621Y-186124D02*
G54D10*
D03*
X771709Y-59090D02*
G54D10*
D03*
X771709Y-84490D02*
G54D10*
D03*
X771709Y-109890D02*
G54D10*
D03*
X771709Y-135290D02*
G54D10*
D03*
X771709Y-160690D02*
G54D10*
D03*
X771709Y-186090D02*
G54D10*
D03*
X917675Y-523068D02*
G54D16*
D03*
X67391Y-145595D02*
G54D17*
D03*
X67391Y-175595D02*
G54D17*
D03*
X67391Y-205595D02*
G54D17*
D03*
X67391Y-235595D02*
G54D17*
D03*
X67391Y-265595D02*
G54D17*
D03*
X67391Y-295595D02*
G54D17*
D03*
X67391Y-325595D02*
G54D17*
D03*
X67391Y-355595D02*
G54D17*
D03*
X67391Y-385595D02*
G54D17*
D03*
X67391Y-415595D02*
G54D17*
D03*
X97391Y-145595D02*
G54D17*
D03*
X97391Y-175595D02*
G54D17*
D03*
X97391Y-205595D02*
G54D17*
D03*
X97391Y-235595D02*
G54D17*
D03*
X97391Y-265595D02*
G54D17*
D03*
X97391Y-295595D02*
G54D17*
D03*
X97391Y-325595D02*
G54D17*
D03*
X97391Y-355595D02*
G54D17*
D03*
X97391Y-385595D02*
G54D17*
D03*
X97391Y-415595D02*
G54D17*
D03*
X236465Y-408898D02*
G54D11*
D03*
X235965Y-375098D02*
G54D11*
D03*
X162304Y-171682D02*
G54D11*
D03*
X162804Y-205482D02*
G54D11*
D03*
X34051Y-81261D02*
G54D10*
D03*
X156595Y-81182D02*
G54D10*
D03*
X917299Y-43346D02*
G54D16*
D03*
G36*
X316186Y-261328D02*
X330186Y-261328D01*
X330186Y-285328D01*
X316186Y-285328D01*
X316186Y-261328D01*
G37*
G36*
X349986Y-260828D02*
X363986Y-260828D01*
X363986Y-284828D01*
X349986Y-284828D01*
X349986Y-260828D01*
G37*
G36*
X295019Y-291788D02*
X309019Y-291788D01*
X309019Y-315788D01*
X295019Y-315788D01*
X295019Y-291788D01*
G37*
G36*
X328819Y-291288D02*
X342819Y-291288D01*
X342819Y-315288D01*
X328819Y-315288D01*
X328819Y-291288D01*
G37*
X660856Y-281119D02*
G54D18*
D03*
X800414Y-467476D02*
G54D18*
D03*
X660579Y-467468D02*
G54D18*
D03*
X800592Y-281053D02*
G54D18*
D03*
G36*
X331827Y-447790D02*
X345827Y-447790D01*
X345828Y-471790D01*
X331828Y-471790D01*
X331827Y-447790D01*
G37*
G36*
X365627Y-447290D02*
X379627Y-447290D01*
X379628Y-471290D01*
X365628Y-471290D01*
X365627Y-447290D01*
G37*
G36*
X21905Y-102406D02*
X35905Y-102406D01*
X35905Y-126406D01*
X21905Y-126406D01*
X21905Y-102406D01*
G37*
G36*
X55705Y-101906D02*
X69705Y-101906D01*
X69705Y-125906D01*
X55705Y-125906D01*
X55705Y-101906D01*
G37*
X155407Y-441550D02*
G54D11*
D03*
X154907Y-407750D02*
G54D11*
D03*
X43183Y-522176D02*
G54D16*
D03*
X329364Y-199495D02*
G54D14*
D03*
X310242Y-199572D02*
G54D14*
D03*
X319755Y-223655D02*
G54D14*
D03*
G36*
X354052Y-187440D02*
X368052Y-187440D01*
X368053Y-211440D01*
X354053Y-211440D01*
X354052Y-187440D01*
G37*
G36*
X387852Y-186940D02*
X401852Y-186940D01*
X401853Y-210940D01*
X387853Y-210940D01*
X387852Y-186940D01*
G37*
X42807Y-42455D02*
G54D16*
D03*
X478926Y-350282D02*
G54D13*
D03*
X478946Y-408116D02*
G54D13*
D03*
M02*
